<?xml version="1.0" standalone="no"?>
<!DOCTYPE svg PUBLIC "-//W3C//DTD SVG 1.1//EN" "http://www.w3.org/Graphics/SVG/1.1/DTD/svg11.dtd" >
<svg xmlns="http://www.w3.org/2000/svg">
<metadata></metadata>
<defs>
<font id="texgyrepagellabold_italic" horiz-adv-x="1138" >
<font-face units-per-em="2048" ascent="1493" descent="-555" />
<missing-glyph horiz-adv-x="512" />
<glyph unicode="&#xfb01;" horiz-adv-x="1251" d="M-266 -537q17 35 37 105t28 115l35 6q41 -90 105 -90q37 0 59.5 29t42 99.5t49.5 227.5l166 870h-186l10 52q17 6 64 20t79 25.5t62 25.5q2 6 3 11.5t2 13.5t3 16q22 108 63.5 165.5t180.5 170.5q119 97 177 129.5t113 32.5q30 0 91 -17q-34 -125 -56 -256l-31 -6 q-37 54 -79 84.5t-80 30.5q-78 0 -113 -158l-51 -235h328l122 22q56 9 62 9q76 0 76 -82q0 -49 -23 -131l-110 -402q-41 -143 -41 -190q0 -9 6.5 -16t15.5 -7q28 0 127 62l55 34l25 -57q-27 -19 -57 -41q-125 -89 -203.5 -127.5t-136.5 -38.5q-29 0 -47.5 24t-18.5 64 q0 49 12 107l142 575q12 54 12 76q0 35 -23 35h-131q-80 0 -211 -21l-112 -481q-73 -315 -132.5 -464t-154.5 -259q-64 -73 -145 -124.5t-133 -51.5q-46 0 -78 18zM954 1294q0 -55 32 -89t85 -34q58 0 95.5 40.5t37.5 103.5q0 56 -31.5 91.5t-80.5 35.5q-57 0 -97.5 -44 t-40.5 -104z" />
<glyph unicode="&#xfb02;" horiz-adv-x="1251" d="M-266 -537q17 35 37 105t28 115l35 6q41 -90 105 -90q37 0 59.5 29t42 99.5t49.5 227.5l166 870h-186l10 52q17 6 64 20t79 25.5t62 25.5q19 110 43.5 160t93.5 121q44 44 127 109.5t149 107.5q62 41 129 41q30 0 91 -17q-8 -20 -17 -67q71 2 188.5 24.5t178.5 47.5 l24 -25l-14 -57q-3 -14 -10.5 -39.5t-10.5 -36.5l-219 -987q-24 -108 -24 -187q0 -28 24 -28q18 0 49 15t60 38l61 47l29 -55q-181 -131 -257 -172t-142 -41t-66 106q0 55 5 91t28 137l207 940q8 33 8 63q0 51 -72 51h-61l-25 -121l-31 -6q-37 54 -79 84.5t-80 30.5 q-78 0 -111 -158l-49 -235q92 0 252 16l10 -16q-15 -35 -33 -105h-252l-112 -481q-73 -315 -132.5 -464t-154.5 -259q-64 -73 -145 -124.5t-133 -51.5q-46 0 -78 18z" />
<glyph unicode="&#xfb03;" horiz-adv-x="1779" d="M-266 -537q17 35 37 105t28 115l35 6q41 -90 105 -90q19 0 33 5t27 21.5t23 40.5t22 69t23 98.5t27 137.5l162 854h-186l10 52q17 6 64 20t79 25.5t62 25.5q1 5 3.5 16.5t4.5 24.5q19 93 44 138.5t93 105.5l115 100q56 49 172 121q32 20 53.5 26.5t52.5 6.5q36 0 97 -17 q-38 -134 -58 -256l-31 -6q-47 67 -78 91t-71 24q-58 0 -87 -62.5t-71 -271.5l-12 -59h299l14 59q27 110 68 168t176 168q119 97 177.5 129.5t113.5 32.5q29 0 90 -17q-31 -114 -55 -256l-31 -6q-37 54 -79.5 84.5t-80.5 30.5q-77 0 -112 -158l-52 -235h328q145 31 184 31 q76 0 76 -82q0 -53 -22 -131l-111 -402q-41 -143 -41 -190q0 -9 7 -16t16 -7q28 0 127 62l55 34l24 -57q-27 -19 -57 -41q-125 -89 -203.5 -127.5t-136.5 -38.5q-29 0 -47 24t-18 64q0 49 12 107l141 575q12 54 12 76q0 35 -22 35h-131q-80 0 -211 -21l-113 -481 q-74 -316 -132.5 -464.5t-153.5 -258.5q-63 -72 -145 -124t-134 -52q-46 0 -78 18q17 36 37.5 106t28.5 114l35 6q22 -48 46 -69t58 -21q23 0 38.5 9.5t29.5 29.5t27 64t26 101t31 152l165 870h-299l-112 -481q-73 -315 -132.5 -464t-154.5 -259q-64 -73 -145 -124.5 t-133 -51.5q-46 0 -78 18zM1487 1294q0 -55 32 -89t85 -34q58 0 95.5 40.5t37.5 103.5q0 56 -32 91.5t-81 35.5q-57 0 -97 -44t-40 -104z" />
<glyph unicode="&#xfb04;" horiz-adv-x="1855" d="M-266 -537q17 35 37 105t28 115l35 6q41 -90 105 -90q19 0 33 5t27 21.5t23 40.5t22 69t23 98.5t27 137.5l162 854h-186l10 52q17 6 64 20t79 25.5t62 25.5q1 5 3.5 16.5t4.5 24.5q19 93 44 138.5t93 105.5l115 100q56 49 172 121q32 20 53.5 26.5t52.5 6.5q36 0 97 -17 q-38 -134 -58 -256l-31 -6q-47 67 -78 91t-71 24q-58 0 -87 -62.5t-71 -271.5l-12 -59h301l4 18q27 117 49 165.5t88 115.5q44 44 127.5 109.5t149.5 107.5q62 41 129 41q29 0 90 -17q-6 -15 -16 -67q71 2 188 24.5t178 47.5l25 -25q-5 -21 -17.5 -66t-17.5 -67l-219 -987 q-25 -113 -25 -187q0 -28 25 -28q41 0 108 53l62 47l28 -55q-181 -131 -257 -172t-142 -41q-65 0 -65 106q0 57 5 93t27 135l207 940q8 33 8 63q0 51 -71 51h-62l-24 -121l-31 -6q-37 54 -79.5 84.5t-80.5 30.5q-77 0 -110 -158l-50 -235q119 3 252 16l11 -16 q-15 -35 -33 -105h-252l-113 -481q-74 -316 -132.5 -464.5t-153.5 -258.5q-63 -72 -145 -124t-134 -52q-46 0 -78 18q17 36 37.5 106t28.5 114l35 6q22 -48 46 -69t58 -21q23 0 38.5 9.5t29.5 29.5t27 64t26 101t31 152l165 870h-299l-112 -481q-73 -315 -132.5 -464 t-154.5 -259q-64 -73 -145 -124.5t-133 -51.5q-46 0 -78 18z" />
<glyph horiz-adv-x="2048" />
<glyph horiz-adv-x="2048" />
<glyph unicode="&#xd;" horiz-adv-x="2048" />
<glyph unicode=" "  horiz-adv-x="512" />
<glyph unicode="&#x09;" horiz-adv-x="512" />
<glyph unicode="&#xa0;" horiz-adv-x="512" />
<glyph unicode="!" horiz-adv-x="681" d="M119 100q0 76 44.5 126t112.5 50q58 0 92.5 -35.5t34.5 -95.5q0 -78 -42.5 -129t-108.5 -51q-60 0 -96.5 37t-36.5 98zM260 416l88 880v68h27l260 59l24 -18l-225 -709q-31 -101 -67 -250l-80 -49z" />
<glyph unicode="&#x22;" horiz-adv-x="1024" d="M281 956l143 430q28 89 102 89q41 0 68 -26.5t27 -66.5q0 -45 -21 -73l-250 -353h-69zM670 956l143 430q28 89 102 89q41 0 68 -26.5t27 -66.5q0 -45 -21 -73l-250 -353h-69z" />
<glyph unicode="#" horiz-adv-x="1024" d="M8 440v154h236l32 219h-210v154h233l61 411h154l-61 -411h219l59 411h154l-60 -411h191v-154h-213l-33 -219h193v-154h-215l-66 -440h-154l66 440h-221l-66 -440h-153l65 440h-211zM397 594h219l33 219h-219z" />
<glyph unicode="$" horiz-adv-x="1024" d="M41 82q37 122 53 293h70l-6 -123q-1 -44 6 -59.5t37 -34.5q43 -27 76 -41t98 -33l90 500q-169 29 -246.5 104.5t-77.5 210.5q0 117 56 218t157 165q55 36 107.5 54.5t142.5 33.5l23 139h78l-21 -133q76 -2 126 -14.5t124 -50.5q11 -5 23 -11.5t20 -9.5q-32 -94 -55 -276 h-62v145q0 29 -54 60.5t-138 50.5l-82 -473q114 -24 176 -52t104 -71q76 -82 76 -207q0 -123 -68 -231t-190 -179q-58 -34 -109 -49t-135 -24l-34 -205h-89l39 207q-129 19 -192.5 38.5t-122.5 57.5zM322 1004q0 -69 44.5 -114t139.5 -73l82 453q-87 -5 -142 -37 q-56 -34 -90 -97t-34 -132zM457 80q50 0 80.5 7.5t64.5 27.5q63 35 100 100t37 141q0 83 -44.5 130.5t-151.5 76.5z" />
<glyph unicode="%" horiz-adv-x="1820" d="M115 1020q0 158 107.5 257t277.5 99q126 0 200 -81.5t74 -219.5q0 -158 -103 -258t-265 -100q-136 0 -213.5 81t-77.5 222zM291 913q0 -61 30.5 -100t77.5 -39q73 0 123 90q32 57 54 149t22 167q0 61 -31 100t-78 39q-69 0 -122 -90q-31 -52 -53.5 -146.5t-22.5 -169.5z M360 -35l910 1462h104l-905 -1462h-109zM958 295q0 158 107.5 257t277.5 99q126 0 200.5 -81.5t74.5 -219.5q0 -158 -103.5 -258t-265.5 -100q-136 0 -213.5 81t-77.5 222zM1135 188q0 -61 30.5 -100t77.5 -39q73 0 123 90q32 57 54 149t22 167q0 61 -31 100t-78 39 q-70 0 -123 -90q-31 -52 -53 -146.5t-22 -169.5z" />
<glyph unicode="&#x26;" horiz-adv-x="1705" d="M152 356q0 160 110 267q59 57 123 92t188 76q-94 15 -145 71.5t-51 145.5q0 150 186 288q171 127 334 127q130 0 233 -57q-23 -88 -32.5 -143t-10.5 -119h-61v123q-59 46 -107 65t-106 19q-101 0 -168 -66.5t-67 -167.5t71 -154t182 -53h29l-29 -116q-27 6 -55 6 q-171 0 -278 -95.5t-107 -248.5q0 -154 108.5 -248t288.5 -94q178 0 296 92.5t118 232.5q0 76 -48 123t-126 47q-57 0 -91.5 -31t-53.5 -100l-9 -30h-49l21 215q33 37 106.5 70.5t147.5 43.5l246 37q127 19 182 55t55 101q0 67 -74 96l29 51q66 -32 94.5 -73.5t28.5 -104.5 q0 -101 -62.5 -169.5t-175.5 -90.5l-163 -31q129 -31 129 -157q0 -189 -193 -322q-106 -75 -256.5 -119.5t-296.5 -44.5q-227 0 -359 105.5t-132 285.5z" />
<glyph unicode="'" horiz-adv-x="512" d="M260 956l143 430q13 43 40.5 66t62.5 23q41 0 67.5 -26.5t26.5 -66.5q0 -46 -20 -73l-250 -353h-70z" />
<glyph unicode="(" horiz-adv-x="681" d="M119 514q0 225 107 437t306 382l173 148l49 -51q-141 -154 -209.5 -267t-122.5 -282q-78 -241 -78 -502q0 -189 37.5 -318.5t134.5 -281.5l-53 -43q-96 121 -144.5 190.5t-85.5 141.5q-114 221 -114 446z" />
<glyph unicode=")" horiz-adv-x="681" d="M-25 -213q141 154 209.5 267t122.5 282q78 238 78 502q0 188 -37.5 318.5t-134.5 281.5l53 43q96 -121 144.5 -190.5t85.5 -141.5q114 -215 114 -449q0 -222 -107.5 -434.5t-305.5 -382.5l-172 -147z" />
<glyph unicode="*" horiz-adv-x="909" d="M172 936l8 14q138 36 281 109q-103 69 -283 121l-6 14q55 87 90 158h33q94 -111 209 -234q26 135 26 291l17 14q84 -31 188 -45l10 -28q-79 -79 -167 -260q30 6 91.5 17t110.5 21.5t86 24.5l13 -6q-8 -78 20 -178l-18 -23q-131 53 -316 70q71 -118 97 -156.5t67 -85.5 l-4 -24q-72 -13 -174 -70l-31 14q0 157 -22 297q-50 -36 -106.5 -94.5t-100.5 -120.5l-39 17q-29 85 -80 143z" />
<glyph unicode="+" horiz-adv-x="1241" d="M104 424v176h439v438h176v-438h438v-176h-438v-438h-176v438h-439z" />
<glyph unicode="," horiz-adv-x="512" d="M-68 -307l84 160q34 67 70.5 181.5t48.5 194.5q160 35 258 72l33 -31q-93 -184 -131 -247q-45 -72 -126 -178.5t-91 -106.5l-109 -74z" />
<glyph unicode="-" horiz-adv-x="796" d="M76 426q45 113 59 188q120 -12 299 -12l293 6l14 -18q-19 -30 -31 -66t-30 -118q-58 2 -138.5 6t-140.5 4q-196 0 -313 -8z" />
<glyph unicode="." horiz-adv-x="512" d="M98 100q0 76 45 126t113 50q58 0 92.5 -35.5t34.5 -95.5q0 -77 -43 -128.5t-109 -51.5q-60 0 -96.5 37t-36.5 98z" />
<glyph unicode="/" horiz-adv-x="645" d="M2 -35l459 1510h184l-459 -1510h-184z" />
<glyph unicode="0" horiz-adv-x="1024" d="M86 467q0 178 41.5 348.5t118.5 308.5q79 142 175 208.5t222 66.5q175 0 268 -129t93 -375q0 -176 -42.5 -348t-119.5 -311q-152 -271 -391 -271q-179 0 -272 128t-93 374zM319 233q0 -89 35 -140.5t95 -51.5q57 0 99 48t73 149q54 171 101.5 458t47.5 437 q0 88 -34.5 139t-94.5 51q-73 0 -119.5 -81t-95.5 -279l-18 -80q-37 -160 -63 -350.5t-26 -299.5z" />
<glyph unicode="1" horiz-adv-x="1024" d="M84 -6l10 67l111 7q100 6 123.5 23.5t36.5 96.5l180 996l-375 -160l-18 18l32 129q250 64 402 123q111 43 211 95l34 -19q-17 -71 -26 -129l-182 -1036q-9 -47 -9 -60q0 -43 24 -58.5t93 -18.5l158 -7l-12 -67q-242 6 -398 6z" />
<glyph unicode="2" horiz-adv-x="1024" d="M2 -6v51l199 193q471 456 471 768q0 95 -59.5 151.5t-159.5 56.5q-77 0 -126 -35.5t-106 -131.5l-28 -50l-62 19l115 278q78 57 146.5 81t152.5 24q170 0 273.5 -95.5t103.5 -252.5q0 -100 -49 -203.5t-138 -192.5l-452 -454h462q77 0 168 16l17 -12q-20 -37 -32 -75 t-36 -136q-243 6 -399 6z" />
<glyph unicode="3" horiz-adv-x="1024" d="M16 49l62 330l69 -4q-10 -65 -10 -113q0 -99 61 -160t160 -61q151 0 236 149q61 107 61 242q0 127 -56.5 195.5t-160.5 68.5q-54 0 -155 -30l-13 12l33 104q21 -8 59 -8q119 0 185 39q61 37 96 99.5t35 136.5q0 88 -51.5 137t-143.5 49q-86 0 -147.5 -42.5t-110.5 -137.5 l-59 22l115 228q70 51 138.5 72.5t158.5 21.5q159 0 251.5 -74.5t92.5 -202.5q0 -115 -86 -207q-44 -47 -92.5 -78t-139.5 -69l-2 -8q160 -20 238 -96t78 -211t-75.5 -247t-206.5 -176.5t-288 -64.5q-88 0 -162 18.5t-170 65.5z" />
<glyph unicode="4" horiz-adv-x="1024" d="M6 360l10 78q286 468 635 897q120 10 250 64l27 -21l-158 -862l219 6l8 -4l-36 -158h-220l-26 -170q-6 -40 -6 -65q0 -23 18.5 -39t46.5 -18l166 -7l-10 -67q-224 6 -365 6l-364 -6l10 67l129 7q45 2 66.5 6t38 18.5t23 36t13.5 66.5l29 165h-504zM176 516h365l125 707 q-164 -209 -276.5 -371t-213.5 -336z" />
<glyph unicode="5" horiz-adv-x="1024" d="M29 61q27 112 55 304l59 -11q-4 -50 -4 -59q0 -115 63.5 -184.5t166.5 -69.5q158 0 243 180q60 126 60 268q0 117 -60 184.5t-163 67.5q-68 0 -117 -27t-103 -96l-63 25l131 723l10 16q252 -14 475 -14h191l12 -18l-94 -183l-326 -8h-209l-88 -409q69 58 132 81t153 23 q177 0 279 -95t102 -259q0 -148 -74.5 -271t-205.5 -193.5t-289 -70.5q-189 0 -336 96z" />
<glyph unicode="6" horiz-adv-x="1024" d="M80 422q0 209 73 401t205 330q113 117 241 181.5t251 64.5q80 0 149 -29l-45 -141l-16 -8q-74 71 -174 71q-173 0 -285 -223q-66 -132 -119 -385q86 90 157 128t155 38q132 0 217.5 -90t85.5 -228q0 -149 -74 -280t-198 -209t-265 -78q-173 0 -265.5 118t-92.5 339z M326 309q0 -250 174 -250q48 0 82 22t63 73q32 54 53 145.5t21 179.5q0 114 -41 174t-119 60q-109 0 -171 -108t-62 -296z" />
<glyph unicode="7" horiz-adv-x="1024" d="M141 20l596 898l162 223h-551q-53 0 -182 -15l-16 13q33 155 43 223l12 18l377 -12h532v-80l-119 -166q-157 -220 -326 -541t-278 -587q-80 6 -119 6q-24 0 -116 -6z" />
<glyph unicode="8" horiz-adv-x="1024" d="M53 266q0 112 65.5 201t203.5 166l69 39l-29 18q-86 55 -124.5 119.5t-38.5 151.5q0 200 213 348q131 90 268 90q141 0 226 -72t85 -192q0 -86 -46 -157.5t-144 -139.5l-109 -74l29 -16q106 -62 157.5 -135.5t51.5 -166.5q0 -202 -174 -342q-175 -139 -355 -139 q-158 0 -253 82t-95 219zM221 293q0 -104 63.5 -169t166.5 -65q110 0 186 74.5t76 183.5q0 183 -230 297l-37 19q-121 -79 -173 -158t-52 -182zM397 1069q0 -83 49.5 -138.5t186.5 -131.5q112 86 153 148t41 145q0 100 -54 156.5t-148 56.5q-100 0 -164 -66.5t-64 -169.5z " />
<glyph unicode="9" horiz-adv-x="1024" d="M55 207l47 20q74 -161 236 -161q175 0 274 233q30 70 49 133.5t52 208.5l8 37q-77 -94 -147.5 -134t-161.5 -40q-137 0 -217 94.5t-80 255.5q0 143 59.5 250.5t183.5 189.5q162 105 283 105q172 0 268.5 -122.5t96.5 -342.5q0 -143 -39.5 -287t-109 -265t-158.5 -215.5 t-195 -148t-211 -53.5q-71 0 -187 31zM360 926q0 -277 170 -277q103 0 161.5 100.5t58.5 280.5q0 129 -43 198.5t-123 69.5q-103 0 -163.5 -100.5t-60.5 -271.5z" />
<glyph unicode=":" horiz-adv-x="512" d="M78 100q0 76 45 126t113 50q58 0 92 -35.5t34 -95.5q0 -77 -42.5 -128.5t-108.5 -51.5q-60 0 -96.5 37t-36.5 98zM199 750q0 77 44 126.5t113 49.5q58 0 92.5 -35.5t34.5 -95.5q0 -78 -42.5 -129.5t-108.5 -51.5q-60 0 -96.5 37.5t-36.5 98.5z" />
<glyph unicode=";" horiz-adv-x="512" d="M-68 -307l84 160q34 67 70.5 181.5t48.5 194.5q160 35 258 72l33 -31q-93 -184 -131 -247q-45 -72 -126 -178.5t-91 -106.5l-109 -74zM221 745q0 78 44.5 129.5t111.5 51.5q60 0 94.5 -35t34.5 -96q0 -78 -43 -129.5t-109 -51.5q-59 0 -96 36.5t-37 94.5z" />
<glyph unicode="&#x3c;" horiz-adv-x="1241" d="M160 432v160l903 432v-197l-660 -315l660 -315v-197z" />
<glyph unicode="=" horiz-adv-x="1241" d="M104 250v176h1053v-176h-1053zM104 598v176h1053v-176h-1053z" />
<glyph unicode="&#x3e;" horiz-adv-x="1241" d="M160 0v197l659 315l-659 315v197l903 -432v-160z" />
<glyph unicode="?" horiz-adv-x="909" d="M186 1077q56 124 88 258q91 52 151 70t136 18q165 0 263 -84.5t98 -226.5q0 -165 -152 -276l-211 -156q-85 -62 -114 -96.5t-29 -73.5q0 -42 41 -86l-45 -37q-86 72 -86 158q0 93 104 203l129 135q105 111 105 215q0 75 -50.5 118.5t-136.5 43.5q-56 0 -115 -29 q-29 -13 -49.5 -41.5t-44.5 -85.5l-14 -35zM199 100q0 76 44.5 126t112.5 50q58 0 92.5 -35.5t34.5 -95.5q0 -78 -42.5 -129t-108.5 -51q-60 0 -96.5 37t-36.5 98z" />
<glyph unicode="@" horiz-adv-x="1705" d="M168 674q0 200 94.5 365.5t258.5 260.5t362 95q177 0 324.5 -76t232 -209t84.5 -293q0 -107 -39.5 -207t-110.5 -174q-69 -69 -153.5 -112t-153.5 -43q-60 0 -96 43t-45 125q-67 -92 -117.5 -124t-124.5 -32q-114 0 -184 76.5t-70 199.5q0 118 58.5 224t156.5 169.5 t207 63.5q136 0 166 -147l33 131h192l-151 -561q-9 -40 -9 -52q0 -22 11 -35.5t28 -13.5q71 0 164 113q63 75 98 171t35 193q0 126 -69 230.5t-190 164.5t-267 60q-173 0 -312.5 -77t-218.5 -213t-79 -304q0 -170 80.5 -306t223 -213t320.5 -77q120 0 219 45q80 35 133.5 81 t122.5 138h131q-44 -77 -76 -118t-79 -82q-203 -179 -473 -179q-149 0 -282 54.5t-228 147.5t-151 222.5t-56 274.5zM625 496q0 -63 28 -103.5t72 -40.5q86 0 164 140q40 69 65 162.5t25 170.5q0 60 -25.5 98.5t-68.5 41.5q-58 4 -119 -67t-101 -182.5t-40 -219.5z" />
<glyph unicode="A" horiz-adv-x="1478" d="M-72 -6l11 72l69 6q57 6 96 71l744 1256h196q3 -23 8.5 -72.5t8.5 -73.5l156 -1069q7 -55 33.5 -81t76.5 -31l76 -6v-72q-182 6 -299 6l-318 -6v72l86 6q43 3 66 19.5t20 43.5l-51 406q-26 1 -68.5 2.5t-80 2.5t-76.5 1l-227 -6l-176 -312q-39 -69 -39 -116q0 -35 88 -41 l90 -6l-10 -72q-156 6 -254 6zM502 629h395l-78 545z" />
<glyph unicode="B" horiz-adv-x="1366" d="M16 -6l11 65l57 7q47 4 66.5 28.5t31.5 93.5l178 1029q5 35 5 43q0 32 -20.5 46t-74.5 17l-94 6l10 66l324 -6q76 0 194.5 4t194.5 4q133 0 215 -33q83 -34 128.5 -100.5t45.5 -153.5q0 -62 -26 -121.5t-70 -99.5q-58 -51 -122.5 -83t-195.5 -71q98 -9 152 -25.5 t102 -50.5q103 -76 103 -221q0 -127 -81.5 -235.5t-219.5 -165.5q-102 -43 -233 -43h-17l-381 6zM432 104q139 -22 230 -22q139 0 219 92t80 252q0 121 -62 180q-80 80 -240 80l-135 -6zM541 768h88q192 0 290.5 83.5t98.5 244.5q0 113 -68 164q-30 24 -87 38q-47 12 -92 12 q-9 0 -19 -1q-21 0 -35 -2l-80 -7z" />
<glyph unicode="C" horiz-adv-x="1402" d="M141 512q0 186 70.5 355t189.5 291t284 193.5t347 71.5q199 0 391 -88q-40 -143 -55 -208t-22 -136h-72l10 180q3 51 -106 91.5t-250 40.5q-232 0 -368 -201.5t-136 -544.5q0 -235 96 -347t297 -112q97 0 193 31t213 100l45 27l20 -18l-26 -80q-170 -106 -296 -149.5 t-270 -43.5q-247 0 -391 119q-164 138 -164 428z" />
<glyph unicode="D" horiz-adv-x="1593" d="M0 -6l10 65l58 7q46 5 66 29.5t32 92.5l178 1029q4 28 4 40q0 34 -20 48.5t-74 17.5l-94 6l10 66l328 -6q77 0 194.5 4t231.5 4q178 0 289.5 -39t189.5 -127q127 -142 127 -367q0 -187 -75.5 -362t-209.5 -297q-113 -103 -265 -159q-141 -52 -284 -52h-20q-174 6 -387 6z M416 104q158 -22 227 -22q178 0 287.5 53.5t177.5 173.5q64 113 101.5 270.5t37.5 309.5q0 265 -155 356q-60 33 -130 49.5t-192 16.5q-8 0 -70 -4l-79 -7z" />
<glyph unicode="E" horiz-adv-x="1251" d="M23 -6l10 65l57 7q46 5 66 29.5t32 92.5l179 1029q4 28 4 43q0 32 -20.5 46t-74.5 17l-94 6l11 66q196 -6 321 -6q73 0 188 3t187 3l332 -6l20 -13l-51 -311h-66v109q0 51 -5 70.5t-19 25.5q-25 8 -139 18t-181 10q-37 0 -55 -2l-80 -6l-92 -516h176l287 6l10 -18 l-29 -96l-348 10h-112l-99 -561q69 -13 164 -13h37q27 0 78 -1t81.5 -1t72.5 4t67.5 14t48.5 31t33 52l45 143h74q-28 -111 -70 -344l-342 -6q-73 0 -201 4q-100 3 -174 2h-41z" />
<glyph unicode="F" d="M-12 -6l10 72l88 6q50 3 74 41.5t45 156.5l168 947q4 28 4 40q0 35 -19.5 49t-74.5 17l-103 6l10 66q199 -6 326 -6q62 0 161 3t161 3l356 -6l20 -13l-51 -311h-65v109q0 72 -15 90q-15 12 -103 21t-140 9q-146 0 -191 -4l-102 -585h176l287 6l10 -19l-29 -96l-348 10 h-113l-73 -401q-8 -41 -8 -72q0 -32 16 -46t57 -15l129 -6l-10 -72q-207 6 -338 6z" />
<glyph unicode="G" horiz-adv-x="1593" d="M147 524q0 283 152.5 503.5t421.5 326.5q178 69 350 69q113 0 207.5 -20.5t200.5 -67.5q-41 -147 -56 -210.5t-22 -133.5h-72l10 185q2 47 -104.5 83.5t-247.5 36.5q-99 0 -190.5 -28.5t-149.5 -79.5q-97 -83 -157 -266t-60 -392q0 -227 98 -348t283 -121q140 0 248 60 l65 289q6 24 6 47q0 29 -20.5 42.5t-69.5 14.5l-122 4l10 68q186 -6 305 -6l303 6l-10 -68l-51 -4q-42 -3 -62.5 -23t-30.5 -69l-41 -197q-10 -48 -10 -85q0 -23 4 -42q-223 -80 -338 -106.5t-243 -26.5q-309 0 -467 158q-140 137 -140 401z" />
<glyph unicode="H" horiz-adv-x="1593" d="M-25 -6l11 72l100 6q29 2 43 7t27 27.5t20.5 57t20.5 106.5l147 838q16 101 16 149q0 31 -16.5 44t-60.5 16l-105 6l10 72q197 -6 322 -6l324 6l-11 -72l-86 -6q-53 -3 -74.5 -25.5t-33.5 -87.5l-80 -413h602l51 317q17 107 17 156q0 26 -18 38t-60 15l-105 6l11 72 q190 -6 311 -6l334 6l-11 -72l-86 -6q-54 -3 -75 -24.5t-33 -88.5l-178 -995q-9 -43 -9 -78q0 -56 78 -59l113 -6l-10 -72q-209 6 -344 6l-303 -6l10 72l100 6q29 2 42.5 6.5t26.5 28t20.5 57t21.5 106.5l75 422h-595l-84 -483q-9 -47 -9 -80q0 -28 18.5 -41t59.5 -16 l101 -6l-11 -72q-186 6 -307 6z" />
<glyph unicode="I" horiz-adv-x="796" d="M-2 -6l8 72l100 6q36 2 53 16t29.5 52t28.5 130l148 838q18 111 18 147q0 56 -78 62l-106 6l8 72q190 -6 311 -6l326 6l-8 -72l-93 -6q-52 -3 -68.5 -18.5t-25.5 -71.5l-178 -1022q-6 -34 -6 -70q0 -33 17 -47t59 -16l121 -6l-9 -72q-203 6 -334 6z" />
<glyph unicode="J" horiz-adv-x="796" d="M-59 -332q39 -16 73 -16q77 0 115 80q11 25 17.5 55.5t25.5 140.5l197 1180q20 118 20 149q0 54 -78 60l-104 6l10 72q190 -6 313 -6l324 6l-10 -72l-94 -6q-52 -3 -69 -19t-26 -71l-200 -1139q-23 -131 -88.5 -250t-152 -190.5t-167.5 -71.5q-38 0 -106 21v71z" />
<glyph unicode="K" horiz-adv-x="1478" d="M-20 -6l8 72l100 6q36 2 53 16t29.5 52t28.5 130l147 838q19 111 19 147q0 56 -78 62l-107 6l8 72q191 -6 312 -6l325 6l-8 -72l-92 -6q-51 -3 -68 -19t-26 -71l-96 -543q53 29 223 188l286 269q19 13 73.5 78t64.5 75q8 10 13 19t6.5 19t1.5 17t-0.5 21.5t-0.5 24.5 q99 -6 162 -6l164 6v-68h-72q-51 0 -168 -106l-502 -457l402 -557q62 -85 84.5 -107t54.5 -26l80 -13l-6 -67q-115 6 -189 6l-192 -6q-14 25 -100 149l-265 375q-41 59 -120 154l-82 -467q-7 -44 -7 -62q0 -38 16 -53t60 -18l101 -6l-9 -72q-186 6 -307 6z" />
<glyph unicode="L" horiz-adv-x="1251" d="M53 -6l8 65l58 7q45 5 63.5 28.5t30.5 93.5l168 920q18 99 18 152q0 54 -77 57l-107 6l8 72q191 -6 312 -6l325 6l-8 -72l-92 -6q-51 -3 -67 -18.5t-27 -71.5l-203 -1112q64 -13 127 -13q183 0 356 13q52 4 77.5 23.5t39.5 62.5l47 155h74q-60 -292 -70 -356l-352 -6 q-80 0 -206 3t-206 3z" />
<glyph unicode="M" horiz-adv-x="1933" d="M-47 -6l4 72l86 6q52 3 82 114l256 944q18 68 18 125q0 32 -25.5 48.5t-82.5 19.5l-92 6l10 66q137 -6 225 -6l228 6l260 -1039q258 406 382.5 611.5t247.5 427.5q142 -6 232 -6l233 6l-10 -66l-80 -6q-57 -5 -79.5 -31.5t-35.5 -109.5l-163 -957l-4 -16q-11 -71 -11 -76 q0 -32 17 -45.5t57 -15.5l113 -6l-11 -72q-190 6 -311 6l-317 -6l10 72l100 6q47 7 60.5 22t25.5 72q2 8 4 18l4 23l168 993l-596 -979l-145 -256h-51l-293 1157l-219 -901q-17 -70 -17 -90q0 -31 16 -44t54 -15l105 -6l-11 -72q-135 6 -221 6z" />
<glyph unicode="N" horiz-adv-x="1593" d="M-4 -6l4 72l98 6q34 2 52 26.5t30 87.5q59 296 201 1006q3 15 -19 46t-49 50q-51 32 -102 35l-80 6l6 66q133 -6 219 -6l222 6l643 -1104l151 819q12 78 12 143q0 64 -94 70l-86 6l10 66q148 -6 242 -6l242 6l-12 -66l-76 -6q-50 -5 -70 -20q-12 -11 -23.5 -52 t-37.5 -170l-176 -876q-18 -87 -33 -211h-174l-635 1100l-150 -811q-16 -88 -16 -127q0 -81 74 -84l104 -6l-10 -72q-140 6 -230 6z" />
<glyph unicode="O" horiz-adv-x="1705" d="M156 549q0 189 63.5 352t175.5 277.5t271 179.5t344 65q297 0 467 -170q149 -149 149 -405q0 -185 -67.5 -348.5t-184 -281t-279.5 -185.5t-347 -68q-281 0 -436.5 153t-155.5 431zM438 489q0 -215 91 -325.5t266 -110.5q263 0 411 260q64 112 100.5 265.5t36.5 312.5 q0 444 -360 444q-133 0 -230 -57t-169 -178q-65 -107 -105.5 -277t-40.5 -334z" />
<glyph unicode="P" horiz-adv-x="1366" d="M23 -6l8 72l100 6q36 2 53 16t29.5 52t28.5 130l168 947q4 28 4 40q0 35 -20 49t-75 17l-114 6l10 66q209 -6 344 -6q78 0 198.5 3t198.5 3q76 0 150 -21.5t135.5 -62t99 -105.5t37.5 -145q0 -201 -150.5 -343.5t-363.5 -142.5q-97 0 -198 37l-4 72q77 -25 135 -25 q133 0 222 111t89 277q0 135 -70 197.5t-221 62.5q-31 0 -127 -7l-194 -1095q-7 -40 -7 -70q0 -32 17.5 -47t58.5 -16l121 -6l-8 -72q-203 6 -334 6z" />
<glyph unicode="Q" horiz-adv-x="1705" d="M156 549q0 189 63.5 352t175.5 277.5t271 179.5t344 65q297 0 467 -170q149 -149 149 -405q0 -185 -67.5 -348.5t-184 -281t-279.5 -185.5t-347 -68q-281 0 -436.5 153t-155.5 431zM307 -315q2 138 73 214t198 76q104 0 282 -77l193 -84q200 -86 293 -86q66 0 106 45 t59 139l64 -21q-34 -166 -118.5 -256t-207.5 -90q-39 0 -73.5 11.5t-94.5 42.5l-407 219q-73 39 -148 39q-72 0 -114.5 -55t-44.5 -146l-11 -4zM438 489q0 -215 91 -325.5t266 -110.5q263 0 411 260q64 112 100.5 265.5t36.5 312.5q0 444 -360 444q-133 0 -230 -57 t-169 -178q-65 -107 -105.5 -277t-40.5 -334z" />
<glyph unicode="R" horiz-adv-x="1478" d="M8 -6l8 72l101 6q36 2 53 16.5t29 52t28 129.5l166 947q4 28 4 40q0 35 -19.5 49t-74.5 17l-94 6l10 66q213 -6 348 -6q73 0 188 3t187 3q71 0 141.5 -19t131 -54t98 -92.5t37.5 -127.5q0 -89 -41 -163.5t-117 -123.5q-53 -34 -108.5 -53.5t-153.5 -38.5l319 -547 q22 -38 54 -71.5t49 -34.5l75 -15v-61q-122 6 -200 6l-172 -6l-297 534q-18 31 -37.5 62.5t-47.5 73t-40 59.5l10 35h113q141 0 232 92t91 233q0 119 -65.5 171.5t-214.5 52.5q-34 0 -127 -7l-191 -1095q-6 -34 -6 -70q0 -32 17.5 -47t58.5 -16l121 -6l-8 -72q-203 6 -334 6 z" />
<glyph unicode="S" d="M102 47l43 340h56v-156q80 -151 311 -151q138 0 211.5 65t73.5 187q0 97 -52 143q-29 27 -61.5 43t-138.5 55q-192 69 -262 143t-70 206q0 100 43.5 192.5t117 160t174.5 108t210 40.5q167 0 301 -90q-45 -161 -45 -301h-62v174q-120 103 -274 103q-121 0 -199 -65.5 t-78 -166.5q0 -90 56.5 -145t206.5 -111q126 -47 176.5 -73t95.5 -66q35 -32 56.5 -85.5t21.5 -107.5q0 -119 -63 -232.5t-171 -190.5q-144 -101 -350 -101q-107 0 -182 19t-146 63z" />
<glyph unicode="T" horiz-adv-x="1251" d="M115 1040l51 344l12 11q363 -6 594 -6l594 6l14 -11l-61 -344h-78l8 172v5q0 36 -26 54q-28 19 -90 19h-240l-195 -1085q-8 -47 -8 -72q0 -32 16.5 -46t57.5 -15l121 -6l-11 -72q-209 6 -344 6l-319 -6l10 72l109 6q51 3 74.5 41t44.5 157l174 1020h-254q-31 0 -64 -13.5 t-53 -35.5q-18 -25 -31 -82l-28 -119h-78z" />
<glyph unicode="U" horiz-adv-x="1593" d="M170 1323l10 72q19 -1 49.5 -2t102.5 -3q48 -1 85 -1h34l178 6l12 -15l-176 -942q-6 -35 -6 -71q0 -94 28 -142q25 -43 75.5 -69.5t107.5 -26.5q87 0 192 61q73 41 136.5 98t68.5 85l133 735q23 128 23 156q0 50 -76 53l-105 6l11 72q190 -6 311 -6l326 6l-11 -72l-94 -6 q-54 -3 -72 -19t-28 -71l-185 -1022q-8 -47 -8 -72q0 -32 16.5 -46t57.5 -15l121 -6l-10 -72q-148 6 -242 6l-217 -6l-10 16l55 262q-86 -92 -134 -135.5t-104 -83.5q-125 -88 -270 -88q-97 0 -177.5 38t-127.5 106q-57 77 -57 210q0 66 16 160l119 629q4 22 10 53t7.5 41 t3 26.5t1.5 35.5q0 50 -76 53z" />
<glyph unicode="V" horiz-adv-x="1366" d="M137 1323v72q184 -6 303 -6l303 6v-72l-102 -6q-38 -3 -49.5 -16.5t-11.5 -57.5q0 -14 2 -26l139 -947l477 891q43 81 43 111q0 42 -67 45l-103 6l10 72q136 -6 224 -6l221 6l-6 -72l-54 -6q-33 -3 -52.5 -20t-49.5 -72l-684 -1231h-170l-195 1204q-10 64 -30 90t-60 29z " />
<glyph unicode="W" horiz-adv-x="2048" d="M137 1323l10 72q180 -6 297 -6l299 6v-72l-92 -6q-45 -3 -63 -27q-14 -19 -14 -57q0 -9 1 -19l72 -917l543 1114h63l303 -1139l347 914q22 58 22 82q0 25 -20 35.5t-72 13.5l-92 6l10 72q135 -6 223 -6l224 6l-11 -72l-69 -6q-28 -3 -51 -39.5t-76 -167.5l-449 -1116 h-172l-268 1012l-504 -1012h-172l-107 1110q-11 142 -25.5 175.5t-72.5 37.5z" />
<glyph unicode="X" horiz-adv-x="1478" d="M-18 -6l10 72l82 6q26 1 56.5 16.5t49.5 36.5l496 537l-311 595q-12 23 -44.5 40t-70.5 20l-82 6v72q201 -6 328 -6l327 6v-72l-82 -6q-47 -3 -63 -10.5t-16 -24.5q0 -30 18 -68l182 -358l312 352l2 2q41 41 41 68q0 33 -80 39l-99 6l11 72q162 -6 266 -6l266 6l-4 -72 l-90 -6h-1q-22 0 -70 -32q-48 -33 -89 -77l-420 -436l310 -604q31 -59 49 -77t49 -19l96 -6l-10 -72q-188 6 -309 6l-314 -6v72l127 4q17 0 28 9t11 23q0 36 -14 64l-207 407l-344 -393q-31 -36 -31 -74q0 -31 70 -34l112 -6l-10 -72q-162 6 -264 6z" />
<glyph unicode="Y" horiz-adv-x="1251" d="M111 1270q64 44 184 143q39 10 57 10q85 0 150 -59q55 -49 104 -159.5t78 -250.5l74 -346q138 340 318 567q175 220 298 220h8l-12 -181q-51 -6 -115.5 -49t-121.5 -106q-100 -114 -206.5 -313t-123.5 -302l-2 -10l-4 -20t-6.5 -35.5t-12.5 -67.5t-20 -106q-6 -34 -6 -68 q0 -35 16 -49.5t59 -15.5l121 -6l-8 -72q-203 6 -334 6l-321 -6l8 72l100 6q51 3 65.5 28.5t44.5 162.5q0 5 1 7q2 10 11.5 50.5t14.5 63.5t10 57.5t5 60.5q0 31 -16 99.5t-33.5 127.5t-39.5 128.5t-24 76.5q-40 131 -101 210t-122 79q-57 0 -92 -21z" />
<glyph unicode="Z" horiz-adv-x="1366" d="M2 -6v55l1014 1239h-336q-105 0 -205.5 -8.5t-124.5 -19.5q-23 -10 -37 -60l-49 -156h-71q31 136 53 328l14 23q338 -6 553 -6l571 6l-10 -72l-989 -1223h369q224 0 379 31q55 116 92 238h73l-79 -375q-383 6 -627 6z" />
<glyph unicode="[" horiz-adv-x="681" d="M92 -193q62 281 74 369l172 1145q5 42 10 143l14 17q113 -6 187 -6l231 6l-10 -80l-154 4q-61 1 -75.5 -21.5t-34.5 -148.5l-176 -1120q-19 -133 -19 -158q0 -83 62 -86l178 -8l-10 -72q-150 6 -246 6l-193 -6z" />
<glyph unicode="\" horiz-adv-x="1241" d="M147 1475h185l762 -1475h-185z" />
<glyph unicode="]" horiz-adv-x="681" d="M-43 -209l10 80l154 -4q61 -1 75.5 21.5t34.5 148.5l177 1120q18 123 18 160q0 81 -61 84l-179 8l11 72q147 -6 241 -6l197 6l10 -17q-57 -258 -74 -368l-172 -1145q-4 -34 -10 -144l-14 -16q-115 6 -189 6z" />
<glyph unicode="^" horiz-adv-x="1241" d="M129 563l410 826h161l412 -826h-199l-292 572l-293 -572h-199z" />
<glyph unicode="_" horiz-adv-x="1024" d="M0 -154h1024v-102h-1024v102z" />
<glyph unicode="`" horiz-adv-x="681" d="M355.5 1288q-8.5 20 2.5 51q14 38 51.5 65.5t77.5 27.5q24 0 42.5 -14.5t39.5 -47.5l181 -309h-101l-252 182q-33 25 -41.5 45z" />
<glyph unicode="a" d="M90 119q0 122 44.5 293t98.5 256q25 38 107 109t168 128q47 32 88 44t104 12q50 0 92.5 -11.5t116.5 -42.5l92 56l33 -25q-47 -129 -65 -215l-92 -438l-21 -101q3 -28 9.5 -39.5t19.5 -11.5q30 0 112 64l41 32l25 -61q-231 -203 -356 -203q-31 0 -48.5 24.5t-17.5 65.5 q0 60 14 115l76 309q-143 -251 -278 -382.5t-252 -131.5q-49 0 -80 43t-31 111zM319 209q0 -30 10.5 -53t24.5 -23q34 0 89 48t118 132q168 225 211 496q-95 45 -168 45q-65 0 -109.5 -48t-78.5 -155q-39 -121 -68 -253.5t-29 -188.5z" />
<glyph unicode="b" horiz-adv-x="1099" d="M90 190q0 39 19 148l149 883q6 37 6 63q0 51 -69 51h-93l15 58q157 24 244 44t161 50l21 -19l-29 -133l-145 -712q63 94 105 141.5t97 87.5q148 109 289 109q74 0 113 -61.5t39 -176.5q0 -226 -88 -393t-260 -267q-79 -46 -166.5 -72t-159.5 -26q-116 0 -182 59.5 t-66 165.5zM315 242q0 -85 37.5 -134t102.5 -49q129 0 223 189q38 78 69 202.5t31 202.5q0 79 -20.5 125.5t-59.5 46.5q-63 0 -160.5 -81.5t-142.5 -176.5q-36 -77 -58 -166t-22 -159z" />
<glyph unicode="c" horiz-adv-x="909" d="M66 244q0 110 31 237t75 197q57 84 207 176q103 63 160 85t120 22q55 0 102.5 -10t131.5 -40q-22 -57 -34.5 -108t-37.5 -180h-67l12 114l-8 29q-95 68 -189 68q-127 0 -190 -144q-32 -74 -56 -194t-24 -209q0 -85 44 -135t118 -50q73 0 145.5 31t194.5 113l20 -62 q-182 -126 -287 -172.5t-210 -46.5q-118 0 -188 75.5t-70 203.5z" />
<glyph unicode="d" d="M78 143q0 152 45 322t106 248q38 51 122.5 112t172.5 101q74 35 154 35q53 0 133 -19l37 229q8 57 8 78q0 45 -18.5 65.5t-59.5 20.5h-92l14 58q280 42 406 94l20 -19q-22 -98 -28 -133l-219 -1087q-11 -60 -11 -82q0 -12 8.5 -22.5t20.5 -10.5q11 0 100 57l54 35l18 -57 l-74 -53q-211 -150 -278 -150q-29 0 -50.5 24.5t-21.5 59.5q0 48 14 103l82 335q-99 -165 -162 -248.5t-135 -146.5q-148 -127 -237 -127q-55 0 -92 50.5t-37 127.5zM311 188q0 -25 13.5 -40t35.5 -15q30 0 73 32.5t87 88.5q81 100 140.5 202.5t76.5 170.5l49 194 q-97 37 -174 37t-114 -27t-72 -108q-44 -101 -79.5 -266.5t-35.5 -268.5z" />
<glyph unicode="e" horiz-adv-x="909" d="M57 201q0 108 36 247t87 230q60 106 212 194.5t274 88.5q88 0 139 -48.5t51 -130.5q0 -180 -219 -284q-65 -31 -135 -52.5t-201 -50.5q-10 -74 -10 -131q0 -80 38.5 -124t110.5 -44q63 0 139.5 31.5t192.5 105.5l21 -57q-13 -8 -30.5 -18.5t-29.5 -18.5 q-157 -100 -246.5 -137t-181.5 -37q-115 0 -181.5 63.5t-66.5 172.5zM309 449l84 24q126 37 198.5 112t72.5 169q0 51 -26.5 79.5t-72.5 28.5q-75 0 -134 -76.5t-93 -218.5z" />
<glyph unicode="f" horiz-adv-x="681" d="M-266 -537q17 35 37 105t28 115l35 6q41 -90 105 -90q19 0 33 5t27 21.5t23 40.5t22 69t23 98.5t27 137.5l162 854h-186l10 52l102 32q48 15 103 39q1 5 3.5 16.5t4.5 24.5q19 93 44 138.5t93 105.5l115 100q56 49 172 121q32 20 53.5 26.5t52.5 6.5q36 0 97 -17 q-38 -134 -58 -256l-31 -6q-47 67 -78 91t-71 24q-58 0 -87 -62.5t-71 -271.5l-12 -59q92 0 252 16l10 -16q-15 -35 -33 -105h-252l-112 -481q-73 -315 -132.5 -464t-154.5 -259q-64 -73 -145 -124.5t-133 -51.5q-46 0 -78 18z" />
<glyph unicode="g" horiz-adv-x="1024" d="M-102 -299q0 117 120 203q81 60 273 121q-50 37 -53 100l8 41l188 115q-99 2 -154 16t-96 49q-73 64 -73 199q0 180 135 282q75 55 177 94.5t171 39.5q91 0 184 -41q71 -7 126 -7h24l145 7l10 -19l-20 -102l-180 8q22 -67 22 -121q0 -199 -168 -307q-49 -33 -153 -74 q-64 -24 -91.5 -45.5t-27.5 -48.5q0 -38 47 -70l174 -123q85 -60 122.5 -114.5t37.5 -118.5q0 -148 -147 -244t-373 -96q-194 0 -311 69.5t-117 186.5zM80 -268q0 -95 79 -154t206 -59q114 0 191 53.5t77 132.5q0 46 -29.5 84t-101.5 88l-168 113l-58 -27 q-101 -47 -148.5 -103t-47.5 -128zM322 524q0 -80 40 -126t109 -46q95 0 154 95t59 249q0 84 -36 129t-103 45q-105 0 -162 -94q-26 -40 -43.5 -114.5t-17.5 -137.5z" />
<glyph unicode="h" d="M45 -4q56 114 164 688q98 523 98 600q0 51 -69 51h-93l15 58q157 24 244 44t161 50l21 -19q-5 -20 -17.5 -64.5t-17.5 -68.5l-182 -835q129 206 289 333.5t290 127.5q35 0 56.5 -25.5t21.5 -65.5q0 -34 -7 -73t-14.5 -67t-21.5 -72.5t-20 -67.5l-78 -295 q-17 -70 -17 -129q0 -33 25 -33q26 0 125 62l33 20l18 -53q-162 -111 -244.5 -154t-134.5 -43q-27 0 -45 24t-18 60q0 92 98 436q51 173 51 236q0 59 -41 59q-68 0 -168 -104.5t-170 -249.5q-86 -177 -114 -418q-126 -7 -217 -35z" />
<glyph unicode="i" horiz-adv-x="681" d="M53 709l129 96q96 71 179.5 113.5t127.5 42.5q23 0 37.5 -21t14.5 -55q0 -63 -19 -137l-110 -402q-41 -143 -41 -190q0 -9 6.5 -16t15.5 -7q28 0 127 62l55 34l25 -57q-27 -19 -57 -41q-125 -89 -203.5 -127.5t-136.5 -38.5q-29 0 -47.5 24t-18.5 64q0 44 13 107l120 493 q17 72 17 84q0 9 -6 15t-15 6q-13 0 -61.5 -24t-79.5 -46l-45 -33zM365 1231q0 63 40 107t97 44q51 0 82.5 -34t31.5 -88q0 -63 -40 -104.5t-101 -41.5q-51 0 -80.5 31.5t-29.5 85.5z" />
<glyph unicode="j" horiz-adv-x="681" d="M-131 -545q16 89 20 162l29 6q41 -67 90 -67q61 0 94 159l177 836q28 134 28 180q0 27 -20 27q-13 0 -62 -24t-80 -46l-45 -33l-26 54l129 96q95 71 178.5 113.5t126.5 42.5q25 0 39 -22t14 -60q0 -55 -18 -131l-137 -562q-53 -211 -105 -343.5t-121 -227.5 q-119 -170 -241 -170q-29 0 -70 10zM385 1231q0 63 40 107t97 44q51 0 83 -34t32 -88q0 -63 -40 -104.5t-101 -41.5q-51 0 -81 31.5t-30 85.5z" />
<glyph unicode="k" d="M70 -10q56 140 159 694q99 529 99 600q0 51 -70 51h-92l14 58q280 42 406 94l20 -19q-27 -96 -35 -133l-194 -882q115 158 301 335q97 93 170 133t145 40q39 0 88 -19l-41 -143q-60 16 -100 16q-160 0 -299 -164l133 -354q28 -73 61.5 -118.5t59.5 -45.5q28 0 94 41 l55 35l21 -59l-90 -64q-171 -121 -250 -121q-35 0 -64.5 43t-70.5 156l-117 317l-63 -69q-32 -35 -42 -62t-30 -125q-28 -131 -33 -217q-67 -5 -215 -37z" />
<glyph unicode="l" horiz-adv-x="681" d="M131 72q0 55 5 89.5t28 137.5l203 922q8 33 8 63q0 51 -72 51h-92l14 58q280 42 406 94l20 -19q-21 -89 -35 -133l-219 -987q-24 -108 -24 -186q0 -29 24 -29q18 0 49 15t60 38l61 47l29 -55q-181 -131 -257 -172t-142 -41t-66 107z" />
<glyph unicode="m" horiz-adv-x="1705" d="M39 713l172 139q61 48 123.5 78.5t101.5 30.5q23 0 36 -17t13 -45q0 -51 -39 -211l-59 -254q83 154 165 252.5t200 185.5q67 49 111 69t85 20q37 0 58.5 -25.5t21.5 -69.5q0 -62 -39 -196l-69 -246q56 120 120 208t152 163q85 75 172 120.5t147 45.5q34 0 55 -26.5 t21 -70.5q0 -71 -20 -141l-103 -377q-41 -146 -41 -188q0 -9 7.5 -17t15.5 -8q34 0 125 66l49 34l25 -51q-78 -64 -122 -95t-100 -62q-111 -60 -166 -60q-34 0 -54.5 22.5t-20.5 59.5q0 111 110 492q43 151 43 186q0 14 -9.5 23.5t-22.5 9.5q-57 0 -153 -93t-163 -214 q-111 -197 -129 -443q-127 -7 -213 -35l-20 23q64 195 118 416t54 290q0 56 -39 56q-112 0 -262 -236q-70 -108 -112 -229.5t-67 -284.5q-127 -7 -213 -35l-20 23q67 202 118.5 422.5t51.5 306.5q0 15 -7.5 24t-19.5 9q-31 0 -84 -41l-75 -58z" />
<glyph unicode="n" d="M35 733l172 127q137 101 209 101q26 0 40.5 -16.5t14.5 -45.5q0 -43 -13.5 -105t-56.5 -216l-34 -123q53 90 88.5 140t89.5 110q104 113 215.5 184.5t183.5 71.5q35 0 57.5 -24.5t22.5 -62.5q0 -40 -33 -169l-98 -377q-27 -111 -27 -160q0 -35 23 -35q25 0 92 45l59 41 l27 -55q-8 -6 -25.5 -19t-33.5 -24q-115 -86 -184.5 -121t-125.5 -35q-32 0 -52.5 24.5t-20.5 61.5q0 94 98 434q51 171 51 230q0 43 -41 43q-73 0 -187.5 -140t-174.5 -303q-20 -56 -42.5 -148t-31.5 -159q-126 -7 -217 -35l-21 23q71 214 122.5 428.5t51.5 298.5 q0 35 -22 35q-34 0 -84 -35l-66 -45z" />
<glyph unicode="o" d="M98 276q0 133 49 281q32 100 88.5 170.5t151.5 130.5q161 103 330 103q148 0 229.5 -81t81.5 -227q0 -97 -26.5 -209.5t-67.5 -185.5q-34 -62 -113 -130.5t-164 -107.5q-116 -55 -256 -55q-303 0 -303 311zM332 266q0 -97 45 -154t121 -57q98 0 172 105q54 76 89.5 219.5 t35.5 282.5q0 95 -45 151.5t-119 56.5q-101 0 -174 -104q-54 -76 -89.5 -219t-35.5 -281z" />
<glyph unicode="p" d="M-43 -541q29 95 66 250l161 697q14 62 24 109t15 73.5t7.5 51t3 32t0 27.5t-0.5 26q0 33 -22 33q-34 0 -84 -35l-66 -45l-26 55l172 127q137 101 209 101q55 0 55 -64q0 -53 -41 -240l-31 -139q72 121 122 185.5t118 121.5q164 136 303 136q115 0 115 -203 q0 -183 -59.5 -343.5t-159.5 -246.5q-58 -49 -129 -98t-113 -70q-78 -35 -176 -35q-50 0 -115 15q-56 -220 -74 -310t-24 -182q-69 -8 -164 -29q-13 -3 -32 -7.5t-34 -6.5zM330 121q96 -55 192 -55q49 0 92 28.5t72 81.5q57 101 97 250t40 256q0 119 -57 119t-133 -65 t-148 -175q-51 -78 -76.5 -140.5t-50.5 -172.5z" />
<glyph unicode="q" horiz-adv-x="1099" d="M66 115q0 125 45.5 301.5t99.5 255.5q27 39 100.5 99t171.5 122q70 44 105 56t92 12q127 0 238 -54l96 54l37 -23q-40 -84 -84 -293l-189 -876q-3 -14 -11 -50t-12 -56t-9.5 -50t-8 -56t-2.5 -51q0 -10 2 -22q-133 -9 -270 -39l-18 37l30 24q27 22 58 156l170 735 q-166 -220 -297.5 -326t-239.5 -106q-44 0 -74 43.5t-30 106.5zM299 201q0 -31 12.5 -49.5t32.5 -18.5q76 0 227 182q80 99 123.5 192t71.5 224l16 80q-94 43 -172 43q-55 0 -91 -18.5t-62 -59.5q-50 -82 -104 -278t-54 -297z" />
<glyph unicode="r" horiz-adv-x="796" d="M41 721l166 131q139 109 221 109q51 0 51 -66q0 -31 -30 -160q-49 -213 -66 -286q120 242 162.5 318t83.5 118q73 76 157 76q24 0 56 -13q-38 -167 -41 -280l-25 -13q-58 39 -106 39q-71 0 -132.5 -75.5t-119.5 -233.5q-44 -121 -84 -381q-147 -15 -221 -39l-23 25 q38 114 55 188l50 219q13 57 22 100.5t15 75t9.5 50.5t5 37t2 23.5t0 21.5t-0.5 20q0 15 -7 24t-18 9q-25 0 -86 -41l-69 -49z" />
<glyph unicode="s" horiz-adv-x="909" d="M51 20q32 152 43 269h62v-96q109 -115 266 -115q83 0 131.5 39.5t48.5 107.5q0 110 -139 137l-90 19q-234 49 -234 229q0 69 29 118.5t100 100.5q103 74 172 103t142 29q130 0 249 -64l-12 -68q-22 -120 -22 -170h-62l-12 99q-59 49 -111 69.5t-114 20.5 q-75 0 -121.5 -41.5t-46.5 -108.5q0 -54 33.5 -81.5t121.5 -47.5l121 -26q94 -20 147.5 -77.5t53.5 -137.5q0 -59 -22.5 -103.5t-77.5 -95.5q-179 -164 -375 -164q-106 0 -281 55z" />
<glyph unicode="t" horiz-adv-x="796" d="M86 821l14 56l236 65q33 182 33 250v33q60 8 116 28l136 50l20 -25l-63 -238l-27 -114l274 10l13 -10l-29 -115q-83 10 -188 10h-97l-104 -485q-19 -93 -19 -148q0 -32 11 -44.5t39 -12.5q29 0 52.5 9t57.5 34l115 82l26 -53l-157 -117q-166 -121 -273 -121 q-110 0 -110 123q0 41 20 133l127 600h-223z" />
<glyph unicode="u" d="M45 748l162 110q154 103 237 103q26 0 41 -19t15 -53q0 -43 -10 -93t-50 -208l-71 -281q-21 -89 -21 -135q0 -12 9.5 -19.5t23.5 -7.5q44 0 118.5 74.5t149.5 194.5q74 121 117.5 253t46.5 248h13q91 0 212 37l19 -22l-86 -289l-82 -317q-29 -99 -29 -148q0 -10 8.5 -17 t20.5 -7q49 0 112 51l46 35l20 -58q-18 -13 -30 -22t-16 -11.5t-10 -7t-16 -12.5q-94 -71 -174 -116.5t-112 -45.5q-31 0 -50.5 24.5t-19.5 63.5q0 48 33 166l65 240q-152 -239 -290.5 -366.5t-247.5 -127.5q-40 0 -65 32.5t-25 84.5q0 50 26 151q16 60 43 162 q70 266 70 330q0 33 -35 33q-33 0 -68 -21l-73 -43z" />
<glyph unicode="v" d="M39 664l84 270q58 10 93 10h11q13 -1 69 -4t112.5 -5.5t95.5 -2.5q36 0 74 8.5t57 20.5l29 -39q-92 -109 -139.5 -188t-80.5 -183q-41 -122 -41 -250q0 -100 35 -153.5t101 -53.5q130 0 235 182q52 92 85.5 206.5t33.5 201.5q0 50 -22.5 81.5t-57.5 31.5q-46 0 -74 -25 l-20 43q28 21 55.5 49t79.5 88q38 9 53 9q57 0 100.5 -61t43.5 -142q0 -140 -84 -318.5t-213 -310.5q-75 -78 -162 -121t-172 -43q-114 0 -178 76t-64 211q0 129 56.5 236.5t201.5 252.5l84 84q-96 -22 -280 -22q-80 0 -86 -17l-58 -122h-57z" />
<glyph unicode="w" horiz-adv-x="1705" d="M55 664l84 270q59 10 94 10h11q13 -1 69 -4t112 -5.5t95 -2.5q36 0 74 8.5t57 20.5l29 -39q-92 -107 -138.5 -186t-80.5 -185q-41 -122 -41 -252q0 -93 27 -149t71 -56q86 0 186 140t138 317l49 223q14 71 20 131q112 14 219 56l25 -19q-139 -499 -139 -682 q0 -74 32.5 -120t84.5 -46q123 0 229 187q54 93 88.5 208t34.5 197q0 51 -23 81t-63 30q-35 0 -74 -17l-25 47q88 59 146 125q38 9 53 9q57 0 100 -60.5t43 -140.5q0 -138 -83.5 -316t-212.5 -311q-78 -80 -166 -124t-170 -44q-88 0 -140.5 59.5t-52.5 159.5q0 56 19 178 q-66 -127 -123 -199t-135 -128q-97 -70 -185 -70q-95 0 -151 76t-56 205t58.5 237t208.5 258l84 84q-96 -22 -281 -22q-80 0 -86 -17l-57 -122h-58z" />
<glyph unicode="x" horiz-adv-x="1024" d="M-16 -6q24 107 32 207l50 4l12 -64q34 -12 57 -12q92 0 180 125l107 149l-33 181q-17 93 -50 147.5t-71 54.5q-36 0 -80 -30t-67 -70l-47 27q39 50 100 166q16 32 21 41q104 41 155 41q103 0 158 -74q46 -60 74 -228l8 -47l129 179q123 170 225 170q36 0 80 -21 q-19 -35 -27.5 -76.5t-19.5 -140.5l-43 -10l-19 57q-25 10 -43 10q-37 0 -90 -39.5t-98 -101.5l-78 -104l23 -132q28 -162 65 -231q20 -41 66 -41q28 0 96 49l62 43l32 -47l-37 -33q-112 -99 -178 -138.5t-114 -39.5q-62 0 -101 55q-39 49 -61 189l-21 119l-174 -234 q-44 -60 -96 -94.5t-96 -34.5q-31 0 -88 29z" />
<glyph unicode="y" d="M27 731l163 127q61 46 118.5 74.5t92.5 28.5q37 0 58.5 -35t21.5 -95q0 -68 -10 -163l-39 -334q-8 -68 -8 -113q0 -84 35 -84q46 0 117 78t135 199q63 118 103.5 256.5t43.5 244.5h13q91 0 212 37l25 -24q-55 -119 -172 -549q-81 -295 -121 -402t-117 -227 q-89 -141 -211 -223t-243 -82q-54 0 -99.5 24.5t-70.5 65.5q-23 43 -31 109l127 82l37 -13q-2 -14 -2 -39q0 -64 33.5 -99.5t93.5 -35.5q100 0 175.5 113.5t135.5 355.5l84 340q-59 -104 -101.5 -159.5t-103.5 -108.5q-131 -115 -221 -115q-41 0 -68.5 51t-27.5 127 q0 48 12 174l39 373q2 12 2 29q0 39 -37 39q-59 0 -166 -84z" />
<glyph unicode="z" horiz-adv-x="1024" d="M63 51l709 725q-99 -47 -182 -47q-29 0 -70.5 3.5t-107.5 9.5t-109 10q-5 0 -10.5 0.5t-15 1.5t-19.5 2l-47 -107l-59 6l92 285q75 21 116 21q48 0 195 -39q140 -37 229 -37q39 0 71.5 13t47.5 36l19 27l41 -17l-29 -102l-672 -690q132 47 201 47q89 0 209 -21 q71 -12 102 -12h8q13 0 27 2l57 119l58 -4q-17 -46 -37 -117t-23 -98q-9 -64 -30.5 -83.5t-85.5 -19.5q-127 0 -345 60q-70 20 -149 20q-90 0 -158 -55z" />
<glyph unicode="{" horiz-adv-x="681" d="M37 625v4q89 15 131 62.5t61 150.5l64 368q14 77 33.5 120t56.5 75q34 29 81 49.5t81 20.5h139v-5q-91 -26 -131 -74t-57 -149l-64 -368q-22 -123 -69 -177.5t-150 -74.5q75 -20 107 -57t32 -103q0 -53 -12 -117l-59 -344q-7 -44 -7 -69q0 -63 26 -96t91 -52v-4h-151 q-58 0 -108 53t-50 115q0 53 14 127l58 326q8 58 8 81q0 57 -27 86.5t-98 51.5z" />
<glyph unicode="|" horiz-adv-x="1241" d="M543 -209v1690h176v-1690h-176z" />
<glyph unicode="}" horiz-adv-x="681" d="M-2 -211q91 26 131 74t57 149l64 369q22 123 69 177.5t150 74.5q-75 20 -107 57t-32 103q0 48 12 116l59 344q7 40 7 70q0 63 -26 95.5t-91 51.5v5h151q60 0 109 -54.5t49 -120.5q0 -13 -5.5 -59.5t-8.5 -60.5l-58 -326q-8 -58 -8 -82q0 -57 27 -86t98 -51v-4 q-89 -15 -132 -63t-60 -150l-64 -369q-13 -76 -33 -119t-57 -75q-34 -29 -81 -49.5t-81 -20.5h-139v4z" />
<glyph unicode="~" horiz-adv-x="1241" d="M104 442q72 123 140 177.5t151 54.5q42 0 84 -13t139 -55q104 -45 148 -59.5t76 -14.5q49 0 86.5 30t83.5 106l125 -80q-72 -123 -140 -177.5t-151 -54.5q-42 0 -84 13t-139 55q-104 45 -148 59.5t-76 14.5q-49 0 -86.5 -30t-83.5 -106z" />
<glyph unicode="&#xa1;" horiz-adv-x="681" d="M186 -479l226 708q31 101 67 250l80 49l27 -18l-88 -881v-67h-27l-260 -60zM442 780q0 78 43 129.5t109 51.5q60 0 96.5 -37.5t36.5 -98.5q0 -76 -45 -126t-113 -50q-58 0 -92.5 35.5t-34.5 95.5z" />
<glyph unicode="&#xa2;" horiz-adv-x="1024" d="M106 264q0 149 56 298.5t131 203.5l160 115q99 68 243 80l60 159h86l-62 -168q53 -6 85.5 -16t68.5 -31l-74 -284l-59 4v127q0 28 -78 55l-268 -705q117 1 202.5 33.5t182.5 112.5l22 -64l-123 -86q-82 -58 -159 -88t-179 -45l-67 -180h-82l70 184q-120 34 -168 99.5 t-48 195.5zM342 309q0 -49 10.5 -85t36.5 -79l260 684q-79 -1 -117 -14.5t-67 -50.5q-49 -64 -86 -200t-37 -255z" />
<glyph unicode="&#xa3;" horiz-adv-x="1024" d="M43 111q37 18 59.5 31t45 32.5t35 35.5t25.5 47.5t19 61t13 82.5t11 106.5t9 137.5h-180l12 82h174q25 208 69 317.5t134 186.5q84 69 188 118.5t168 49.5q87 0 201 -51l-70 -265l-47 13v80q0 49 -40 78.5t-105 29.5q-75 0 -124.5 -44t-64.5 -126l-75 -387h305l-12 -82 h-310q-50 -185 -91.5 -269t-127.5 -173q104 26 232 26q76 0 155 -10q78 -8 131 -8q54 0 82 14t41 49l47 119h64l-96 -356q-12 -45 -101 -45q-69 0 -123 9t-295 62q-105 23 -143 23q-45 0 -113 -59q-43 -37 -61 -37h-23q-18 58 -18 121z" />
<glyph unicode="&#xa4;" horiz-adv-x="1024" d="M66 289l100 100q-46 59 -66 117t-20 135q0 80 20 139t66 111l-100 100l96 96l98 -98q112 84 254 84q137 0 246 -82l98 101l100 -101l-94 -98q80 -105 80 -250q0 -141 -82 -256l94 -98l-92 -92l-96 100q-58 -46 -117.5 -67t-138.5 -21q-149 0 -256 86l-98 -98zM238 639 q0 -113 81 -193.5t195 -80.5q113 0 192.5 81.5t79.5 196.5q0 114 -80 193t-196 79q-110 0 -191 -82t-81 -194z" />
<glyph unicode="&#xa5;" horiz-adv-x="1024" d="M23 1270q64 53 155 143q31 10 47 10q108 0 178 -127q30 -55 61 -154.5t46 -187.5l61 -348q120 344 271 568.5t260 220.5l-10 -181q-95 -19 -200 -154t-187 -343h178l-15 -82h-202l-52 -154h244l-14 -82h-244l-31 -194q-4 -20 -4 -68q0 -34 14.5 -49t49.5 -16l102 -6 l-6 -72q-172 6 -281 6l-276 -6l6 72l86 6q31 2 45 15t25 51t26 132l21 129h-238l17 82h235q-2 53 -18 154h-209l16 82h170l-55 217q-32 127 -85 208t-104 81q-48 0 -79 -21z" />
<glyph unicode="&#xa6;" horiz-adv-x="1241" d="M543 -209v676h176v-676h-176zM543 805v676h176v-676h-176z" />
<glyph unicode="&#xa7;" d="M96 -178l60 276h67l-10 -174q117 -143 258 -143q98 0 176 66t78 151q0 44 -32.5 91.5t-82.5 76.5l-276 160q-88 51 -128 113t-40 147q0 88 42.5 154t153.5 151q-83 77 -83 158q0 78 49.5 163t124.5 138q110 73 235 73q90 0 166.5 -23t163.5 -77l-55 -262h-70l6 149 q-71 60 -132 86.5t-130 26.5q-86 0 -141.5 -44.5t-55.5 -113.5q0 -51 34 -92.5t112 -87.5l239 -141q170 -101 170 -248q0 -181 -192 -313q94 -81 94 -193q0 -70 -42.5 -146t-117.5 -141q-131 -112 -313 -112q-180 0 -328 131zM336 666q0 -116 151 -201l240 -135 q48 17 81.5 66t33.5 102q0 72 -66 135q-23 17 -106 67l-238 138q-96 -86 -96 -172z" />
<glyph unicode="&#xa8;" horiz-adv-x="681" d="M207 1231q0 63 40 107t97 44q51 0 83 -34t32 -88q0 -63 -40.5 -104.5t-101.5 -41.5q-51 0 -80.5 31.5t-29.5 85.5zM643 1231q0 63 40 107t97 44q51 0 83 -34t32 -88q0 -63 -40 -104.5t-101 -41.5q-51 0 -81 31.5t-30 85.5z" />
<glyph unicode="&#xa9;" horiz-adv-x="1529" d="M53 690q0 196 97 363t263.5 264.5t362.5 97.5t363 -97.5t264.5 -264.5t97.5 -363t-97.5 -362.5t-264.5 -263.5t-363 -97t-362.5 97t-263.5 263.5t-97 362.5zM152 690q0 -127 49 -243t132.5 -199.5t199.5 -132.5t243 -49q102 0 197.5 31.5t173 89t135.5 134t89.5 172 t31.5 197.5q0 170 -84 314.5t-228.5 228.5t-314.5 84q-102 0 -197.5 -31.5t-172 -89.5t-134 -135.5t-89 -173t-31.5 -197.5zM401 594q-2 133 67 244t189 175t263 64q119 0 233 -47q-37 -120 -45 -190h-53l4 98q1 17 -27.5 31.5t-75 23t-98.5 8.5q-128 0 -198.5 -104 t-67.5 -279q3 -118 55.5 -175.5t161.5 -57.5q103 0 227 68l31 16l18 -14l-18 -49q-99 -57 -171.5 -80t-156.5 -23q-148 0 -237 66q-98 73 -101 225z" />
<glyph unicode="&#xaa;" horiz-adv-x="681" d="M43 639l16 98h635l-18 -98h-633zM96 907q0 80 36 195.5t73 152.5q42 42 176 119q48 25 108 25q59 0 140 -33l59 35l21 -17l-19 -51q-13 -36 -22 -78q-59 -249 -64 -268q-10 -40 -10 -57l18 -27q23 0 74 37l27 21l14 -37q-147 -123 -231 -123q-19 0 -30 14.5t-11 40.5 q0 40 8 68l53 198q-190 -321 -352 -321q-31 0 -49.5 28.5t-18.5 77.5zM246 948q0 -19 6.5 -32t15.5 -13q28 0 79.5 49.5t94.5 116.5q76 117 97 240q-65 26 -107 26q-40 0 -66 -22t-49 -76t-47 -151.5t-24 -137.5z" />
<glyph unicode="&#xab;" horiz-adv-x="1024" d="M72 481v43q172 153 430 389l45 -41l-258 -374l178 -381l-51 -29zM463 481v43q172 153 430 389l45 -41l-258 -374l178 -381l-51 -29z" />
<glyph unicode="&#xac;" horiz-adv-x="1241" d="M104 598v176h1053v-436h-176v260h-877z" />
<glyph unicode="&#xad;" horiz-adv-x="796" d="M76 426q45 113 59 188q120 -12 299 -12l293 6l14 -18q-19 -30 -31 -66t-30 -118q-58 2 -138.5 6t-140.5 4q-196 0 -313 -8z" />
<glyph unicode="&#xae;" horiz-adv-x="1529" d="M53 690q0 196 97 363t263.5 264.5t362.5 97.5t363 -97.5t264.5 -264.5t97.5 -363t-97.5 -362.5t-264.5 -263.5t-363 -97t-362.5 97t-263.5 263.5t-97 362.5zM152 690q0 -127 49 -243t132.5 -199.5t199.5 -132.5t243 -49q102 0 197.5 31.5t173 89t135.5 134t89.5 172 t31.5 197.5q0 170 -84 314.5t-228.5 228.5t-314.5 84q-102 0 -197.5 -31.5t-172 -89.5t-134 -135.5t-89 -173t-31.5 -197.5zM365 317l6 52l59 4q11 0 19 7.5t13.5 26.5t7.5 27.5t7 34.5l86 494q2 8 2 20q0 29 -43 29l-55 4l8 49q102 -6 203 -6q36 0 107.5 3t107.5 3 q67 0 121 -16t91 -53.5t38 -92.5q2 -45 -22.5 -86.5t-67.5 -66.5q-56 -34 -144 -48l185 -280q34 -49 49 -51h4l39 -9l2 -45q-103 5 -121 5q-17 0 -109 -5l-239 383l4 31h70q66 0 116.5 49.5t48.5 112.5q0 53 -43 82t-106 29q-30 0 -57 -3l-99 -567q-4 -21 -2 -35 q0 -12 9 -19t22 -7l72 -4l-6 -52q-165 5 -195 5t-188 -5z" />
<glyph unicode="&#xaf;" horiz-adv-x="681" d="M211 1176l35 143h665l-32 -143h-668z" />
<glyph unicode="&#xb0;" horiz-adv-x="819" d="M102 1092q0 129 90.5 218t221.5 89q123 0 213 -91t90 -216q0 -127 -90.5 -217.5t-216.5 -90.5q-128 0 -218 90t-90 218zM227 1094q0 -76 54 -130.5t129 -54.5t128.5 54t53.5 129q0 74 -54 128t-128 54q-76 0 -129.5 -52.5t-53.5 -127.5z" />
<glyph unicode="&#xb1;" horiz-adv-x="1241" d="M104 0v176h1053v-176h-1053zM104 600v176h439v438h176v-438h438v-176h-438v-266h-176v266h-439z" />
<glyph unicode="&#xb2;" horiz-adv-x="614" d="M53 555v47l174 166q246 234 246 393q0 50 -35.5 82.5t-89.5 32.5q-81 0 -125 -72l-37 -61l-61 18l82 174q105 64 201 64q109 0 176 -58t67 -153q0 -129 -129 -252l-262 -248h277q54 0 108 10l12 -16q-27 -47 -45 -127q-171 4 -280 4z" />
<glyph unicode="&#xb3;" horiz-adv-x="614" d="M47 590l39 196h57q0 -6 -2 -14q-4 -32 -4 -49q0 -55 36.5 -89t96.5 -34q75 0 125.5 61.5t50.5 153.5q0 150 -127 150q-28 0 -100 -19l-18 15l26 75q14 -4 45 -4q76 0 119 25q37 22 57.5 58t20.5 77q0 46 -32 73t-87 27q-52 0 -87.5 -27.5t-69.5 -93.5l-58 29l84 141 q83 58 195 58q101 0 161 -45t60 -121q0 -137 -215 -215q109 -13 161 -59t52 -128q0 -123 -107 -207.5t-262 -84.5q-101 0 -217 51z" />
<glyph unicode="&#xb4;" horiz-adv-x="681" d="M307 1061l289 309q59 62 104 62q40 0 68.5 -27.5t28.5 -65.5q0 -31 -15.5 -51t-58.5 -45l-315 -182h-101z" />
<glyph unicode="&#xb5;" d="M-31 -457l178 736q1 2 8.5 32t14.5 54q80 309 80 358q0 18 -9 32.5t-20 14.5q-8 0 -74 -33l-73 -43l-27 54l162 110q69 47 133 75t104 28q26 0 41 -19t15 -53q0 -43 -10 -93t-50 -208l-73 -281q-21 -79 -21 -135q0 -11 10 -19t23 -8q44 0 119.5 75.5t148.5 193.5 q75 120 119 253t47 248q95 -3 225 37l19 -22q-83 -271 -141 -490t-58 -260q0 -28 29 -28q45 0 112 51l46 35l20 -58l-72 -53q-92 -70 -173 -116t-113 -46q-31 0 -50.5 25t-19.5 63q0 51 33 166l65 240q-142 -234 -269.5 -351t-270.5 -145l-33 -340q-6 -58 -176 -98z" />
<glyph unicode="&#xb6;" d="M29 1034q0 179 96 271.5t281 89.5l108 -2l305 -4h39l430 6l-14 -74l-131 -6q-29 -2 -42 -16.5t-20 -57.5l-258 -1452v-4l-2 -6q-4 -40 -4 -51q0 -74 137 -74h60l-6 -72l-387 6l-457 -6l6 72h68q81 0 106 39q15 23 23.5 55t25.5 131l107 610q-79 10 -128.5 27.5 t-105.5 54.5q-112 75 -174.5 197.5t-62.5 265.5zM322 983q0 -162 51.5 -272.5t140.5 -141.5l129 746q-64 10 -108 10q-213 0 -213 -342zM510 -326h139l287 1624h-139z" />
<glyph unicode="&#xb7;" horiz-adv-x="512" d="M106 512q0 66 47 113t113 47t113 -47t47 -113t-47 -113t-113 -47t-113 47t-47 113z" />
<glyph unicode="&#xb8;" horiz-adv-x="681" d="M25 -395l45 67q74 -34 137 -34q53 0 82.5 21.5t29.5 59.5q0 37 -25.5 56.5t-72.5 19.5q-26 0 -59 -8l-27 25l139 198h91l-95 -137q30 6 54 6q82 0 133 -41t51 -106q0 -78 -71.5 -128t-180.5 -50q-111 0 -231 51z" />
<glyph unicode="&#xb9;" horiz-adv-x="614" d="M84 555l12 57l56 4q62 4 79.5 15.5t32.5 56.5l107 565l-232 -96l-18 27l22 78l267 77q56 17 137 54l31 -11q-4 -19 -9.5 -42t-7.5 -35l-115 -607l-6 -36q4 -29 17 -36.5t59 -9.5l94 -4l-12 -57q-156 4 -256 4z" />
<glyph unicode="&#xba;" horiz-adv-x="681" d="M37 639l18 98h576l-17 -98h-577zM104 987q0 58 19 128t47 114q41 68 142.5 119t193.5 51q97 0 150 -49t53 -138q0 -87 -39 -190q-37 -94 -143.5 -157.5t-227.5 -63.5q-195 0 -195 186zM256 983q0 -60 28.5 -94.5t77.5 -34.5q91 0 144 113q22 45 36.5 118.5t14.5 133.5 q0 57 -29.5 92t-76.5 35q-79 0 -129 -86q-28 -45 -47 -126.5t-19 -150.5z" />
<glyph unicode="&#xbb;" horiz-adv-x="1024" d="M72 123l258 375l-178 381l51 28l344 -393v-43q-172 -153 -430 -389zM463 123l258 375l-178 381l51 28l344 -393v-43q-172 -153 -430 -389z" />
<glyph unicode="&#xbc;" horiz-adv-x="1536" d="M37 555l12 57l55 4q62 4 80 15.5t33 56.5l107 565l-232 -96l-18 27l22 78l266 77q59 18 138 54l30 -11q-7 -29 -16 -77l-115 -607l-6 -36q6 -29 18.5 -37t57.5 -9l94 -4l-12 -57q-156 4 -256 4zM336 0l899 1399h141l-899 -1399h-141zM852 213v49l422 539q79 12 164 39 l20 -13l-102 -514h139l4 -14l-24 -86h-138l-14 -82q-2 -8 -2 -20q0 -51 45 -54l100 -4l-10 -57q-145 4 -237 4l-238 -4l12 57l76 4q52 3 66.5 14.5t27.5 61.5l15 80h-326zM965 313h233l82 414z" />
<glyph unicode="&#xbd;" horiz-adv-x="1536" d="M29 555l12 57l55 4q62 4 80 15.5t33 56.5l106 565l-231 -96l-18 27l22 78l266 77q59 18 138 54l30 -11l-8 -39q-1 -3 -8 -38l-115 -607l-6 -36q4 -29 17 -36.5t59 -9.5l94 -4l-12 -57q-156 4 -256 4zM295 0l899 1399h141l-899 -1399h-141zM903 -4v47l174 166 q246 234 246 393q0 50 -35.5 82.5t-89.5 32.5q-81 0 -125 -72l-37 -61l-61 18l82 174q105 64 200 64q109 0 176.5 -58t67.5 -153q0 -129 -129 -252l-262 -248h276q55 0 109 10l12 -16q-27 -47 -45 -127q-168 4 -274 4z" />
<glyph unicode="&#xbe;" horiz-adv-x="1536" d="M37 590l39 196h57q0 -6 -2 -14q-4 -32 -4 -49q0 -55 36.5 -89t96.5 -34q75 0 125.5 61.5t50.5 153.5q0 150 -127 150q-28 0 -100 -19l-19 15l27 75q14 -4 45 -4q76 0 119 25q37 22 57.5 58t20.5 77q0 46 -32 73t-87 27q-52 0 -88 -27.5t-70 -93.5l-57 29l84 141 q83 58 194 58q102 0 162 -45t60 -121q0 -137 -215 -215q109 -13 161 -59t52 -128q0 -123 -107 -207.5t-262 -84.5q-101 0 -217 51zM336 0l899 1399h141l-899 -1399h-141zM852 213v49l422 539q79 12 164 39l20 -13l-102 -514h139l4 -14l-24 -86h-138l-14 -82q-2 -8 -2 -20 q0 -51 45 -54l100 -4l-10 -57q-145 4 -237 4l-238 -4l12 57l76 4q52 3 66.5 14.5t27.5 61.5l15 80h-326zM965 313h233l82 414z" />
<glyph unicode="&#xbf;" horiz-adv-x="909" d="M152 -186q0 166 151 276l211 156q85 62 114 96.5t29 73.5q0 42 -41 86l46 37q86 -72 86 -158q0 -92 -105 -203l-129 -135q-104 -110 -104 -215q0 -75 50 -118.5t136 -43.5q56 0 115 29q29 13 49.5 41.5t44.5 85.5l14 35l68 -9q-56 -124 -88 -258q-91 -52 -151 -70 t-136 -18q-164 0 -262 85t-98 227zM590 780q0 78 42.5 129.5t108.5 51.5q60 0 96.5 -37.5t36.5 -98.5q0 -76 -44.5 -126t-112.5 -50q-58 0 -92.5 35.5t-34.5 95.5z" />
<glyph unicode="&#xc0;" horiz-adv-x="1478" d="M-72 -6l11 72l69 6q57 6 96 71l744 1256h196q3 -23 8.5 -72.5t8.5 -73.5l156 -1069q7 -55 33.5 -81t76.5 -31l76 -6v-72q-182 6 -299 6l-318 -6v72l86 6q43 3 66 19.5t20 43.5l-51 406q-26 1 -68.5 2.5t-80 2.5t-76.5 1l-227 -6l-176 -312q-39 -69 -39 -116q0 -35 88 -41 l90 -6l-10 -72q-156 6 -254 6zM502 629h395l-78 545zM764 1757q10 30 48.5 52t80.5 22q57 -3 98 -49l221 -252h-108l-289 147q-38 19 -48.5 37t-2.5 43z" />
<glyph unicode="&#xc1;" horiz-adv-x="1478" d="M-72 -6l11 72l69 6q57 6 96 71l744 1256h196q3 -23 8.5 -72.5t8.5 -73.5l156 -1069q7 -55 33.5 -81t76.5 -31l76 -6v-72q-182 6 -299 6l-318 -6v72l86 6q43 3 66 19.5t20 43.5l-51 406q-26 1 -68.5 2.5t-80 2.5t-76.5 1l-227 -6l-176 -312q-39 -69 -39 -116q0 -35 88 -41 l90 -6l-10 -72q-156 6 -254 6zM502 629h395l-78 545zM723 1530l311 252q59 46 117 49q41 0 70.5 -21.5t29.5 -52.5q0 -24 -16.5 -42.5t-60.5 -37.5l-343 -147h-108z" />
<glyph unicode="&#xc2;" horiz-adv-x="1478" d="M-72 -6l11 72l69 6q57 6 96 71l744 1256h196q3 -23 8.5 -72.5t8.5 -73.5l156 -1069q7 -55 33.5 -81t76.5 -31l76 -6v-72q-182 6 -299 6l-318 -6v72l86 6q43 3 66 19.5t20 43.5l-51 406q-26 1 -68.5 2.5t-80 2.5t-76.5 1l-227 -6l-176 -312q-39 -69 -39 -116q0 -35 88 -41 l90 -6l-10 -72q-156 6 -254 6zM502 629h395l-78 545zM582 1538l354 289h178l191 -289h-113l-195 158l-290 -158h-125z" />
<glyph unicode="&#xc3;" horiz-adv-x="1478" d="M-72 -6l11 72l69 6q57 6 96 71l744 1256h196q3 -23 8.5 -72.5t8.5 -73.5l156 -1069q7 -55 33.5 -81t76.5 -31l76 -6v-72q-182 6 -299 6l-318 -6v72l86 6q43 3 66 19.5t20 43.5l-51 406q-26 1 -68.5 2.5t-80 2.5t-76.5 1l-227 -6l-176 -312q-39 -69 -39 -116q0 -35 88 -41 l90 -6l-10 -72q-156 6 -254 6zM502 629h395l-78 545zM627 1561q55 243 241 243q70 0 156 -39q103 -47 154 -47q34 0 56 19.5t44 66.5h84q-32 -124 -90 -183.5t-146 -59.5q-35 0 -65.5 8.5t-102.5 36.5q-111 45 -155 45q-31 0 -51 -19t-43 -71h-82z" />
<glyph unicode="&#xc4;" horiz-adv-x="1478" d="M-72 -6l11 72l69 6q57 6 96 71l744 1256h196q3 -23 8.5 -72.5t8.5 -73.5l156 -1069q7 -55 33.5 -81t76.5 -31l76 -6v-72q-182 6 -299 6l-318 -6v72l86 6q43 3 66 19.5t20 43.5l-51 406q-26 1 -68.5 2.5t-80 2.5t-76.5 1l-227 -6l-176 -312q-39 -69 -39 -116q0 -35 88 -41 l90 -6l-10 -72q-156 6 -254 6zM502 629h395l-78 545zM641 1665q0 63 40 107.5t97 44.5q51 0 83 -34.5t32 -88.5q0 -63 -40 -104.5t-101 -41.5q-51 0 -81 31.5t-30 85.5zM1077 1665q0 63 40 107.5t97 44.5q51 0 83 -34.5t32 -88.5q0 -63 -40 -104.5t-101 -41.5 q-51 0 -81 31.5t-30 85.5z" />
<glyph unicode="&#xc5;" horiz-adv-x="1478" d="M-72 -6l11 72l69 6q57 6 96 71l744 1256h196q3 -23 8.5 -72.5t8.5 -73.5l156 -1069q7 -55 33.5 -81t76.5 -31l76 -6v-72q-182 6 -299 6l-318 -6v72l86 6q43 3 66 19.5t20 43.5l-51 406q-26 1 -68.5 2.5t-80 2.5t-76.5 1l-227 -6l-176 -312q-39 -69 -39 -116q0 -35 88 -41 l90 -6l-10 -72q-156 6 -254 6zM502 629h395l-78 545zM797 1718q0 85 60.5 144t148.5 59q82 0 141 -61t59 -144q0 -85 -60 -145t-145 -60t-144.5 60.5t-59.5 146.5zM899 1716q0 -43 29.5 -72.5t72.5 -29.5t73 29.5t30 72.5q0 42 -29.5 72.5t-70.5 30.5q-44 0 -74.5 -30 t-30.5 -73z" />
<glyph unicode="&#xc6;" horiz-adv-x="1933" d="M-59 -6l10 65l53 11q89 18 193 180l596 924q55 84 55 104q0 42 -68 45l-143 6l10 66l524 -6q63 0 163 3t163 3q110 0 381 -6l20 -13l-51 -311h-65v109q0 52 -6 70.5t-23 23.5q-40 9 -173.5 20t-174.5 8l-80 -6l-92 -516h176l287 6l10 -18l-29 -96l-348 10h-112l-97 -561 q66 -13 129 -13l137 4q74 2 113 4t78.5 6.5t55.5 9.5t32.5 16t23 24t13.5 35l45 143h74q-26 -104 -70 -344l-352 -8q-74 0 -202 4.5t-214 3.5l-270 -6l12 65l82 7q31 2 46.5 26t27.5 94l61 351l-76 2l-129 4h-20l-228 -6l-204 -349q-3 -6 -10 -17t-11 -17.5t-7 -16.5t-3 -20 q0 -26 16 -37t58 -14l102 -7l-10 -65q-30 0 -117.5 4t-142.5 4h-32q-5 -3 -187 -8zM553 631h403l103 575q8 39 8 74q0 12 -7.5 20.5t-19.5 8.5q-57 0 -147 -142z" />
<glyph unicode="&#xc7;" horiz-adv-x="1402" d="M141 512q0 186 70.5 355t189.5 291t284 193.5t347 71.5q199 0 391 -88q-40 -143 -55 -208t-22 -136h-72l10 180q3 51 -106 91.5t-250 40.5q-232 0 -368 -201.5t-136 -544.5q0 -235 96 -347t297 -112q97 0 193 31t213 100l45 27l20 -18l-26 -80q-157 -101 -291.5 -147 t-276.5 -46l-63 -92q30 6 53 6q82 0 133 -40.5t51 -106.5q0 -78 -71 -128t-181 -50q-111 0 -231 51l45 67q74 -34 137 -34q53 0 83 21.5t30 59.5q0 37 -25.5 56.5t-72.5 19.5q-27 0 -60 -8l-26 25l110 157q-229 23 -347 161t-118 382z" />
<glyph unicode="&#xc8;" horiz-adv-x="1251" d="M23 -6l10 65l57 7q46 5 66 29.5t32 92.5l179 1029q4 28 4 43q0 32 -20.5 46t-74.5 17l-94 6l11 66q196 -6 321 -6q73 0 188 3t187 3l332 -6l20 -13l-51 -311h-66v109q0 51 -5 70.5t-19 25.5q-25 8 -139 18t-181 10q-37 0 -55 -2l-80 -6l-92 -516h176l287 6l10 -18 l-29 -96l-348 10h-112l-99 -561q82 -16 201 -13q27 0 78 -1t81.5 -1t72.5 4t67.5 14t48.5 31t33 52l45 143h74q-28 -111 -70 -344l-342 -6q-72 0 -200.5 3.5t-215.5 2.5zM616 1757q10 30 48.5 52t80.5 22q58 -3 99 -49l221 -252h-109l-288 147q-38 19 -49 37.5t-3 42.5z" />
<glyph unicode="&#xc9;" horiz-adv-x="1251" d="M23 -6l10 65l57 7q46 5 66 29.5t32 92.5l179 1029q4 28 4 43q0 32 -20.5 46t-74.5 17l-94 6l11 66q196 -6 321 -6q73 0 188 3t187 3l332 -6l20 -13l-51 -311h-66v109q0 51 -5 70.5t-19 25.5q-25 8 -139 18t-181 10q-37 0 -55 -2l-80 -6l-92 -516h176l287 6l10 -18 l-29 -96l-348 10h-112l-99 -561q82 -16 201 -13q27 0 78 -1t81.5 -1t72.5 4t67.5 14t48.5 31t33 52l45 143h74q-28 -111 -70 -344l-342 -6q-72 0 -200.5 3.5t-215.5 2.5zM575 1530l312 252q59 46 117 49q41 0 70.5 -21.5t29.5 -52.5q0 -24 -17 -42t-61 -38l-342 -147h-109z " />
<glyph unicode="&#xca;" horiz-adv-x="1251" d="M23 -6l10 65l57 7q46 5 66 29.5t32 92.5l179 1029q4 28 4 43q0 32 -20.5 46t-74.5 17l-94 6l11 66q196 -6 321 -6q73 0 188 3t187 3l332 -6l20 -13l-51 -311h-66v109q0 51 -5 70.5t-19 25.5q-25 8 -139 18t-181 10q-37 0 -55 -2l-80 -6l-92 -516h176l287 6l10 -18 l-29 -96l-348 10h-112l-99 -561q82 -16 201 -13q27 0 78 -1t81.5 -1t72.5 4t67.5 14t48.5 31t33 52l45 143h74q-28 -111 -70 -344l-342 -6q-72 0 -200.5 3.5t-215.5 2.5zM434 1538l354 289h179l190 -289h-113l-194 158l-291 -158h-125z" />
<glyph unicode="&#xcb;" horiz-adv-x="1251" d="M23 -6l10 65l57 7q46 5 66 29.5t32 92.5l179 1029q4 28 4 43q0 32 -20.5 46t-74.5 17l-94 6l11 66q196 -6 321 -6q73 0 188 3t187 3l332 -6l20 -13l-51 -311h-66v109q0 51 -5 70.5t-19 25.5q-25 8 -139 18t-181 10q-37 0 -55 -2l-80 -6l-92 -516h176l287 6l10 -18 l-29 -96l-348 10h-112l-99 -561q82 -16 201 -13q27 0 78 -1t81.5 -1t72.5 4t67.5 14t48.5 31t33 52l45 143h74q-28 -111 -70 -344l-342 -6q-72 0 -200.5 3.5t-215.5 2.5zM494 1665q0 63 40 107.5t97 44.5q51 0 82.5 -34.5t31.5 -88.5q0 -63 -40 -104.5t-101 -41.5 q-51 0 -80.5 31.5t-29.5 85.5zM930 1665q0 63 40 107.5t97 44.5q51 0 83 -34.5t32 -88.5q0 -63 -40.5 -104.5t-101.5 -41.5q-51 0 -80.5 31.5t-29.5 85.5z" />
<glyph unicode="&#xcc;" horiz-adv-x="796" d="M-2 -6l8 72l100 6q36 2 53 16t29.5 52t28.5 130l148 838q18 111 18 147q0 56 -78 62l-106 6l8 72q190 -6 311 -6l326 6l-8 -72l-93 -6q-52 -3 -68.5 -18.5t-25.5 -71.5l-178 -1022q-6 -34 -6 -70q0 -33 17 -47t59 -16l121 -6l-9 -72q-203 6 -334 6zM367 1757 q10 30 48.5 52t80.5 22q57 -3 98 -49l221 -252h-108l-289 147q-38 19 -48.5 37t-2.5 43z" />
<glyph unicode="&#xcd;" horiz-adv-x="796" d="M-2 -6l8 72l100 6q36 2 53 16t29.5 52t28.5 130l148 838q18 111 18 147q0 56 -78 62l-106 6l8 72q190 -6 311 -6l326 6l-8 -72l-93 -6q-52 -3 -68.5 -18.5t-25.5 -71.5l-178 -1022q-6 -34 -6 -70q0 -33 17 -47t59 -16l121 -6l-9 -72q-203 6 -334 6zM326 1530l311 252 q59 46 117 49q41 0 70.5 -21.5t29.5 -52.5q0 -24 -17 -42t-61 -38l-342 -147h-108z" />
<glyph unicode="&#xce;" horiz-adv-x="796" d="M-2 -6l8 72l100 6q36 2 53 16t29.5 52t28.5 130l148 838q18 111 18 147q0 56 -78 62l-106 6l8 72q190 -6 311 -6l326 6l-8 -72l-93 -6q-52 -3 -68.5 -18.5t-25.5 -71.5l-178 -1022q-6 -34 -6 -70q0 -33 17 -47t59 -16l121 -6l-9 -72q-203 6 -334 6zM184 1538l355 289h178 l190 -289h-112l-195 158l-291 -158h-125z" />
<glyph unicode="&#xcf;" horiz-adv-x="796" d="M-2 -6l8 72l100 6q36 2 53 16t29.5 52t28.5 130l148 838q18 111 18 147q0 56 -78 62l-106 6l8 72q190 -6 311 -6l326 6l-8 -72l-93 -6q-52 -3 -68.5 -18.5t-25.5 -71.5l-178 -1022q-6 -34 -6 -70q0 -33 17 -47t59 -16l121 -6l-9 -72q-203 6 -334 6zM244 1665 q0 63 40 107.5t97 44.5q51 0 83 -34.5t32 -88.5q0 -63 -40.5 -104.5t-101.5 -41.5q-51 0 -80.5 31.5t-29.5 85.5zM680 1665q0 63 40 107.5t97 44.5q51 0 83 -34.5t32 -88.5q0 -63 -40 -104.5t-101 -41.5q-51 0 -81 31.5t-30 85.5z" />
<glyph unicode="&#xd0;" horiz-adv-x="1593" d="M0 -6l10 65l58 7q46 5 66 29.5t32 92.5l88 512h-205l12 82h207l76 435q4 28 4 40q0 34 -20 48.5t-74 17.5l-94 6l10 66l328 -6q83 0 213 4t213 4q153 0 278.5 -41t200.5 -125q127 -142 127 -367q0 -187 -75.5 -362t-209.5 -297q-221 -202 -569 -211q-84 -2 -205 2t-182 4 zM416 104q158 -22 227 -22q178 0 287.5 53.5t177.5 173.5q64 113 101.5 270.5t37.5 309.5q0 265 -155 356q-53 29 -142 47.5t-180 18.5q-20 0 -149 -11l-89 -518h373l-12 -82h-375z" />
<glyph unicode="&#xd1;" horiz-adv-x="1593" d="M-4 -6l4 72l98 6q34 2 52 26.5t30 87.5q59 296 201 1006q3 15 -19 46t-49 50q-51 32 -102 35l-80 6l6 66q133 -6 219 -6l222 6l643 -1104l151 819q12 78 12 143q0 64 -94 70l-86 6l10 66q148 -6 242 -6l242 6l-12 -66l-76 -6q-50 -5 -70 -20q-12 -11 -23.5 -52 t-37.5 -170l-176 -876q-18 -87 -33 -211h-174l-635 1100l-150 -811q-16 -88 -16 -127q0 -81 74 -84l104 -6l-10 -72q-140 6 -230 6zM651 1561q55 243 242 243q70 0 156 -39q103 -47 153 -47q34 0 56.5 19.5t44.5 66.5h83q-32 -124 -89.5 -183.5t-145.5 -59.5 q-35 0 -65.5 8.5t-102.5 36.5q-111 45 -156 45q-31 0 -51 -19t-43 -71h-82z" />
<glyph unicode="&#xd2;" horiz-adv-x="1705" d="M156 549q0 189 63.5 352t175.5 277.5t271 179.5t344 65q297 0 467 -170q149 -149 149 -405q0 -185 -67.5 -348.5t-184 -281t-279.5 -185.5t-347 -68q-281 0 -436.5 153t-155.5 431zM438 489q0 -215 91 -325.5t266 -110.5q263 0 411 260q64 112 100.5 265.5t36.5 312.5 q0 444 -360 444q-133 0 -230 -57t-169 -178q-65 -107 -105.5 -277t-40.5 -334zM823 1757q10 30 48.5 52t80.5 22q58 -3 99 -49l221 -252h-109l-289 147q-38 19 -48.5 37t-2.5 43z" />
<glyph unicode="&#xd3;" horiz-adv-x="1705" d="M156 549q0 189 63.5 352t175.5 277.5t271 179.5t344 65q297 0 467 -170q149 -149 149 -405q0 -185 -67.5 -348.5t-184 -281t-279.5 -185.5t-347 -68q-281 0 -436.5 153t-155.5 431zM438 489q0 -215 91 -325.5t266 -110.5q263 0 411 260q64 112 100.5 265.5t36.5 312.5 q0 444 -360 444q-133 0 -230 -57t-169 -178q-65 -107 -105.5 -277t-40.5 -334zM782 1530l312 252q59 46 116 49q41 0 71 -21.5t30 -52.5q0 -24 -17 -42t-61 -38l-342 -147h-109z" />
<glyph unicode="&#xd4;" horiz-adv-x="1705" d="M156 549q0 189 63.5 352t175.5 277.5t271 179.5t344 65q297 0 467 -170q149 -149 149 -405q0 -185 -67.5 -348.5t-184 -281t-279.5 -185.5t-347 -68q-281 0 -436.5 153t-155.5 431zM438 489q0 -215 91 -325.5t266 -110.5q263 0 411 260q64 112 100.5 265.5t36.5 312.5 q0 444 -360 444q-133 0 -230 -57t-169 -178q-65 -107 -105.5 -277t-40.5 -334zM641 1538l354 289h179l190 -289h-113l-194 158l-291 -158h-125z" />
<glyph unicode="&#xd5;" horiz-adv-x="1705" d="M156 549q0 189 63.5 352t175.5 277.5t271 179.5t344 65q297 0 467 -170q149 -149 149 -405q0 -185 -67.5 -348.5t-184 -281t-279.5 -185.5t-347 -68q-281 0 -436.5 153t-155.5 431zM438 489q0 -215 91 -325.5t266 -110.5q263 0 411 260q64 112 100.5 265.5t36.5 312.5 q0 444 -360 444q-133 0 -230 -57t-169 -178q-65 -107 -105.5 -277t-40.5 -334zM686 1561q56 243 242 243q40 0 72.5 -8t82.5 -31q103 -47 154 -47q34 0 56 19.5t44 66.5h84q-32 -124 -89.5 -183.5t-145.5 -59.5q-35 0 -65.5 8.5t-102.5 36.5q-111 45 -156 45q-31 0 -51 -19 t-43 -71h-82z" />
<glyph unicode="&#xd6;" horiz-adv-x="1705" d="M156 549q0 189 63.5 352t175.5 277.5t271 179.5t344 65q297 0 467 -170q149 -149 149 -405q0 -185 -67.5 -348.5t-184 -281t-279.5 -185.5t-347 -68q-281 0 -436.5 153t-155.5 431zM438 489q0 -215 91 -325.5t266 -110.5q263 0 411 260q64 112 100.5 265.5t36.5 312.5 q0 444 -360 444q-133 0 -230 -57t-169 -178q-65 -107 -105.5 -277t-40.5 -334zM700 1665q0 63 40.5 107.5t97.5 44.5q51 0 82.5 -34.5t31.5 -88.5q0 -63 -40 -104.5t-101 -41.5q-51 0 -81 31.5t-30 85.5zM1137 1665q0 63 40 107.5t97 44.5q51 0 83 -34.5t32 -88.5 q0 -63 -40.5 -104.5t-101.5 -41.5q-51 0 -80.5 31.5t-29.5 85.5z" />
<glyph unicode="&#xd7;" horiz-adv-x="1241" d="M197 203l309 309l-309 309l125 125l309 -309l309 309l125 -125l-309 -309l309 -309l-125 -125l-309 309l-309 -309z" />
<glyph unicode="&#xd8;" horiz-adv-x="1705" d="M117 -41l172 184q-72 73 -102.5 164.5t-30.5 227.5q0 262 108 464t304.5 313t451.5 111q111 0 190 -22.5t183 -83.5l170 178l69 -63l-162 -172q82 -85 119 -181.5t37 -226.5q0 -188 -68 -352.5t-185.5 -282t-282.5 -185t-353 -67.5q-106 0 -187 24.5t-188 90.5l-180 -191 zM418 481q0 -80 31 -168l827 881q-66 77 -134.5 109t-166.5 32q-183 0 -303 -123q-114 -116 -184 -311t-70 -420zM492 217q78 -89 149 -126.5t160 -37.5q126 0 229.5 66.5t175.5 193.5q64 112 100.5 265.5t36.5 312.5q0 104 -26 205z" />
<glyph unicode="&#xd9;" horiz-adv-x="1593" d="M170 1323l10 72q19 -1 49.5 -2t103 -3t118.5 -1l178 6l12 -15l-176 -942q-6 -35 -6 -71q0 -94 28 -142q25 -43 75.5 -69.5t107.5 -26.5q87 0 192 61q73 41 136.5 98t68.5 85l133 735q23 128 23 156q0 50 -76 53l-105 6l11 72q190 -6 311 -6l326 6l-11 -72l-94 -6 q-54 -3 -72 -19t-28 -71l-185 -1022q-8 -47 -8 -72q0 -32 16.5 -46t57.5 -15l121 -6l-10 -72q-148 6 -242 6l-217 -6l-10 16l55 262q-86 -92 -134 -135.5t-104 -83.5q-125 -88 -270 -88q-97 0 -177.5 38t-127.5 106q-57 77 -57 210q0 66 16 160l119 629q4 22 10 53t7.5 41 t3 26.5t1.5 35.5q0 50 -76 53zM766 1757q10 30 48.5 52t80.5 22q57 -3 98 -49l221 -252h-108l-289 147q-38 19 -48.5 37t-2.5 43z" />
<glyph unicode="&#xda;" horiz-adv-x="1593" d="M170 1323l10 72q19 -1 49.5 -2t103 -3t118.5 -1l178 6l12 -15l-176 -942q-6 -35 -6 -71q0 -94 28 -142q25 -43 75.5 -69.5t107.5 -26.5q87 0 192 61q73 41 136.5 98t68.5 85l133 735q23 128 23 156q0 50 -76 53l-105 6l11 72q190 -6 311 -6l326 6l-11 -72l-94 -6 q-54 -3 -72 -19t-28 -71l-185 -1022q-8 -47 -8 -72q0 -32 16.5 -46t57.5 -15l121 -6l-10 -72q-148 6 -242 6l-217 -6l-10 16l55 262q-86 -92 -134 -135.5t-104 -83.5q-125 -88 -270 -88q-97 0 -177.5 38t-127.5 106q-57 77 -57 210q0 66 16 160l119 629q4 22 10 53t7.5 41 t3 26.5t1.5 35.5q0 50 -76 53zM725 1530l311 252q59 46 117 49q41 0 70.5 -21.5t29.5 -52.5q0 -24 -16.5 -42.5t-60.5 -37.5l-342 -147h-109z" />
<glyph unicode="&#xdb;" horiz-adv-x="1593" d="M170 1323l10 72q19 -1 49.5 -2t103 -3t118.5 -1l178 6l12 -15l-176 -942q-6 -35 -6 -71q0 -94 28 -142q25 -43 75.5 -69.5t107.5 -26.5q87 0 192 61q73 41 136.5 98t68.5 85l133 735q23 128 23 156q0 50 -76 53l-105 6l11 72q190 -6 311 -6l326 6l-11 -72l-94 -6 q-54 -3 -72 -19t-28 -71l-185 -1022q-8 -47 -8 -72q0 -32 16.5 -46t57.5 -15l121 -6l-10 -72q-148 6 -242 6l-217 -6l-10 16l55 262q-86 -92 -134 -135.5t-104 -83.5q-125 -88 -270 -88q-97 0 -177.5 38t-127.5 106q-57 77 -57 210q0 66 16 160l119 629q4 22 10 53t7.5 41 t3 26.5t1.5 35.5q0 50 -76 53zM584 1538l354 289h178l191 -289h-113l-195 158l-290 -158h-125z" />
<glyph unicode="&#xdc;" horiz-adv-x="1593" d="M170 1323l10 72q19 -1 49.5 -2t103 -3t118.5 -1l178 6l12 -15l-176 -942q-6 -35 -6 -71q0 -94 28 -142q25 -43 75.5 -69.5t107.5 -26.5q87 0 192 61q73 41 136.5 98t68.5 85l133 735q23 128 23 156q0 50 -76 53l-105 6l11 72q190 -6 311 -6l326 6l-11 -72l-94 -6 q-54 -3 -72 -19t-28 -71l-185 -1022q-8 -47 -8 -72q0 -32 16.5 -46t57.5 -15l121 -6l-10 -72q-148 6 -242 6l-217 -6l-10 16l55 262q-86 -92 -134 -135.5t-104 -83.5q-125 -88 -270 -88q-97 0 -177.5 38t-127.5 106q-57 77 -57 210q0 66 16 160l119 629q4 22 10 53t7.5 41 t3 26.5t1.5 35.5q0 50 -76 53zM643 1665q0 63 40 107.5t97 44.5q51 0 83 -34.5t32 -88.5q0 -63 -40 -104.5t-101 -41.5q-51 0 -81 31.5t-30 85.5zM1079 1665q0 63 40.5 107.5t97.5 44.5q51 0 82.5 -34.5t31.5 -88.5q0 -63 -40 -104.5t-101 -41.5q-51 0 -81 31.5t-30 85.5z " />
<glyph unicode="&#xdd;" horiz-adv-x="1251" d="M111 1270q64 44 184 143q39 10 57 10q85 0 150 -59q55 -49 104 -159.5t78 -250.5l74 -346q138 340 318 567t306 220l-12 -181q-51 -6 -115.5 -49t-121.5 -106q-100 -114 -206.5 -313t-123.5 -302l-2 -10l-4 -20t-6.5 -35.5t-12.5 -67.5t-20 -106q-6 -34 -6 -68 q0 -35 16 -49.5t59 -15.5l121 -6l-8 -72q-203 6 -334 6l-321 -6l8 72l100 6q51 3 65.5 28.5t44.5 162.5q0 5 1 7q2 10 11.5 50.5t14.5 63.5t10 57.5t5 60.5q0 31 -16 99.5t-33.5 127.5t-39.5 128.5t-24 76.5q-40 131 -101 210t-122 79q-57 0 -92 -21zM614 1530l312 252 q59 46 116 49q41 0 71 -21.5t30 -52.5q0 -24 -17 -42t-61 -38l-342 -147h-109z" />
<glyph unicode="&#xde;" horiz-adv-x="1366" d="M23 -6l8 72l100 6q36 2 53 16t29.5 52t28.5 130l147 838q19 111 19 147q0 56 -78 62l-107 6l8 72q191 -6 312 -6l325 6l-8 -72l-92 -6q-51 -3 -66.5 -18t-27.5 -72l-25 -121l234 6q215 6 325.5 -71t110.5 -234q0 -98 -42.5 -192.5t-112 -164.5t-162.5 -113.5t-189 -43.5 q-83 0 -190 37l-5 71q70 -24 136 -24q119 0 194 94q46 58 73.5 137.5t27.5 161.5q0 134 -68.5 194t-220.5 60q-46 0 -129 -6l-135 -813q-7 -44 -7 -72q0 -31 17.5 -45.5t58.5 -15.5l121 -6l-8 -72q-203 6 -334 6z" />
<glyph unicode="&#xdf;" d="M-268 -537q39 108 63 222h31q31 -46 56 -64t57 -18q78 0 114 180l209 1044h-188l8 54l205 67q25 137 58 194t134 136q157 124 239 166.5t167 42.5q109 0 174 -58.5t65 -156.5q0 -115 -71 -211q-20 -26 -34.5 -41.5t-72.5 -75.5q-96 -96 -96 -158q0 -68 108 -192 q58 -67 81.5 -116t23.5 -105q0 -105 -98 -217q-84 -97 -160 -140t-168 -43q-44 0 -104 18.5t-72 20.5l61 242h51v-107q57 -63 150 -63q69 0 112.5 39t43.5 102q0 74 -105 215q-63 84 -85.5 130t-22.5 87q0 40 21 80t85 117q93 112 109 143q24 42 39.5 102.5t15.5 112.5 q0 69 -45.5 111.5t-118.5 42.5q-81 0 -131.5 -58t-79.5 -184l-158 -694q-23 -101 -69.5 -267.5t-75.5 -254.5q-34 -99 -96 -194t-133 -156q-60 -52 -121 -82.5t-105 -30.5q-30 0 -71 18z" />
<glyph unicode="&#xe0;" d="M90 119q0 122 44.5 293t98.5 256q25 38 107 109t168 128q47 32 88 44t104 12q50 0 92.5 -11.5t116.5 -42.5l92 56l33 -25q-47 -129 -65 -215l-92 -438l-21 -101q3 -28 9.5 -39.5t19.5 -11.5q30 0 112 64l41 32l25 -61q-231 -203 -356 -203q-31 0 -48.5 24.5t-17.5 65.5 q0 60 14 115l76 309q-143 -251 -278 -382.5t-252 -131.5q-49 0 -80 43t-31 111zM319 209q0 -30 10.5 -53t24.5 -23q34 0 89 48t118 132q168 225 211 496q-95 45 -168 45q-65 0 -109.5 -48t-78.5 -155q-39 -121 -68 -253.5t-29 -188.5zM521.5 1288q-8.5 20 2.5 51 q14 38 51.5 65.5t77.5 27.5q24 0 42.5 -14.5t39.5 -47.5l180 -309h-100l-252 182q-33 25 -41.5 45z" />
<glyph unicode="&#xe1;" d="M90 119q0 122 44.5 293t98.5 256q25 38 107 109t168 128q47 32 88 44t104 12q50 0 92.5 -11.5t116.5 -42.5l92 56l33 -25q-47 -129 -65 -215l-92 -438l-21 -101q3 -28 9.5 -39.5t19.5 -11.5q30 0 112 64l41 32l25 -61q-231 -203 -356 -203q-31 0 -48.5 24.5t-17.5 65.5 q0 60 14 115l76 309q-143 -251 -278 -382.5t-252 -131.5q-49 0 -80 43t-31 111zM319 209q0 -30 10.5 -53t24.5 -23q34 0 89 48t118 132q168 225 211 496q-95 45 -168 45q-65 0 -109.5 -48t-78.5 -155q-39 -121 -68 -253.5t-29 -188.5zM473 1061l289 309q59 62 104 62 q40 0 68.5 -27.5t28.5 -65.5q0 -31 -15.5 -51t-58.5 -45l-316 -182h-100z" />
<glyph unicode="&#xe2;" d="M90 119q0 122 44.5 293t98.5 256q25 38 107 109t168 128q47 32 88 44t104 12q50 0 92.5 -11.5t116.5 -42.5l92 56l33 -25q-47 -129 -65 -215l-92 -438l-21 -101q3 -28 9.5 -39.5t19.5 -11.5q30 0 112 64l41 32l25 -61q-231 -203 -356 -203q-31 0 -48.5 24.5t-17.5 65.5 q0 60 14 115l76 309q-143 -251 -278 -382.5t-252 -131.5q-49 0 -80 43t-31 111zM319 209q0 -30 10.5 -53t24.5 -23q34 0 89 48t118 132q168 225 211 496q-95 45 -168 45q-65 0 -109.5 -48t-78.5 -155q-39 -121 -68 -253.5t-29 -188.5zM344 1069l328 356h166l176 -356h-105 l-180 195l-268 -195h-117z" />
<glyph unicode="&#xe3;" d="M90 119q0 122 44.5 293t98.5 256q25 38 107 109t168 128q47 32 88 44t104 12q50 0 92.5 -11.5t116.5 -42.5l92 56l33 -25q-47 -129 -65 -215l-92 -438l-21 -101q3 -28 9.5 -39.5t19.5 -11.5q30 0 112 64l41 32l25 -61q-231 -203 -356 -203q-31 0 -48.5 24.5t-17.5 65.5 q0 60 14 115l76 309q-143 -251 -278 -382.5t-252 -131.5q-49 0 -80 43t-31 111zM319 209q0 -30 10.5 -53t24.5 -23q34 0 89 48t118 132q168 225 211 496q-95 45 -168 45q-65 0 -109.5 -48t-78.5 -155q-39 -121 -68 -253.5t-29 -188.5zM358 1126q56 244 242 244q70 0 156 -39 q103 -47 153 -47q34 0 56.5 19.5t44.5 66.5h84q-32 -124 -90 -184t-146 -60q-35 0 -65.5 8.5t-102.5 36.5q-113 46 -155 46q-31 0 -51.5 -19.5t-43.5 -71.5h-82z" />
<glyph unicode="&#xe4;" d="M90 119q0 122 44.5 293t98.5 256q25 38 107 109t168 128q47 32 88 44t104 12q50 0 92.5 -11.5t116.5 -42.5l92 56l33 -25q-47 -129 -65 -215l-92 -438l-21 -101q3 -28 9.5 -39.5t19.5 -11.5q30 0 112 64l41 32l25 -61q-231 -203 -356 -203q-31 0 -48.5 24.5t-17.5 65.5 q0 60 14 115l76 309q-143 -251 -278 -382.5t-252 -131.5q-49 0 -80 43t-31 111zM319 209q0 -30 10.5 -53t24.5 -23q34 0 89 48t118 132q168 225 211 496q-95 45 -168 45q-65 0 -109.5 -48t-78.5 -155q-39 -121 -68 -253.5t-29 -188.5zM373 1231q0 63 40 107t97 44 q51 0 83 -34t32 -88q0 -63 -40.5 -104.5t-101.5 -41.5q-51 0 -80.5 31.5t-29.5 85.5zM809 1231q0 63 40 107t97 44q51 0 83 -34t32 -88q0 -63 -40 -104.5t-101 -41.5q-51 0 -81 31.5t-30 85.5z" />
<glyph unicode="&#xe5;" d="M90 119q0 122 44.5 293t98.5 256q25 38 107 109t168 128q47 32 88 44t104 12q50 0 92.5 -11.5t116.5 -42.5l92 56l33 -25q-47 -129 -65 -215l-92 -438l-21 -101q3 -28 9.5 -39.5t19.5 -11.5q30 0 112 64l41 32l25 -61q-231 -203 -356 -203q-31 0 -48.5 24.5t-17.5 65.5 q0 60 14 115l76 309q-143 -251 -278 -382.5t-252 -131.5q-49 0 -80 43t-31 111zM319 209q0 -30 10.5 -53t24.5 -23q34 0 89 48t118 132q168 225 211 496q-95 45 -168 45q-65 0 -109.5 -48t-78.5 -155q-39 -121 -68 -253.5t-29 -188.5zM520 1249q0 85 60.5 144t148.5 59 q82 0 141.5 -61t59.5 -144q0 -85 -60 -145t-145 -60t-145 60.5t-60 146.5zM623 1247q0 -43 29.5 -72.5t72.5 -29.5t72.5 29.5t29.5 72.5q0 42 -29.5 72.5t-70.5 30.5q-44 0 -74 -30t-30 -73z" />
<glyph unicode="&#xe6;" horiz-adv-x="1511" d="M90 164q0 78 37 152t96 114q56 37 141 60.5t166 23.5h164v90q0 114 -58.5 173t-172.5 59q-24 0 -70 -6t-53 -7l-49 -137l-39 8l-14 152q87 65 153 90t154 25q118 0 188 -47.5t105 -151.5q141 109 237.5 154t188.5 45q87 0 139.5 -48.5t52.5 -128.5q0 -141 -134 -222.5 t-423 -115.5q-8 -68 -8 -157q0 -98 36.5 -145.5t112.5 -47.5q63 0 139.5 31.5t192.5 105.5l21 -57q-13 -8 -30 -18.5t-30 -18.5q-153 -99 -244.5 -136.5t-181.5 -37.5q-99 0 -158 42t-90 134q-130 -107 -199.5 -141.5t-154.5 -34.5q-98 0 -156.5 54t-58.5 145zM305 231 q0 -116 121 -116q114 0 183.5 90t76.5 250h-90q-129 0 -210 -63t-81 -161zM907 508q86 10 101 14q140 30 206 115q50 69 50 127q0 46 -25.5 72t-69.5 26q-107 0 -174 -129q-28 -52 -88 -225z" />
<glyph unicode="&#xe7;" horiz-adv-x="909" d="M66 244q0 110 31 237t75 197q57 84 207 176q103 63 160 85t120 22q55 0 102.5 -10t131.5 -40q-22 -57 -34.5 -108t-37.5 -180h-67l12 114l-8 29q-95 68 -189 68q-127 0 -190 -144q-32 -74 -56 -194t-24 -209q0 -85 44 -135t118 -50q73 0 145.5 31t194.5 113l20 -62 q-126 -88 -204.5 -131.5t-153.5 -66.5l-78 -113q30 6 53 6q82 0 133.5 -40.5t51.5 -106.5q0 -78 -71 -128t-181 -50q-112 0 -232 51l45 67q74 -34 138 -34q53 0 82.5 21.5t29.5 59.5q0 37 -25.5 56.5t-72.5 19.5q-27 0 -60 -8l-26 25l108 155q-14 -2 -32 -2 q-120 0 -190 75.5t-70 203.5z" />
<glyph unicode="&#xe8;" horiz-adv-x="909" d="M57 201q0 108 36 247t87 230q60 106 212 194.5t274 88.5q88 0 139 -48.5t51 -130.5q0 -180 -219 -284q-65 -31 -135 -52.5t-201 -50.5q-10 -74 -10 -131q0 -80 38.5 -124t110.5 -44q63 0 139.5 31.5t192.5 105.5l21 -57q-13 -8 -30.5 -18.5t-29.5 -18.5 q-157 -100 -246.5 -137t-181.5 -37q-115 0 -181.5 63.5t-66.5 172.5zM309 449l84 24q126 37 198.5 112t72.5 169q0 51 -26.5 79.5t-72.5 28.5q-75 0 -134 -76.5t-93 -218.5zM427.5 1288q-8.5 20 2.5 51q14 38 51.5 65.5t77.5 27.5q24 0 42.5 -14.5t39.5 -47.5l180 -309h-100 l-252 182q-33 25 -41.5 45z" />
<glyph unicode="&#xe9;" horiz-adv-x="909" d="M57 201q0 108 36 247t87 230q60 106 212 194.5t274 88.5q88 0 139 -48.5t51 -130.5q0 -180 -219 -284q-65 -31 -135 -52.5t-201 -50.5q-10 -74 -10 -131q0 -80 38.5 -124t110.5 -44q63 0 139.5 31.5t192.5 105.5l21 -57q-13 -8 -30.5 -18.5t-29.5 -18.5 q-157 -100 -246.5 -137t-181.5 -37q-115 0 -181.5 63.5t-66.5 172.5zM309 449l84 24q126 37 198.5 112t72.5 169q0 51 -26.5 79.5t-72.5 28.5q-75 0 -134 -76.5t-93 -218.5zM379 1061l289 309q59 62 104 62q40 0 68 -27.5t28 -65.5q0 -31 -15.5 -51t-57.5 -45l-316 -182 h-100z" />
<glyph unicode="&#xea;" horiz-adv-x="909" d="M57 201q0 108 36 247t87 230q60 106 212 194.5t274 88.5q88 0 139 -48.5t51 -130.5q0 -180 -219 -284q-65 -31 -135 -52.5t-201 -50.5q-10 -74 -10 -131q0 -80 38.5 -124t110.5 -44q63 0 139.5 31.5t192.5 105.5l21 -57q-13 -8 -30.5 -18.5t-29.5 -18.5 q-157 -100 -246.5 -137t-181.5 -37q-115 0 -181.5 63.5t-66.5 172.5zM250 1069l328 356h165l177 -356h-105l-180 195l-268 -195h-117zM309 449l84 24q126 37 198.5 112t72.5 169q0 51 -26.5 79.5t-72.5 28.5q-75 0 -134 -76.5t-93 -218.5z" />
<glyph unicode="&#xeb;" horiz-adv-x="909" d="M57 201q0 108 36 247t87 230q60 106 212 194.5t274 88.5q88 0 139 -48.5t51 -130.5q0 -180 -219 -284q-65 -31 -135 -52.5t-201 -50.5q-10 -74 -10 -131q0 -80 38.5 -124t110.5 -44q63 0 139.5 31.5t192.5 105.5l21 -57q-13 -8 -30.5 -18.5t-29.5 -18.5 q-157 -100 -246.5 -137t-181.5 -37q-115 0 -181.5 63.5t-66.5 172.5zM279 1231q0 63 40 107t97 44q51 0 82.5 -34t31.5 -88q0 -63 -40 -104.5t-101 -41.5q-51 0 -80.5 31.5t-29.5 85.5zM309 449l84 24q126 37 198.5 112t72.5 169q0 51 -26.5 79.5t-72.5 28.5 q-75 0 -134 -76.5t-93 -218.5zM715 1231q0 63 40 107t97 44q51 0 83 -34t32 -88q0 -63 -40.5 -104.5t-101.5 -41.5q-51 0 -80.5 31.5t-29.5 85.5z" />
<glyph unicode="&#xec;" horiz-adv-x="681" d="M53 709l129 96q96 71 179.5 113.5t127.5 42.5q23 0 37.5 -21t14.5 -55q0 -63 -19 -137l-110 -402q-41 -143 -41 -190q0 -9 6.5 -16t15.5 -7q28 0 127 62l55 34l25 -57q-27 -19 -57 -41q-125 -89 -203.5 -127.5t-136.5 -38.5q-29 0 -47.5 24t-18.5 64q0 44 13 107l120 493 q17 72 17 84q0 9 -6 15t-15 6q-13 0 -61.5 -24t-79.5 -46l-45 -33zM286.5 1288q-8.5 20 2.5 51q14 38 51.5 65.5t77.5 27.5q24 0 42.5 -14.5t39.5 -47.5l180 -309h-100l-252 182q-33 25 -41.5 45z" />
<glyph unicode="&#xed;" horiz-adv-x="681" d="M53 709l129 96q96 71 179.5 113.5t127.5 42.5q23 0 37.5 -21t14.5 -55q0 -63 -19 -137l-110 -402q-41 -143 -41 -190q0 -9 6.5 -16t15.5 -7q28 0 127 62l55 34l25 -57q-27 -19 -57 -41q-125 -89 -203.5 -127.5t-136.5 -38.5q-29 0 -47.5 24t-18.5 64q0 44 13 107l120 493 q17 72 17 84q0 9 -6 15t-15 6q-13 0 -61.5 -24t-79.5 -46l-45 -33zM238 1061l288 309q59 62 105 62q40 0 68 -27.5t28 -65.5q0 -31 -15.5 -51t-58.5 -45l-315 -182h-100z" />
<glyph unicode="&#xee;" horiz-adv-x="681" d="M53 709l129 96q96 71 179.5 113.5t127.5 42.5q23 0 37.5 -21t14.5 -55q0 -63 -19 -137l-110 -402q-41 -143 -41 -190q0 -9 6.5 -16t15.5 -7q28 0 127 62l55 34l25 -57q-27 -19 -57 -41q-125 -89 -203.5 -127.5t-136.5 -38.5q-29 0 -47.5 24t-18.5 64q0 44 13 107l120 493 q17 72 17 84q0 9 -6 15t-15 6q-13 0 -61.5 -24t-79.5 -46l-45 -33zM109 1069l327 356h166l176 -356h-104l-180 195l-269 -195h-116z" />
<glyph unicode="&#xef;" horiz-adv-x="681" d="M53 709l129 96q96 71 179.5 113.5t127.5 42.5q23 0 37.5 -21t14.5 -55q0 -63 -19 -137l-110 -402q-41 -143 -41 -190q0 -9 6.5 -16t15.5 -7q28 0 127 62l55 34l25 -57q-27 -19 -57 -41q-125 -89 -203.5 -127.5t-136.5 -38.5q-29 0 -47.5 24t-18.5 64q0 44 13 107l120 493 q17 72 17 84q0 9 -6 15t-15 6q-13 0 -61.5 -24t-79.5 -46l-45 -33zM137 1231q0 63 40 107t97 44q51 0 83 -34t32 -88q0 -63 -40 -104.5t-101 -41.5q-51 0 -81 31.5t-30 85.5zM573 1231q0 63 40.5 107t97.5 44q51 0 82.5 -34t31.5 -88q0 -63 -40 -104.5t-101 -41.5 q-51 0 -81 31.5t-30 85.5z" />
<glyph unicode="&#xf0;" d="M98 276q0 121 41.5 253t100.5 200q94 106 222 169t253 63q41 0 88 -19q-7 68 -25 117.5t-55 107.5l-283 -141l-39 72l269 133q-43 51 -83.5 85.5t-103.5 72.5l82 98q128 -64 238 -191l278 138l37 -72l-264 -131q92 -145 133 -280.5t41 -297.5q0 -184 -64 -328t-186 -235 q-170 -125 -370 -125q-310 0 -310 311zM332 266q0 -97 45 -154t121 -57q98 0 172 105q54 76 89.5 219.5t35.5 282.5q0 95 -45 151.5t-119 56.5q-101 0 -174 -104q-54 -76 -89.5 -219t-35.5 -281z" />
<glyph unicode="&#xf1;" d="M35 733l172 127q137 101 209 101q26 0 40.5 -16.5t14.5 -45.5q0 -43 -13.5 -105t-56.5 -216l-34 -123q53 90 88.5 140t89.5 110q104 113 215.5 184.5t183.5 71.5q35 0 57.5 -24.5t22.5 -62.5q0 -40 -33 -169l-98 -377q-27 -111 -27 -160q0 -35 23 -35q25 0 92 45l59 41 l27 -55q-8 -6 -25.5 -19t-33.5 -24q-115 -86 -184.5 -121t-125.5 -35q-32 0 -52.5 24.5t-20.5 61.5q0 94 98 434q51 171 51 230q0 43 -41 43q-73 0 -187.5 -140t-174.5 -303q-20 -56 -42.5 -148t-31.5 -159q-126 -7 -217 -35l-21 23q71 214 122.5 428.5t51.5 298.5 q0 35 -22 35q-34 0 -84 -35l-66 -45zM328 1126q56 244 241 244q70 0 156 -39q103 -47 154 -47q34 0 56 19.5t44 66.5h84q-32 -124 -90 -184t-146 -60q-35 0 -65.5 8.5t-102.5 36.5q-113 46 -155 46q-31 0 -51 -19.5t-43 -71.5h-82z" />
<glyph unicode="&#xf2;" d="M98 276q0 133 49 281q32 100 88.5 170.5t151.5 130.5q161 103 330 103q148 0 229.5 -81t81.5 -227q0 -97 -26.5 -209.5t-67.5 -185.5q-34 -62 -113 -130.5t-164 -107.5q-116 -55 -256 -55q-303 0 -303 311zM332 266q0 -97 45 -154t121 -57q98 0 172 105q54 76 89.5 219.5 t35.5 282.5q0 95 -45 151.5t-119 56.5q-101 0 -174 -104q-54 -76 -89.5 -219t-35.5 -281zM493.5 1288q-8.5 20 2.5 51q14 38 51.5 65.5t77.5 27.5q24 0 42.5 -14.5t39.5 -47.5l180 -309h-101l-251 182q-33 25 -41.5 45z" />
<glyph unicode="&#xf3;" d="M98 276q0 133 49 281q32 100 88.5 170.5t151.5 130.5q161 103 330 103q148 0 229.5 -81t81.5 -227q0 -97 -26.5 -209.5t-67.5 -185.5q-34 -62 -113 -130.5t-164 -107.5q-116 -55 -256 -55q-303 0 -303 311zM332 266q0 -97 45 -154t121 -57q98 0 172 105q54 76 89.5 219.5 t35.5 282.5q0 95 -45 151.5t-119 56.5q-101 0 -174 -104q-54 -76 -89.5 -219t-35.5 -281zM444 1061l289 309q59 62 105 62q40 0 68 -27.5t28 -65.5q0 -31 -15.5 -51t-58.5 -45l-315 -182h-101z" />
<glyph unicode="&#xf4;" d="M98 276q0 133 49 281q32 100 88.5 170.5t151.5 130.5q161 103 330 103q148 0 229.5 -81t81.5 -227q0 -97 -26.5 -209.5t-67.5 -185.5q-34 -62 -113 -130.5t-164 -107.5q-116 -55 -256 -55q-303 0 -303 311zM315 1069l328 356h166l176 -356h-104l-181 195l-268 -195h-117z M332 266q0 -97 45 -154t121 -57q98 0 172 105q54 76 89.5 219.5t35.5 282.5q0 95 -45 151.5t-119 56.5q-101 0 -174 -104q-54 -76 -89.5 -219t-35.5 -281z" />
<glyph unicode="&#xf5;" d="M98 276q0 133 49 281q32 100 88.5 170.5t151.5 130.5q161 103 330 103q148 0 229.5 -81t81.5 -227q0 -97 -26.5 -209.5t-67.5 -185.5q-34 -62 -113 -130.5t-164 -107.5q-116 -55 -256 -55q-303 0 -303 311zM330 1126q56 244 241 244q70 0 156 -39q103 -47 154 -47 q34 0 56 19.5t44 66.5h84q-32 -124 -90 -184t-146 -60q-34 0 -64.5 8.5t-102.5 36.5q-113 46 -156 46q-31 0 -51 -19.5t-43 -71.5h-82zM332 266q0 -97 45 -154t121 -57q98 0 172 105q54 76 89.5 219.5t35.5 282.5q0 95 -45 151.5t-119 56.5q-101 0 -174 -104 q-54 -76 -89.5 -219t-35.5 -281z" />
<glyph unicode="&#xf6;" d="M98 276q0 133 49 281q32 100 88.5 170.5t151.5 130.5q161 103 330 103q148 0 229.5 -81t81.5 -227q0 -97 -26.5 -209.5t-67.5 -185.5q-34 -62 -113 -130.5t-164 -107.5q-116 -55 -256 -55q-303 0 -303 311zM332 266q0 -97 45 -154t121 -57q98 0 172 105q54 76 89.5 219.5 t35.5 282.5q0 95 -45 151.5t-119 56.5q-101 0 -174 -104q-54 -76 -89.5 -219t-35.5 -281zM344 1231q0 63 40 107t97 44q51 0 83 -34t32 -88q0 -63 -40 -104.5t-101 -41.5q-51 0 -81 31.5t-30 85.5zM780 1231q0 63 40.5 107t97.5 44q51 0 82.5 -34t31.5 -88q0 -63 -40 -104.5 t-101 -41.5q-51 0 -81 31.5t-30 85.5z" />
<glyph unicode="&#xf7;" horiz-adv-x="1241" d="M104 424v176h1053v-176h-1053zM471 164q0 66 47 113t113 47t113 -47t47 -113t-47 -113t-113 -47t-113 47t-47 113zM471 860q0 66 47 113t113 47t113 -47t47 -113t-47 -113t-113 -47t-113 47t-47 113z" />
<glyph unicode="&#xf8;" d="M29 -57l125 139q-56 95 -56 207q0 119 49 268q32 99 88.5 169t153.5 132q154 103 326 103q54 0 95 -10t95 -36l109 121l55 -51l-102 -113q61 -98 61 -229q0 -92 -28 -206t-68 -185q-29 -51 -92 -108t-133 -97q-140 -82 -295 -82q-138 0 -209 62l-117 -129zM336 279 l436 489q-29 57 -60.5 79.5t-82.5 22.5q-126 0 -200 -149.5t-93 -441.5zM344 184q29 -68 65 -98.5t87 -30.5q105 0 180 113q57 89 84.5 206t34.5 306z" />
<glyph unicode="&#xf9;" d="M45 748l162 110q154 103 237 103q26 0 41 -19t15 -53q0 -43 -10 -93t-50 -208l-71 -281q-21 -89 -21 -135q0 -12 9.5 -19.5t23.5 -7.5q44 0 118.5 74.5t149.5 194.5q74 121 117.5 253t46.5 248q95 -3 225 37l19 -22l-86 -289l-82 -317q-29 -99 -29 -148q0 -10 8.5 -17 t20.5 -7q49 0 112 51l46 35l20 -58q-18 -13 -30 -22t-16 -11.5t-10 -7t-16 -12.5q-94 -71 -174 -116.5t-112 -45.5q-31 0 -50.5 24.5t-19.5 63.5q0 48 33 166l65 240q-152 -239 -290.5 -366.5t-247.5 -127.5q-40 0 -65 32.5t-25 84.5q0 50 26 151q16 60 43 162 q70 266 70 330q0 33 -35 33q-33 0 -68 -21l-73 -43zM497.5 1288q-8.5 20 2.5 51q14 38 51.5 65.5t77.5 27.5q24 0 42.5 -14.5t39.5 -47.5l180 -309h-100l-252 182q-33 25 -41.5 45z" />
<glyph unicode="&#xfa;" d="M45 748l162 110q154 103 237 103q26 0 41 -19t15 -53q0 -43 -10 -93t-50 -208l-71 -281q-21 -89 -21 -135q0 -12 9.5 -19.5t23.5 -7.5q44 0 118.5 74.5t149.5 194.5q74 121 117.5 253t46.5 248q95 -3 225 37l19 -22l-86 -289l-82 -317q-29 -99 -29 -148q0 -10 8.5 -17 t20.5 -7q49 0 112 51l46 35l20 -58q-18 -13 -30 -22t-16 -11.5t-10 -7t-16 -12.5q-94 -71 -174 -116.5t-112 -45.5q-31 0 -50.5 24.5t-19.5 63.5q0 48 33 166l65 240q-152 -239 -290.5 -366.5t-247.5 -127.5q-40 0 -65 32.5t-25 84.5q0 50 26 151q16 60 43 162 q70 266 70 330q0 33 -35 33q-33 0 -68 -21l-73 -43zM449 1061l288 309q59 62 105 62q40 0 68 -27.5t28 -65.5q0 -31 -15.5 -51t-58.5 -45l-315 -182h-100z" />
<glyph unicode="&#xfb;" d="M45 748l162 110q154 103 237 103q26 0 41 -19t15 -53q0 -43 -10 -93t-50 -208l-71 -281q-21 -89 -21 -135q0 -12 9.5 -19.5t23.5 -7.5q44 0 118.5 74.5t149.5 194.5q74 121 117.5 253t46.5 248q95 -3 225 37l19 -22l-86 -289l-82 -317q-29 -99 -29 -148q0 -10 8.5 -17 t20.5 -7q49 0 112 51l46 35l20 -58q-18 -13 -30 -22t-16 -11.5t-10 -7t-16 -12.5q-94 -71 -174 -116.5t-112 -45.5q-31 0 -50.5 24.5t-19.5 63.5q0 48 33 166l65 240q-152 -239 -290.5 -366.5t-247.5 -127.5q-40 0 -65 32.5t-25 84.5q0 50 26 151q16 60 43 162 q70 266 70 330q0 33 -35 33q-33 0 -68 -21l-73 -43zM319 1069l328 356h166l176 -356h-104l-180 195l-269 -195h-117z" />
<glyph unicode="&#xfc;" d="M45 748l162 110q154 103 237 103q26 0 41 -19t15 -53q0 -43 -10 -93t-50 -208l-71 -281q-21 -89 -21 -135q0 -12 9.5 -19.5t23.5 -7.5q44 0 118.5 74.5t149.5 194.5q74 121 117.5 253t46.5 248q95 -3 225 37l19 -22l-86 -289l-82 -317q-29 -99 -29 -148q0 -10 8.5 -17 t20.5 -7q49 0 112 51l46 35l20 -58q-18 -13 -30 -22t-16 -11.5t-10 -7t-16 -12.5q-94 -71 -174 -116.5t-112 -45.5q-31 0 -50.5 24.5t-19.5 63.5q0 48 33 166l65 240q-152 -239 -290.5 -366.5t-247.5 -127.5q-40 0 -65 32.5t-25 84.5q0 50 26 151q16 60 43 162 q70 266 70 330q0 33 -35 33q-33 0 -68 -21l-73 -43zM348 1231q0 63 40 107t97 44q51 0 83 -34t32 -88q0 -63 -40 -104.5t-101 -41.5q-51 0 -81 31.5t-30 85.5zM784 1231q0 63 40.5 107t97.5 44q51 0 82.5 -34t31.5 -88q0 -63 -40 -104.5t-101 -41.5q-51 0 -81 31.5t-30 85.5 z" />
<glyph unicode="&#xfd;" d="M27 731l163 127q61 46 118.5 74.5t92.5 28.5q37 0 58.5 -35t21.5 -95q0 -68 -10 -163l-39 -334q-8 -68 -8 -113q0 -84 35 -84q46 0 117 78t135 199q63 118 103.5 256.5t43.5 244.5q95 -3 225 37l25 -24q-55 -119 -172 -549q-81 -295 -121 -402t-117 -227 q-89 -141 -211 -223t-243 -82q-54 0 -99.5 24.5t-70.5 65.5q-23 43 -31 109l127 82l37 -13q-2 -14 -2 -39q0 -64 33.5 -99.5t93.5 -35.5q100 0 175.5 113.5t135.5 355.5l84 340q-59 -104 -101.5 -159.5t-103.5 -108.5q-131 -115 -221 -115q-41 0 -68.5 51t-27.5 127 q0 48 12 174l39 373q2 12 2 29q0 39 -37 39q-59 0 -166 -84zM475 1061l289 309q59 62 104 62q40 0 68.5 -27.5t28.5 -65.5q0 -31 -15.5 -51t-58.5 -45l-316 -182h-100z" />
<glyph unicode="&#xfe;" d="M-43 -541q90 294 117 435l254 1327q6 35 6 61q0 53 -70 53h-92l14 58q280 42 406 94l20 -19l-211 -954q100 153 177.5 239t164.5 142q106 66 195 66q119 0 119 -203q0 -183 -59.5 -343.5t-159.5 -246.5q-58 -49 -129 -98t-113 -70q-78 -35 -176 -35q-50 0 -115 15 q-56 -220 -74 -310t-24 -182q-69 -8 -164 -29q-13 -3 -32 -7.5t-34 -6.5zM330 121q96 -55 192 -55q49 0 92 28.5t72 81.5q57 101 97 250t40 256q0 119 -57 119t-133 -65t-148 -175q-51 -78 -76.5 -140.5t-50.5 -172.5z" />
<glyph unicode="&#xff;" d="M27 731l163 127q61 46 118.5 74.5t92.5 28.5q37 0 58.5 -35t21.5 -95q0 -68 -10 -163l-39 -334q-8 -68 -8 -113q0 -84 35 -84q46 0 117 78t135 199q63 118 103.5 256.5t43.5 244.5q95 -3 225 37l25 -24q-55 -119 -172 -549q-81 -295 -121 -402t-117 -227 q-89 -141 -211 -223t-243 -82q-54 0 -99.5 24.5t-70.5 65.5q-23 43 -31 109l127 82l37 -13q-2 -14 -2 -39q0 -64 33.5 -99.5t93.5 -35.5q100 0 175.5 113.5t135.5 355.5l84 340q-59 -104 -101.5 -159.5t-103.5 -108.5q-131 -115 -221 -115q-41 0 -68.5 51t-27.5 127 q0 48 12 174l39 373q2 12 2 29q0 39 -37 39q-59 0 -166 -84zM375 1231q0 63 40 107t97 44q51 0 83 -34t32 -88q0 -63 -40.5 -104.5t-101.5 -41.5q-51 0 -80.5 31.5t-29.5 85.5zM811 1231q0 63 40 107t97 44q51 0 83 -34t32 -88q0 -63 -40 -104.5t-101 -41.5q-51 0 -81 31.5 t-30 85.5z" />
<glyph unicode="&#x152;" horiz-adv-x="1933" d="M80 575q0 236 97 430.5t266.5 306t375.5 111.5q126 0 221 -39q56 -22 93 -51t84 -88l24 150q126 -6 256 -6q45 0 136 3t136 3h179l20 -19l-51 -311h-66v109q0 73 -14 90q-17 17 -135 24q-10 0 -66 5t-96 5q-6 0 -100 -8l-97 -516h115l287 6l10 -18l-29 -96l-348 10h-51 l-102 -561q59 -13 118 -13q87 0 195 6.5t135 12.5q32 7 50.5 26t29.5 54l45 143h74q-33 -133 -70 -350h-1h-1h-1h-1h-1h-1h-1h-1h-1h-1h-1h-1h-1h-1h-1h-1h-1h-1h-1h-1h-1h-1h-1h-1h-1h-1h-1h-2h-1h-1h-1h-1h-1h-2h-1h-1h-1h-2h-1h-1h-2h-1h-1h-2h-1h-2h-1h-1h-2h-1h-2h-1 h-2h-1h-2h-2h-1h-2h-1h-2h-2h-2h-1h-2h-2h-1h-2h-2h-2h-2h-1h-2h-2h-2h-2h-2h-2h-2h-2h-2h-2h-2h-2h-2h-2h-2h-2h-3h-2h-2h-2h-3h-2h-2h-3h-2h-2h-3h-2h-3h-2h-3h-2h-3h-3h-2h-3h-3h-3h-3h-3h-3h-3h-3h-4h-3h-4h-4h-4h-4h-5h-5h-7h-7l68 1q-100 5 -331 5q-159 0 -315 -6 l31 135q-98 -89 -191 -126.5t-213 -37.5q-277 0 -415 191q-54 75 -84.5 185.5t-30.5 233.5zM332 541q0 -231 89 -355.5t255 -124.5q149 0 245.5 104t133.5 302l84 455q8 39 8 88q0 143 -88.5 230t-233.5 87q-210 0 -336 -182q-72 -105 -114.5 -267.5t-42.5 -336.5z" />
<glyph unicode="&#x153;" horiz-adv-x="1593" d="M98 272q0 129 33.5 253.5t87.5 191.5q85 105 222 174.5t261 69.5q72 0 137 -21t107 -59q24 -22 51 -66q116 80 194 113t152 33q95 0 149 -46.5t54 -126.5q0 -86 -50 -158.5t-144 -123.5q-66 -36 -147 -59.5t-216 -47.5q-12 -55 -12 -120q0 -88 39.5 -135.5t111.5 -47.5 q102 0 211 68l119 76l27 -58q-176 -122 -282 -169.5t-202 -47.5q-75 0 -136 33t-95 92q-118 -71 -195.5 -98t-166.5 -27q-152 0 -231 78t-79 229zM332 285q0 -106 47 -168t127 -62q112 0 186 125q43 74 73 203.5t30 245.5q0 241 -174 241q-77 0 -124 -42t-85 -146 q-37 -97 -58.5 -204.5t-21.5 -192.5zM997 457l113 26q100 23 172 107t72 176q0 43 -28.5 69.5t-72.5 26.5q-76 0 -130.5 -70t-94.5 -219z" />
<glyph unicode="&#x178;" horiz-adv-x="1251" d="M111 1270q64 44 184 143q39 10 57 10q85 0 150 -59q55 -49 104 -159.5t78 -250.5l74 -346q138 340 318 567t306 220l-12 -181q-51 -6 -115.5 -49t-121.5 -106q-100 -114 -206.5 -313t-123.5 -302l-2 -10l-4 -20t-6.5 -35.5t-12.5 -67.5t-20 -106q-6 -34 -6 -68 q0 -35 16 -49.5t59 -15.5l121 -6l-8 -72q-203 6 -334 6l-321 -6l8 72l100 6q51 3 65.5 28.5t44.5 162.5q0 5 1 7q2 10 11.5 50.5t14.5 63.5t10 57.5t5 60.5q0 31 -16 99.5t-33.5 127.5t-39.5 128.5t-24 76.5q-40 131 -101 210t-122 79q-57 0 -92 -21zM532 1665 q0 63 40.5 107.5t97.5 44.5q51 0 82.5 -34.5t31.5 -88.5q0 -63 -40 -104.5t-101 -41.5q-51 0 -81 31.5t-30 85.5zM969 1665q0 63 40 107.5t97 44.5q51 0 83 -34.5t32 -88.5q0 -63 -40.5 -104.5t-101.5 -41.5q-51 0 -80.5 31.5t-29.5 85.5z" />
<glyph unicode="&#x2c6;" horiz-adv-x="681" d="M178 1069l328 356h166l176 -356h-105l-180 195l-268 -195h-117z" />
<glyph unicode="&#x2dc;" horiz-adv-x="681" d="M193 1126q56 244 241 244q70 0 156 -39q103 -47 153 -47q34 0 56.5 19.5t44.5 66.5h84q-32 -124 -90 -184t-146 -60q-35 0 -65.5 8.5t-102.5 36.5q-113 46 -155 46q-31 0 -51.5 -19.5t-43.5 -71.5h-81z" />
<glyph unicode="&#x2000;" horiz-adv-x="960" />
<glyph unicode="&#x2001;" horiz-adv-x="1921" />
<glyph unicode="&#x2002;" horiz-adv-x="960" />
<glyph unicode="&#x2003;" horiz-adv-x="1921" />
<glyph unicode="&#x2004;" horiz-adv-x="640" />
<glyph unicode="&#x2005;" horiz-adv-x="480" />
<glyph unicode="&#x2006;" horiz-adv-x="320" />
<glyph unicode="&#x2007;" horiz-adv-x="320" />
<glyph unicode="&#x2008;" horiz-adv-x="240" />
<glyph unicode="&#x2009;" horiz-adv-x="384" />
<glyph unicode="&#x200a;" horiz-adv-x="106" />
<glyph unicode="&#x2010;" horiz-adv-x="796" d="M76 426q45 113 59 188q120 -12 299 -12l293 6l14 -18q-19 -30 -31 -66t-30 -118q-58 2 -138.5 6t-140.5 4q-196 0 -313 -8z" />
<glyph unicode="&#x2011;" horiz-adv-x="796" d="M76 426q45 113 59 188q120 -12 299 -12l293 6l14 -18q-19 -30 -31 -66t-30 -118q-58 2 -138.5 6t-140.5 4q-196 0 -313 -8z" />
<glyph unicode="&#x2012;" horiz-adv-x="796" d="M76 426q45 113 59 188q120 -12 299 -12l293 6l14 -18q-19 -30 -31 -66t-30 -118q-58 2 -138.5 6t-140.5 4q-196 0 -313 -8z" />
<glyph unicode="&#x2013;" horiz-adv-x="1024" d="M-25 438l25 140h1049l-25 -140h-1049z" />
<glyph unicode="&#x2014;" horiz-adv-x="2048" d="M-25 438l25 140h2073l-25 -140h-2073z" />
<glyph unicode="&#x2018;" horiz-adv-x="569" d="M133 911q90 175 164.5 290t163.5 216l102 58l33 -23q-141 -239 -186 -506q-30 -3 -66.5 -11t-56.5 -13.5t-67 -20.5t-58 -18z" />
<glyph unicode="&#x2019;" horiz-adv-x="569" d="M156 905q137 235 186 506q30 2 65.5 10t57.5 14t67 21t58 19l28 -29q-94 -179 -167 -293.5t-160 -212.5l-103 -57z" />
<glyph unicode="&#x201a;" horiz-adv-x="512" d="M-6 -258q69 108 119 247t61 247l250 61l27 -27l-107 -196q-44 -82 -114 -184.5t-91 -114.5l-114 -70z" />
<glyph unicode="&#x201c;" horiz-adv-x="1024" d="M133 911q90 175 164.5 290t163.5 216l102 58l33 -23q-141 -239 -186 -506q-30 -3 -66.5 -11t-56.5 -13.5t-67 -20.5t-58 -18zM584 911q90 176 164.5 291t162.5 215l103 58l33 -23q-142 -241 -187 -506q-30 -3 -66.5 -11t-56.5 -13.5t-67 -20.5t-58 -18z" />
<glyph unicode="&#x201d;" horiz-adv-x="1024" d="M150 905q137 235 186 506q30 2 65.5 10t57.5 14t67 21t58 19l28 -29q-94 -179 -167 -293.5t-160 -212.5l-103 -57zM600 905q137 235 186 506q30 2 65.5 10t57.5 14t67 21t58 19l29 -29q-93 -178 -167 -292.5t-161 -213.5l-102 -57z" />
<glyph unicode="&#x201e;" horiz-adv-x="1024" d="M-37 -258q69 108 119 247t61 247l250 61l27 -27l-107 -196q-44 -83 -114 -185t-90 -114l-115 -70zM412 -258q69 108 119 247t61 247l250 61l26 -27l-106 -196q-44 -82 -114 -184.5t-91 -114.5l-115 -70z" />
<glyph unicode="&#x2022;" horiz-adv-x="1241" d="M268 709q0 141 105 244.5t248 103.5q145 0 248.5 -103.5t103.5 -248.5t-103.5 -249t-246.5 -104q-148 0 -251.5 104.5t-103.5 252.5z" />
<glyph unicode="&#x2026;" horiz-adv-x="2048" d="M186 100q0 76 45 126t113 50q58 0 92.5 -35.5t34.5 -95.5q0 -77 -43 -128.5t-109 -51.5q-60 0 -96.5 37t-36.5 98zM868 100q0 76 45 126t113 50q58 0 92.5 -35.5t34.5 -95.5q0 -77 -43 -128.5t-109 -51.5q-60 0 -96.5 37t-36.5 98zM1550 100q0 76 45 126t113 50 q58 0 92.5 -35.5t34.5 -95.5q0 -77 -43 -128.5t-109 -51.5q-60 0 -96.5 37t-36.5 98z" />
<glyph unicode="&#x202f;" horiz-adv-x="384" />
<glyph unicode="&#x2039;" horiz-adv-x="681" d="M123 481v43q172 153 430 389l45 -41l-258 -374l178 -381l-51 -29z" />
<glyph unicode="&#x203a;" horiz-adv-x="681" d="M72 123l258 375l-178 381l51 28l344 -393v-43q-172 -153 -430 -389z" />
<glyph unicode="&#x205f;" horiz-adv-x="480" />
<glyph unicode="&#x20ac;" horiz-adv-x="1024" d="M104 514l66 123q24 -4 33 -4h76l20 115q-80 0 -145 -7l63 123q28 -4 39 -4h78q31 98 79.5 181t121 155.5t176.5 114t229 41.5q80 0 171 -23.5t140 -66.5l9 -23q-40 -88 -89 -248h-79l26 178q-26 34 -78 57t-125 23q-65 0 -121 -32.5t-97.5 -89.5t-71.5 -123t-52 -144 q412 0 453 4l-61 -123q-72 7 -420 7q-3 -17 -8 -38t-7 -32l-8 -45q342 0 385 4l-65 -123q-58 6 -332 6q-5 -63 -7 -126.5t10.5 -122t34 -104t64 -72.5t99.5 -27q140 0 227 79l37 179h80q-9 -184 -2 -252l-17 -23q-62 -42 -159.5 -64t-180.5 -22q-108 0 -189.5 32.5 t-129 85.5t-75.5 127t-35 149.5t-1 160.5q-104 0 -162 -6z" />
<glyph unicode="&#x2122;" horiz-adv-x="2109" d="M322 1194l26 190q2 1 12 11q119 -4 357 -4q237 0 356 4q2 -2 6 -5.5t6 -5.5l-34 -190h-58l2 96q0 35 -65 35h-127l-101 -559q-4 -24 -4 -37q0 -12 9.5 -19.5t23.5 -7.5l76 -4q0 -9 -4.5 -26t-5.5 -25q-68 4 -207 4q-129 0 -195 -4l8 51l66 4q13 1 22.5 8.5t15.5 26t8 28 t7 34.5l90 526h-137q-39 0 -61 -22q-7 -9 -17 -39l-16 -70h-59zM1020 647l2 51l55 4q27 2 39 54l141 493q9 30 9 64q0 17 -15.5 22.5t-44.5 7.5l-57 3l6 49q45 -4 137 -4q99 0 148 4l164 -527q222 315 350 527q47 -4 141 -4q96 0 143 4l-8 -49l-47 -3q-22 -3 -36 -22.5 t-17 -44.5l-86 -500l-2 -8q-4 -28 -4 -39q0 -12 9 -19.5t21 -7.5l70 -4l-8 -51q-61 4 -188 4t-193 -4l8 51l60 4q29 6 36 43q2 2 2 11q3 3 3 10l79 473l-313 -467l-86 -139h-47l-178 571l-109 -430q-8 -32 -8 -45q0 -27 37 -27l63 -4l-6 -51q-45 4 -135 4t-135 -4z" />
<glyph unicode="&#xe000;" horiz-adv-x="962" d="M0 0v963h963v-963h-963z" />
</font>
</defs>
</svg>
