<?xml version="1.0" standalone="no"?>
<!DOCTYPE svg PUBLIC "-//W3C//DTD SVG 1.1//EN" "http://www.w3.org/Graphics/SVG/1.1/DTD/svg11.dtd" >
<svg xmlns="http://www.w3.org/2000/svg">
<metadata></metadata>
<defs>
<font id="texgyrepagellaitalic" horiz-adv-x="1024" >
<font-face units-per-em="2048" ascent="1501" descent="-547" />
<missing-glyph horiz-adv-x="512" />
<glyph unicode="&#xfb01;" horiz-adv-x="1081" d="M-332 -549q8 14 24.5 72t22.5 92l29 8q26 -34 48.5 -46.5t57.5 -12.5q114 0 173 184q72 226 182 922l18 114h-166l11 45q73 26 176 76l30 162q17 88 38 138.5t55 84.5q46 49 129 117t110 80q31 14 72 14q37 0 90 -18q-18 -53 -43 -183l-25 -6q-32 84 -102 84 q-54 0 -96.5 -66.5t-65.5 -187.5l-43 -229l182 -10q40 -2 89.5 13.5t140.5 57.5q70 31 86 31q14 0 22.5 -18.5t8.5 -50.5q0 -33 -11 -87l-125 -610q-10 -44 -10 -69q0 -41 25 -41q39 0 98 43l70 53l18 -41q-230 -184 -309 -184q-34 0 -52 22.5t-18 63.5q0 38 13 98l120 561 l2 4q0 8 7.5 33t7.5 41q0 20 -11 32.5t-28 12.5q-11 0 -55 -19l-107 -47h-184l-39 -180q-118 -550 -173 -726t-147 -284q-60 -72 -135.5 -115.5t-138.5 -43.5q-43 0 -72 16zM836 1321q0 -38 21 -61t58 -23q47 0 80 39.5t33 97.5q0 34 -22.5 59t-53.5 25q-44 0 -80 -42.5 t-36 -94.5z" />
<glyph unicode="&#xfb02;" horiz-adv-x="1116" d="M-332 -549q8 14 24.5 72t22.5 92l29 8q26 -34 48.5 -46.5t57.5 -12.5q114 0 173 184q72 226 182 922l18 114h-166l11 45q73 26 176 76l30 162q17 87 38 137.5t55 85.5q37 37 132.5 108.5t131.5 88.5q31 14 76 14q28 0 77 -16l-14 -58q140 3 262 74l33 -16l-252 -1178 q-20 -94 -20 -145q0 -47 32 -47q31 0 82 37l99 69l18 -43l-72 -53q-125 -92 -171.5 -117.5t-92.5 -25.5q-59 0 -59 79q0 41 26 158l172 817q30 144 36 181.5t9 97.5q0 31 -12 45q-14 18 -67 18h-33l-12 -84h-21q-27 76 -113 76q-72 0 -112.5 -56t-65.5 -190l-43 -229h33 q120 0 186 18l9 -14q-23 -55 -35 -115h-213q-7 -38 -21 -99.5t-18 -80.5q-80 -381 -125 -558.5t-87.5 -276.5t-107.5 -175q-60 -72 -135.5 -115.5t-138.5 -43.5q-43 0 -72 16z" />
<glyph unicode="&#xfb03;" horiz-adv-x="1548" d="M-332 -549q8 14 24.5 72t22.5 92l29 8q26 -34 48.5 -46.5t57.5 -12.5q114 0 173 184q72 226 182 922l18 114h-166l11 45q73 26 176 76l30 162q17 88 38 138.5t55 84.5q35 37 131 108.5t133 88.5q28 14 71 14q87 0 144 -26l-58 -168l-20 -9q-23 37 -62.5 58.5t-84.5 21.5 q-71 0 -115.5 -61t-69.5 -193l-43 -229h340v3q1 1 2 10l31 159q17 89 38 139.5t54 83.5q46 48 129.5 116.5t110.5 80.5q32 14 71 14q38 0 91 -18q-18 -53 -43 -183l-25 -6q-32 84 -102 84q-54 0 -96.5 -66.5t-65.5 -187.5l-43 -229l182 -10q40 -2 88.5 13.5t140.5 57.5 q70 31 86 31q14 0 22.5 -18.5t8.5 -50.5q0 -38 -10 -87l-125 -610q-10 -44 -10 -69q0 -41 24 -41q40 0 99 43l69 53l19 -41q-230 -184 -310 -184q-69 0 -69 86q0 43 12 98l121 561q3 6 9.5 38.5t6.5 39.5q0 20 -11 32.5t-28 12.5q-11 0 -55 -19l-106 -47h-185l-39 -180 q-51 -237 -81 -369t-60.5 -250t-56.5 -181.5t-54 -113.5t-67 -96q-60 -72 -136 -115.5t-139 -43.5q-42 0 -71 16q8 14 24.5 72t22.5 92l29 8q26 -34 48.5 -46.5t57.5 -12.5q113 0 172 184q72 226 182 922l19 114h-342q-7 -38 -21 -99.5t-18 -80.5q-80 -381 -125 -558.5 t-87.5 -276.5t-107.5 -175q-60 -72 -135.5 -115.5t-138.5 -43.5q-43 0 -72 16zM1327 1321q0 -38 21.5 -61t58.5 -23q47 0 80 39.5t33 97.5q0 34 -22.5 59t-53.5 25q-44 0 -80.5 -42.5t-36.5 -94.5z" />
<glyph unicode="&#xfb04;" horiz-adv-x="1611" d="M-332 -549q8 14 24.5 72t22.5 92l29 8q26 -34 48.5 -46.5t57.5 -12.5q114 0 173 184q72 226 182 922l18 114h-166l11 45q73 26 176 76l30 162q17 88 38 138.5t55 84.5q35 37 131 108.5t133 88.5q28 14 71 14q87 0 144 -26l-58 -168l-20 -9q-23 37 -62.5 58.5t-84.5 21.5 q-71 0 -115.5 -61t-69.5 -193l-43 -229h340v3q1 1 2 10l31 159q17 88 37.5 138t54.5 85q37 37 132.5 108.5t131.5 88.5q32 14 76 14q29 0 78 -16l-14 -58q140 3 262 74l32 -16l-251 -1178q-21 -99 -21 -145q0 -47 33 -47q31 0 82 37l98 69l19 -43l-72 -53 q-125 -92 -171.5 -117.5t-92.5 -25.5q-60 0 -60 79q0 37 27 158l172 817q30 144 36 181.5t9 97.5q-9 37 -25 50t-55 13h-33l-12 -84h-20q-27 76 -113 76q-72 0 -112.5 -56t-65.5 -190l-43 -229h33q120 0 186 18l8 -14q-23 -55 -35 -115h-213q-7 -38 -21 -99.5t-18 -80.5 q-81 -382 -125.5 -558.5t-86.5 -276t-107 -175.5q-60 -72 -136 -115.5t-139 -43.5q-42 0 -71 16q8 14 24.5 72t22.5 92l29 8q26 -34 48.5 -46.5t57.5 -12.5q113 0 172 184q72 226 182 922l19 114h-342q-7 -38 -21 -99.5t-18 -80.5q-80 -381 -125 -558.5t-87.5 -276.5 t-107.5 -175q-60 -72 -135.5 -115.5t-138.5 -43.5q-43 0 -72 16z" />
<glyph horiz-adv-x="2048" />
<glyph horiz-adv-x="2048" />
<glyph unicode="&#xd;" horiz-adv-x="2048" />
<glyph unicode=" "  horiz-adv-x="512" />
<glyph unicode="&#x09;" horiz-adv-x="512" />
<glyph unicode="&#xa0;" horiz-adv-x="512" />
<glyph unicode="!" horiz-adv-x="681" d="M156 80q0 59 36 101t87 42q38 0 65 -28.5t27 -69.5q0 -57 -37 -99t-88 -42q-41 0 -65.5 26t-24.5 70zM272 397l43 316l72 590l14 145l174 53l23 -18l-252 -1057l-61 -35z" />
<glyph unicode="&#x22;" d="M287 1040l127 383q24 78 92 78q35 0 59.5 -23t24.5 -57q0 -42 -19 -67l-223 -314h-61zM629 1040l127 383q24 78 92 78q35 0 59.5 -23t24.5 -57q0 -42 -19 -67l-223 -314h-61z" />
<glyph unicode="#" d="M8 465v115h238l43 286h-226v115h242l64 436h118l-63 -436h272l62 436h119l-62 -436h199v-115h-215l-41 -286h205v-115h-224l-63 -465h-119l64 465h-275l-67 -465h-119l67 465h-219zM365 580h274l41 286h-272z" />
<glyph unicode="$" d="M31 61q28 122 45 297h53v-184q37 -43 91.5 -68t144.5 -40l90 559q-169 37 -238.5 103.5t-69.5 191.5q0 202 168 335q51 42 105 66.5t153 52.5l19 127h76l-21 -123q91 -2 155 -17.5t120 -51.5l4 -21q-38 -145 -52 -235h-49v147q-31 34 -83 57t-111 29l-84 -526 q103 -17 158 -37t96 -55q88 -73 88 -209q0 -111 -59 -213.5t-166 -175.5q-60 -41 -112 -61t-132 -32l-29 -208h-84l41 206q-138 15 -206 33.5t-111 52.5zM285 983q0 -85 45 -133.5t149 -77.5l82 514q-52 -2 -84 -11.5t-67 -35.5q-57 -40 -91 -109.5t-34 -146.5zM434 66 q57 3 93 14.5t75 40.5q63 46 99 119t36 155q0 95 -47 143.5t-168 77.5z" />
<glyph unicode="%" horiz-adv-x="1820" d="M152 1069q0 145 111 254t257 109q117 0 194 -80t77 -201q0 -158 -101.5 -266.5t-249.5 -108.5q-124 0 -206 83.5t-82 209.5zM295 1022q0 -92 38.5 -145.5t104.5 -53.5q90 0 152 105q29 52 47 129t18 149q0 85 -35.5 131.5t-99.5 46.5q-95 0 -160 -104t-65 -258zM422 -14 l868 1468h90l-874 -1468h-84zM1018 293q0 145 111 253.5t257 108.5q117 0 194 -79.5t77 -200.5q0 -158 -101 -266.5t-249 -108.5q-124 0 -206.5 83.5t-82.5 209.5zM1161 246q0 -92 39 -145.5t105 -53.5q89 0 151 105q29 53 47.5 129.5t18.5 148.5q0 85 -35.5 131.5 t-100.5 46.5q-95 0 -160 -104t-65 -258z" />
<glyph unicode="&#x26;" horiz-adv-x="1593" d="M96 354q0 184 123 289q55 49 117.5 81t187.5 75q-86 40 -124 88t-38 117q0 104 93.5 212t234.5 168q73 33 164 33q103 0 199 -51l-54 -244h-47v127q-101 66 -184 66q-107 0 -182.5 -71.5t-75.5 -174.5q0 -141 141 -192q32 -12 58.5 -15.5t87.5 -3.5q-41 -82 -41 -98v-4 h-74q-184 0 -300 -100.5t-116 -258.5q0 -151 115 -244.5t301 -93.5q123 0 233 48.5t175 129.5t65 171q0 82 -51 132t-133 50q-72 0 -103.5 -34t-54.5 -136l-47 4l16 203q47 46 95.5 65.5t160.5 38.5l228 37q118 19 174.5 59.5t56.5 106.5q0 38 -16 59.5t-62 46.5l43 33 q58 -28 82.5 -65t24.5 -99q0 -101 -68.5 -168t-189.5 -84l-174 -24l34 -4q49 -6 88 -59t39 -113q0 -110 -93.5 -220t-256.5 -192q-74 -37 -171.5 -59.5t-188.5 -22.5q-226 0 -359 105.5t-133 285.5z" />
<glyph unicode="'" horiz-adv-x="681" d="M287 1040l127 383q24 78 92 78q35 0 59.5 -23t24.5 -57q0 -42 -19 -67l-223 -314h-61z" />
<glyph unicode="(" horiz-adv-x="681" d="M111 526q0 304 174 578q63 99 136 182.5t210 214.5l47 -43q-141 -161 -209 -264.5t-119 -232.5q-92 -238 -92 -531q0 -305 98 -508l54 -112l-45 -27q-95 154 -139 243.5t-72 186.5q-43 153 -43 313z" />
<glyph unicode=")" horiz-adv-x="681" d="M4 -174q140 160 208.5 264t119.5 234q92 238 92 530q0 305 -98 508l-54 113l45 26q95 -154 139 -243.5t72 -186.5q43 -153 43 -313q0 -306 -176 -578q-61 -97 -133.5 -180t-210.5 -217z" />
<glyph unicode="*" horiz-adv-x="796" d="M156 1245l67 117h21l213 -215l45 289l20 10l129 -37v-16l-145 -269l287 52l14 -11l12 -118l-12 -13l-297 39l133 -246l-8 -16l-119 -57l-14 8l-45 291l-219 -199h-25l-53 117l8 14l260 115l-262 127z" />
<glyph unicode="+" horiz-adv-x="1241" d="M82 455v114h481v482h115v-482h481v-114h-481v-482h-115v482h-481z" />
<glyph unicode="," horiz-adv-x="512" d="M16 -272q62 79 104 171.5t75 227.5l16 66l186 59l19 -27q-97 -225 -314 -491l-71 -27z" />
<glyph unicode="-" horiz-adv-x="681" d="M39 457l39 118h545l-37 -118h-547z" />
<glyph unicode="." horiz-adv-x="512" d="M109 86q0 59 35.5 101t86.5 42q38 0 65.5 -28.5t27.5 -69.5q0 -57 -37 -99t-88 -42q-41 0 -65.5 26t-24.5 70z" />
<glyph unicode="/" horiz-adv-x="606" d="M-82 -244l762 1745h123l-762 -1745h-123z" />
<glyph unicode="0" d="M74 473q0 210 54 414t144 336q144 209 359 209q163 0 257.5 -127t94.5 -347q0 -189 -44.5 -381t-119.5 -329q-148 -271 -393 -271q-169 0 -260.5 129t-91.5 367zM229 365q0 -328 205 -328q92 0 161 75t124 238q46 133 77 329t31 349q0 344 -209 344q-109 0 -181.5 -98.5 t-129.5 -321.5q-78 -315 -78 -587z" />
<glyph unicode="1" d="M111 -6l10 55l174 21q48 6 67 33t31 106l176 1079q-31 -12 -55 -19t-54.5 -19.5t-101.5 -47.5l-172 -84l-14 10l23 121l49 13q204 51 286 86l205 84l31 -23l-49 -235l-152 -895q-16 -98 -16 -123q0 -54 25 -74t96 -25l145 -8l-10 -55q-173 6 -346 6t-348 -6z" />
<glyph unicode="2" d="M25 -6v37l100 106q221 232 389 449q99 128 153 254.5t54 230.5q0 101 -63 164t-164 63q-88 0 -153 -49t-140 -172l-45 19l123 245q67 49 129.5 70t140.5 21q158 0 252 -89.5t94 -240.5q0 -106 -47.5 -216.5t-134.5 -205.5l-506 -551h430q100 0 235 23l13 -17l-35 -141 q-206 6 -412 6q-207 0 -413 -6z" />
<glyph unicode="3" d="M45 68l57 297l50 -11q-9 -73 -9 -88q0 -101 67.5 -160t184.5 -59q128 0 213 88q62 63 96.5 150.5t34.5 181.5q0 130 -72.5 202t-203.5 72q-72 0 -160 -32l-12 24l37 88q32 0 90 -4q132 -6 225.5 83.5t93.5 215.5q0 86 -56.5 138.5t-150.5 52.5q-67 0 -113 -25t-106 -94 l-43 -49l-39 26l119 203q139 64 238 64q139 0 226 -74t87 -193q0 -110 -68 -192.5t-229 -167.5q83 -20 126 -37.5t81 -44.5q106 -81 106 -242q0 -137 -76 -253t-206.5 -183.5t-284.5 -67.5q-91 0 -160.5 21t-142.5 70z" />
<glyph unicode="4" d="M31 393v64l690 944l141 31l17 -11l-170 -913h262l8 -10l-33 -113q-105 6 -108 6h-150l-18 -108q-19 -114 -19 -172q0 -19 16.5 -27.5t57.5 -13.5l178 -21l-10 -55q-169 6 -338 6q-171 0 -340 -6l10 55l176 21q52 6 73.5 28.5t33.5 85.5l41 209h-518zM154 508h415l138 764 z" />
<glyph unicode="5" d="M29 84q27 97 59 285l47 -11q-6 -49 -6 -79q0 -103 70 -165.5t184 -62.5q132 0 217 88q64 66 99.5 162.5t35.5 204.5q0 138 -66.5 214.5t-187.5 76.5q-70 0 -124 -27.5t-121 -95.5l-43 18l131 717l16 10l43 -2q250 -12 299 -12l246 6l65 2l13 -18l-72 -119 q-173 -10 -301 -10q-108 0 -248 10l-104 -494q119 107 284 107q158 0 252 -93.5t94 -250.5q0 -142 -77 -283q-72 -133 -202 -209t-286 -76q-96 0 -169.5 25t-147.5 82z" />
<glyph unicode="6" d="M100 410q0 203 70.5 397.5t202.5 355.5q114 140 231 204.5t258 64.5q46 0 99 -11l-33 -121h-17q-47 23 -72 30t-61 7q-101 0 -191 -64t-159 -186q-93 -161 -156 -450q95 117 179.5 167t187.5 50q131 0 205 -83t74 -232q0 -154 -72 -283q-68 -122 -189 -200.5t-243 -78.5 q-148 0 -231 115t-83 318zM256 356q0 -129 61 -206.5t162 -77.5q122 0 202.5 116.5t80.5 294.5q0 121 -58 189.5t-161 68.5q-125 0 -206 -109t-81 -276z" />
<glyph unicode="7" d="M109 10q53 81 206 326l570 919h-496q-33 0 -203 -10l-12 8q2 10 5.5 27t10.5 52.5t11.5 58t3.5 20.5q301 -6 604 -6q108 0 219 6v-74l-258 -415q-241 -387 -483 -928q-47 6 -78 6q-47 0 -90 -6z" />
<glyph unicode="8" d="M74 266q0 158 127 291q48 50 98.5 84.5t144.5 79.5q-106 60 -155 128.5t-49 154.5q0 104 65.5 204t170 162t212.5 62q125 0 199 -68.5t74 -183.5q0 -116 -65 -202t-241 -204q133 -73 180.5 -137t47.5 -170q0 -126 -69.5 -240t-185 -182t-243.5 -68q-141 0 -226 79 t-85 210zM229 303q0 -113 59 -176.5t165 -63.5q120 0 197 95t77 241q0 93 -35 147t-133 111l-59 35q-271 -142 -271 -389zM379 1069q0 -67 38 -125t109 -98l70 -39q225 144 225 332q0 93 -54.5 150t-143.5 57q-104 0 -174 -79.5t-70 -197.5z" />
<glyph unicode="9" d="M66 227l43 17q47 -90 102 -129t133 -39q200 0 320 256q69 143 127 440q-91 -114 -168 -160.5t-174 -46.5q-137 0 -220.5 92t-83.5 244q0 105 40.5 203t107.5 170t158 115t188 43q157 0 238 -114t81 -333q0 -209 -60.5 -403t-170.5 -340q-95 -126 -209.5 -195.5 t-226.5 -69.5q-85 0 -162 39q-2 7 -3.5 13.5t-4.5 17.5t-6 23q-25 99 -49 157zM301 961q0 -135 60 -210t169 -75q119 0 196 103t77 261q0 135 -61 217t-162 82q-122 0 -200.5 -106.5t-78.5 -271.5z" />
<glyph unicode=":" horiz-adv-x="512" d="M90 86q0 59 36 101t87 42q38 0 65 -28.5t27 -69.5q0 -57 -37 -99t-88 -42q-41 0 -65.5 26t-24.5 70zM209 795q0 59 36 101t87 42q38 0 65 -28.5t27 -69.5q0 -59 -36.5 -100.5t-88.5 -41.5q-41 0 -65.5 26.5t-24.5 70.5z" />
<glyph unicode=";" horiz-adv-x="512" d="M-18 -279q62 78 103 171t75 229l16 65l186 60l19 -27q-98 -228 -313 -491l-72 -27zM233 791q0 59 36 101t87 42q38 0 65.5 -28.5t27.5 -69.5q0 -59 -36.5 -100.5t-88.5 -41.5q-41 0 -66 26.5t-25 70.5z" />
<glyph unicode="&#x3c;" horiz-adv-x="1241" d="M139 461v102l938 447v-127l-780 -371l780 -371v-127z" />
<glyph unicode="=" horiz-adv-x="1241" d="M82 279v114h1077v-114h-1077zM82 633v115h1077v-115h-1077z" />
<glyph unicode="&#x3e;" horiz-adv-x="1241" d="M139 14v127l781 371l-781 371v127l938 -447v-102z" />
<glyph unicode="?" d="M233 80q0 59 36 101t87 42q38 0 65.5 -28.5t27.5 -69.5q0 -57 -37 -99t-88 -42q-41 0 -66 26t-25 70zM236 1169l81 201q68 41 121.5 58.5t114.5 17.5q144 0 232.5 -76t88.5 -199q0 -80 -36 -150.5t-115 -146.5l-213 -204q-58 -55 -80 -89.5t-22 -68.5q0 -46 55 -104 l-51 -13q-78 50 -78 129q0 54 26 107.5t86 120.5l144 161q117 132 117 238q0 75 -57.5 124.5t-145.5 49.5q-63 0 -102.5 -23t-79.5 -83l-41 -62z" />
<glyph unicode="@" horiz-adv-x="1529" d="M55 692q0 156 58 296t156.5 240.5t236.5 159t291 58.5q141 0 265.5 -46.5t214 -126.5t141.5 -191t52 -236q0 -235 -149 -393q-70 -75 -162 -122.5t-164 -47.5q-64 0 -102.5 47t-44.5 133q-75 -100 -126 -134t-124 -34q-114 0 -192 87.5t-78 215.5q0 114 63 222t165 174.5 t210 66.5q77 0 120 -41t62 -133l41 155h154l-162 -596q-4 -16 -4 -32q0 -32 18.5 -54t44.5 -22q33 0 85.5 30.5t97.5 75.5q78 82 120.5 184.5t42.5 211.5q0 141 -77.5 259.5t-212 186.5t-295.5 68q-137 0 -258.5 -50t-208 -136.5t-137 -207t-50.5 -255.5q0 -137 51 -257.5 t140 -207t213.5 -136t265.5 -49.5q219 0 389 133q46 35 79 70.5t79 101.5h96q-46 -79 -78 -121t-79 -85q-212 -191 -496 -191q-156 0 -295.5 56.5t-239.5 153.5t-158.5 232.5t-58.5 286.5zM483 532q0 -80 40 -134t98 -54q111 0 194 150q41 72 69.5 177t28.5 183 q0 68 -32.5 113t-83.5 45q-83 0 -152 -72q-72 -76 -117 -190t-45 -218z" />
<glyph unicode="A" horiz-adv-x="1478" d="M-39 -6v61l41 11q53 12 90 45t90 118l764 1215h94l179 -1280q9 -69 25.5 -84t88.5 -23l53 -6v-57q-123 6 -249 6q-124 0 -250 -6v57l90 6q88 6 88 56q0 9 -4 45l-55 409h-504l-209 -358q-53 -90 -53 -113q0 -14 18.5 -26t44.5 -13l107 -6v-57q-108 6 -220 6 q-115 0 -229 -6zM553 641h442l-75 590z" />
<glyph unicode="B" horiz-adv-x="1251" d="M53 -6l10 53q64 10 89 24t30 42l178 1032q19 116 19 155q0 53 -72 56l-108 4l6 57q153 -6 309 -6q51 0 153.5 3t153.5 3q81 0 154 -30.5t121.5 -93t48.5 -142.5q0 -155 -141 -281q-50 -41 -97.5 -66t-134.5 -56q107 -15 162 -32.5t94 -49.5q84 -69 84 -201 q0 -117 -65 -218t-187 -173q-135 -80 -291 -80q-55 0 -164 3t-165 3q-96 0 -187 -6zM340 84q53 -3 70 -6q91 -8 168 -8q154 0 254 102t100 260q0 133 -78 198.5t-236 65.5h-174zM457 770h106q190 0 298 91.5t108 252.5q0 227 -248 227q-27 0 -82 -5t-82 -5z" />
<glyph unicode="C" horiz-adv-x="1366" d="M92 582q0 471 363 716q220 148 479 148q174 0 399 -84q-41 -132 -55 -299h-55v172q-86 55 -171 78.5t-196 23.5q-245 0 -389 -147q-94 -95 -144.5 -240t-50.5 -317q0 -274 127.5 -417.5t370.5 -143.5q121 0 218 32t241 121l20 -14l-20 -74q-139 -95 -259 -134.5 t-268 -39.5q-294 0 -452 160.5t-158 458.5z" />
<glyph unicode="D" horiz-adv-x="1593" d="M57 -6l11 53q3 1 17.5 4.5t20 5t18 5.5t19 8.5t15 10.5t12.5 14t6 18l178 1032q19 116 19 155q0 53 -72 56l-108 4l6 57q126 -6 252 -6q69 0 208 3t209 3q137 0 266.5 -26.5t196.5 -75.5q187 -132 187 -432q0 -255 -138.5 -472.5t-378.5 -340.5q-80 -40 -162.5 -58 t-191.5 -18q-67 0 -200 3t-199 3q-96 0 -191 -6zM344 115q215 -31 330 -31q271 0 438 170q104 106 160.5 261t56.5 335q0 252 -132 371.5t-411 119.5q-40 0 -118.5 -5t-118.5 -5l-197 -1141q-8 -49 -8 -75z" />
<glyph unicode="E" horiz-adv-x="1251" d="M61 -6l11 53q67 10 92.5 24t30.5 42l178 1032q18 99 18 158q0 50 -72 53l-110 4l6 57q164 -6 328 -6q81 0 242 3t241 3q74 0 141 -6q-34 -115 -43 -311h-49l-16 182q-1 23 -60 36t-159 13q-85 -2 -267 -8q-9 -19 -18 -66l-86 -487h76l448 12l8 -14l-38 -92q-18 1 -33 2.5 t-29 2.5t-67 2t-142 1h-239l-88 -518q-5 -31 -5 -72q151 -14 269 -14q91 0 184 6t123 14q32 8 49.5 30.5t30.5 76.5l33 123h55q-34 -178 -43 -256l-8 -74q-11 0 -61 -3t-154 -3q-77 0 -230.5 3t-230.5 3q-160 0 -316 -6z" />
<glyph unicode="F" horiz-adv-x="1138" d="M0 -6l8 57l74 6q18 1 27.5 2t21.5 6t17 7.5t12.5 16t10.5 23t9 35.5t10 46.5t11 62.5l153 889q19 116 19 155q0 53 -72 56l-115 4l7 57q153 -6 311 -6q80 0 240.5 3t240.5 3q69 0 137 -6q-34 -115 -43 -311h-49l-16 182q-1 23 -58 36t-153 13q-206 -8 -252 -8 q-12 -28 -19 -66l-94 -555h76l449 13l8 -15l-39 -92q-18 1 -33 2.5t-28.5 2.5t-66.5 2t-142 1h-240l-74 -456q-4 -16 -4 -43q0 -31 16.5 -45t57.5 -15l131 -6l-6 -57q-141 6 -283 6q-131 0 -260 -6z" />
<glyph unicode="G" horiz-adv-x="1478" d="M102 561q0 230 93.5 417t273.5 316q111 78 228 115t257 37q106 0 203 -19t225 -65q-41 -132 -55 -299h-55v172q-86 55 -175 78.5t-208 23.5q-256 0 -404 -151q-98 -98 -150 -247.5t-52 -330.5q0 -272 130.5 -412.5t385.5 -140.5q83 0 148 15.5t134 52.5l37 190 q15 74 15 121q0 26 -11.5 37.5t-46 18t-114.5 10.5l-70 4l10 53q132 -6 264 -6q127 0 256 6l-4 -53l-65 -12q-20 -3 -36.5 -16t-19.5 -27l-47 -277q-1 -9 -1 -21q0 -24 5 -61l-8 -14q-42 -6 -115 -31q-122 -41 -214 -61.5t-189 -20.5q-301 0 -463 155.5t-162 442.5z" />
<glyph unicode="H" horiz-adv-x="1593" d="M-6 -6l8 57l84 6q24 2 35 3t24.5 10t18.5 17.5t13.5 35t13.5 53t14 80.5l151 889q19 120 19 155q0 53 -72 56l-96 4l6 57q144 -6 289 -6q116 0 233 6l-6 -57l-86 -6q-57 -5 -75.5 -22t-28.5 -77l-86 -467h757l62 357q18 110 18 155q0 53 -71 56l-99 4l6 57q144 -6 293 -6 q108 0 219 6l-6 -57l-73 -6q-58 -4 -76 -21.5t-29 -77.5l-188 -1065q-9 -52 -9 -71q0 -32 17 -46t57 -16l119 -6l-6 -57q-135 6 -270 6q-145 0 -289 -6l8 57l102 6q63 3 76 29q16 19 43 170l82 440q-230 6 -377 6l-377 -6l-86 -506q-8 -52 -8 -71q0 -32 16.5 -45.5 t57.5 -16.5l100 -6l-6 -57q-126 6 -252 6q-135 0 -270 -6z" />
<glyph unicode="I" horiz-adv-x="681" d="M14 -6l6 57l74 6q23 2 35.5 4t25 10.5t18.5 18.5t13.5 35.5t12.5 52t14 78.5l147 889q19 107 19 158q0 50 -72 53l-96 4l6 57q138 -6 279 -6q115 0 229 6l-6 -57l-72 -6q-59 -4 -76 -21t-28 -78l-183 -1095q-4 -20 -4 -43q0 -31 16.5 -44t57.5 -16l107 -6l-7 -57 q-129 6 -258 6t-258 -6z" />
<glyph unicode="J" horiz-adv-x="681" d="M-72 -348q21 -8 60 -8q142 0 188 313l195 1317q2 10 2 26q0 53 -72 56l-96 4l6 57q144 -6 289 -6q116 0 233 6l-6 -57l-86 -6q-58 -4 -76.5 -22t-27.5 -77l-175 -1144q-23 -162 -69 -271q-52 -124 -128 -193t-159 -69q-38 0 -72 21z" />
<glyph unicode="K" horiz-adv-x="1366" d="M27 -6l8 57l84 6q24 2 35 3t24.5 10t18.5 17.5t13.5 35t13.5 53t14 80.5l149 889q19 108 19 155q0 53 -72 56l-96 4l6 57q144 -6 288 -6q117 0 234 6l-6 -57l-86 -6q-57 -4 -75.5 -22t-29.5 -77l-92 -532q180 140 305 268l262 266q78 78 78 101v59q68 -6 138 -6 q68 0 139 6v-55h-43q-57 0 -111 -51l-598 -559l504 -619q63 -78 131 -78h41v-61q-67 6 -139 6t-142 -6q-163 222 -252 332t-317 370l-88 -536q-4 -16 -4 -43q0 -31 16.5 -44t57.5 -16l100 -6l-6 -57q-126 6 -252 6q-135 0 -270 -6z" />
<glyph unicode="L" horiz-adv-x="1138" d="M33 -6l10 53q67 10 92.5 24t30.5 42l176 1032q18 102 18 158q0 50 -71 53l-96 4l6 57q138 -6 276 -6q123 0 246 6l-6 -57l-86 -6q-57 -4 -75.5 -22t-29.5 -77l-188 -1089q-4 -25 -4 -72q148 -14 291 -14q90 0 183.5 6.5t111.5 15.5q28 11 55 109l35 127h63 q-21 -96 -35 -198q-13 -90 -12 -130v-10q-72 -6 -215 -6q-77 0 -230.5 3t-230.5 3q-159 0 -315 -6z" />
<glyph unicode="M" horiz-adv-x="1933" d="M-39 -6l6 53q84 7 118.5 35t57.5 108l297 1043q6 21 6 41q0 40 -31.5 58t-111.5 24l-53 4l6 57q82 -6 170 -6q86 0 172 6l307 -1184l504 865q61 105 95 165.5t42.5 77t17.5 36.5t19 40q82 -6 170 -6q87 0 172 6l-6 -57l-78 -4q-91 -6 -94 -64l-84 -1087l-2 -76 q-3 -63 111 -72l75 -6l-6 -57q-135 6 -272 6t-275 -6l6 57l64 6q80 8 107 23t30 57l76 1065l-107 -178l-489 -848l-117 -213h-47l-305 1184l-254 -950q-14 -52 -14 -84q0 -47 100 -56l78 -6l-6 -57q-111 6 -226 6t-229 -6z" />
<glyph unicode="N" horiz-adv-x="1593" d="M4 -6l10 57l64 6q55 4 73 30t37 122l181 971q10 30 10 61q0 12 -19 36.5t-43 43.5q-40 31 -102 35l-72 4l11 57q82 -6 165 -6q84 0 166 6l707 -1206l164 1001q10 68 10 95q0 25 -17 36.5t-57 12.5l-96 4l10 57q108 -6 215 -6q112 0 226 6l-11 -57l-75 -4q-22 -1 -33 -3 t-23.5 -12t-19 -22.5t-15 -43.5t-15 -66t-17.5 -99l-193 -1133h-102l-692 1182l-164 -950q-6 -34 -6 -62q0 -51 19 -68t81 -22l86 -6l-10 -57q-111 6 -226 6q-113 0 -227 -6z" />
<glyph unicode="O" horiz-adv-x="1593" d="M109 557q0 254 108.5 457t301 317.5t431.5 114.5q277 0 429.5 -151t152.5 -425q0 -243 -112 -453.5t-306 -330.5q-195 -123 -452 -123q-270 0 -411.5 152t-141.5 442zM289 567q0 -256 113.5 -387t334.5 -131q240 0 393 156q105 108 163.5 274t58.5 359q0 339 -199 456 q-109 66 -266 66q-232 0 -375 -146q-106 -106 -164.5 -276.5t-58.5 -370.5z" />
<glyph unicode="P" horiz-adv-x="1251" d="M18 -6l9 57l84 6q24 2 35.5 3t24 10.5t18 17.5t13.5 35.5t12.5 52.5t14.5 80l152 889q18 113 18 155q0 53 -71 56l-113 4l6 57q169 -6 340 -6q47 0 141.5 3t141.5 3q93 0 176 -33t140 -105.5t57 -170.5q0 -137 -67 -256.5t-180 -190.5t-243 -71q-45 0 -82.5 10t-93.5 37 l-4 63q100 -38 162 -38q135 0 231 117.5t96 283.5q0 142 -76 211t-233 69q-46 0 -145 -16q-3 -15 -8.5 -34t-6.5 -23l-18 -82l-168 -998q-8 -52 -8 -71q0 -32 16.5 -46.5t56.5 -15.5l134 -6l-7 -57q-141 6 -284 6q-136 0 -271 -6z" />
<glyph unicode="Q" horiz-adv-x="1593" d="M109 557q0 254 108.5 457t301 317.5t431.5 114.5q277 0 429.5 -151t152.5 -425q0 -243 -112 -453.5t-306 -330.5q-195 -123 -452 -123q-270 0 -411.5 152t-141.5 442zM258 -291v17q0 104 67 170q73 73 189 73q64 0 135 -28l484 -197q82 -31 127 -31q62 0 96 39.5 t43 122.5h51q-15 -150 -74 -218.5t-174 -68.5q-60 0 -103.5 14t-137.5 62l-297 156q-110 59 -197 59q-82 0 -120 -56t-38 -175l-49 26zM289 567q0 -256 113.5 -387t334.5 -131q240 0 393 156q105 108 163.5 274t58.5 359q0 339 -199 456q-109 66 -266 66q-232 0 -375 -146 q-106 -106 -164.5 -276.5t-58.5 -370.5z" />
<glyph unicode="R" horiz-adv-x="1366" d="M18 -6l9 57l84 6q24 2 35.5 3t24 10.5t18 17.5t13.5 35.5t12.5 52.5t14.5 80l154 889q18 110 18 155q0 53 -71 56l-115 4l6 57q153 -6 309 -6q51 0 154 3t154 3q88 0 168 -30t135 -93t55 -147q0 -192 -182 -324q-56 -40 -109.5 -61.5t-136.5 -36.5l377 -563 q43 -64 72.5 -84.5t91.5 -28.5v-55q-59 6 -119 6q-76 0 -152 -6q-118 200 -204 332.5t-287 425.5l6 22h90q160 0 266.5 96t106.5 242q0 114 -69.5 172.5t-203.5 58.5q-76 0 -155 -16l-15 -57l-18 -82l-174 -998q-8 -47 -8 -71q0 -31 16 -45t57 -17l101 -6l-6 -57 q-126 6 -252 6q-136 0 -271 -6z" />
<glyph unicode="S" horiz-adv-x="1138" d="M86 41q31 144 49 311h62v-202q68 -48 132 -68.5t146 -20.5q159 0 257.5 91.5t98.5 238.5q0 176 -165 215l-195 47q-129 31 -189.5 106.5t-60.5 205.5q0 180 129 309q83 82 192.5 127t223.5 45q136 0 270 -70q-40 -121 -51 -276h-61v155q-45 49 -100 71t-130 22 q-141 0 -233 -87t-92 -221q0 -101 47.5 -159t148.5 -80l133 -29q156 -34 225.5 -103t69.5 -190q0 -137 -81 -256.5t-217 -189.5t-292 -70q-161 0 -317 78z" />
<glyph unicode="T" horiz-adv-x="1251" d="M109 1081l36 336q289 -6 578 -6q287 0 577 6l-55 -336h-57l8 131q1 11 1 21q0 30 -9 55q-8 35 -240 35h-149l-193 -1133q-8 -43 -8 -71q0 -32 17 -46t57 -16l121 -6l-7 -57q-135 6 -272 6q-147 0 -291 -6l8 57l105 6q28 1 41.5 5t26 12t20 33.5t14.5 55.5t17 93l176 1067 h-230q-57 0 -106.5 -8t-58.5 -19q-22 -26 -37 -92l-31 -123h-59z" />
<glyph unicode="U" horiz-adv-x="1593" d="M180 1360l6 57q91 -6 185 -6q91 0 182 6l-180 -977q-15 -79 -15 -123q0 -110 76.5 -173.5t208.5 -63.5q264 0 496 282l145 912q6 42 -9.5 61.5t-60.5 20.5l-98 4l6 57q138 -6 281 -6q114 0 231 6l-6 -57l-74 -6q-58 -4 -76.5 -22t-27.5 -77l-174 -1038q-12 -78 -12 -115 q0 -20 15 -30t50 -13l123 -8l-10 -57q-86 6 -174 6q-92 0 -183 -6l-10 10q37 156 55 260q-79 -91 -139 -139t-153 -94q-140 -70 -273 -70q-172 0 -269 89t-97 247q0 57 12 125l131 768q14 82 14 119q0 26 -14.5 35.5t-54.5 11.5z" />
<glyph unicode="V" horiz-adv-x="1478" d="M154 1360v57q126 -6 254 -6t254 6v-57l-87 -4q-48 -2 -70 -18q-17 -13 -17 -42q0 -8 1 -18l146 -1081l596 1007q33 54 33 86q0 57 -117 66l-53 4v57q126 -6 254 -6q97 0 196 6v-57l-37 -4q-43 -4 -65.5 -23t-61.5 -82l-774 -1267h-100l-180 1273q-7 56 -30 74.5t-91 24.5 z" />
<glyph unicode="W" horiz-adv-x="1933" d="M145 1360v57q114 -6 228 -6q125 0 248 6v-57l-76 -4q-92 -6 -92 -84v-10l63 -992l459 934l106 230h37l324 -1172l301 946q18 55 18 101q0 44 -84 47l-80 4l11 57q99 -6 200 -6q100 0 199 6v-57l-41 -4q-68 -6 -88 -64l-350 -1038q-19 -55 -64 -217l-14 -53h-104 q-47 220 -80 331l-230 803l-458 -909q-64 -127 -103 -225h-102q-3 148 -17 340l-65 880q-6 88 -26 116.5t-83 35.5z" />
<glyph unicode="X" horiz-adv-x="1478" d="M41 -6v57l57 6q78 10 127 68l488 577l-299 553q-31 58 -61.5 76.5t-104.5 24.5l-53 4v57q135 -6 272 -6t272 6v-57l-75 -4q-89 -6 -89 -41q0 -18 29 -78l213 -408l330 402q47 57 47 86q0 19 -21 27.5t-71 11.5l-68 4v57q117 -6 236 -6q116 0 233 6v-57l-57 -4 q-40 -3 -64.5 -18.5t-68.5 -67.5l-453 -516l350 -629q22 -37 50 -51.5t90 -18.5l51 -4v-57q-135 6 -273 6t-276 -6v57q65 6 111 8q40 3 52.5 7t12.5 16q0 22 -29 82l-243 463l-373 -473q-21 -28 -21 -52q0 -18 26.5 -28.5t86.5 -16.5l66 -6v-57q-120 6 -244 6 q-127 0 -256 -6z" />
<glyph unicode="Y" horiz-adv-x="1366" d="M106 1325l162 119q96 -1 165 -74t133 -244t143 -491q85 225 262 463q113 153 205 226t206 103l-12 -145q-91 -15 -164 -67t-162 -166q-113 -141 -201 -300.5t-102 -244.5l-53 -344q-4 -20 -4 -43q0 -31 16.5 -44t57.5 -16l100 -6l-6 -57q-126 6 -252 6q-144 0 -285 -6 l9 57l98 6q24 2 35.5 3.5t24.5 10t18.5 18t13.5 35t13 53t14 79.5l45 270q0 25 -45.5 187.5t-81.5 263.5q-63 172 -122.5 247.5t-131.5 75.5q-29 0 -92 -24z" />
<glyph unicode="Z" horiz-adv-x="1366" d="M41 -6v45l1028 1296h-369q-218 0 -368 -26l-13 -41q-34 -109 -43 -176h-53q23 216 23 323l241 2q243 -6 486 -6q165 0 332 6v-41l-1033 -1296h576q127 0 260 26q6 15 11.5 27.5t9.5 22t15 43t30 92.5l14 45h53q-41 -213 -47 -342q-480 6 -659 6z" />
<glyph unicode="[" horiz-adv-x="681" d="M33 -195l104 584q126 747 158 1104l16 8q119 -4 178 -4l179 4v-57l-181 -14q-20 -1 -27.5 -13.5t-15.5 -50.5l-32 -174l-84 -518l-105 -703q-1 -4 -3 -17t-2.5 -17t-1.5 -14.5t0.5 -15t3.5 -12t6.5 -11t10.5 -8t15.5 -6.5t21.5 -3l162 -14l-14 -58q-15 1 -38 2t-75 3 t-80 1l-192 -6z" />
<glyph unicode="\" horiz-adv-x="1241" d="M166 1501h123l762 -1501h-123z" />
<glyph unicode="]" horiz-adv-x="681" d="M14 -147l181 14q20 1 27.5 13t15.5 50l32 174l136 865l24 172q2 15 18.5 107t16.5 138q0 38 -57 44l-162 14l10 57q15 -1 38 -2t75 -3t80 -1l192 6l4 -10l-104 -584q-124 -739 -158 -1104l-16 -8l-177 4l-176 -4v58z" />
<glyph unicode="^" horiz-adv-x="1241" d="M104 580l449 831h135l447 -831h-125l-389 704l-392 -704h-125z" />
<glyph unicode="_" d="M0 -154h1024v-102h-1024v102z" />
<glyph unicode="`" horiz-adv-x="681" d="M372 1304q-6 16 1 39q9 25 39 44.5t61 19.5t55 -37l203 -309h-69l-259 207q-25 20 -31 36z" />
<glyph unicode="a" horiz-adv-x="909" d="M8 135q0 123 43 288t111 302q39 76 94.5 127t151.5 98q75 37 153 37q73 0 174 -39l68 37l20 -18l-188 -777q-2 -6 -2 -20q0 -49 31 -49q23 0 49.5 16t77.5 58q5 4 26 22l14 -43q-129 -107 -197 -152t-102 -45q-23 0 -36 20.5t-13 55.5q0 45 13 105l59 260 q-159 -225 -283 -332q-126 -109 -194 -109q-29 0 -49.5 46t-20.5 112zM156 203q0 -82 37 -82q51 0 137.5 83.5t171.5 213.5q51 78 84 172t67 258q-111 39 -174 39q-75 0 -118 -33.5t-80 -122.5q-54 -127 -89.5 -278t-35.5 -250z" />
<glyph unicode="b" horiz-adv-x="948" d="M76 125q0 14 2 20l207 1129q4 24 4 49q0 26 -16.5 37.5t-53.5 11.5h-98l8 43q111 11 180 29t148 57l24 -22l-176 -815q94 120 157 178t142 100q88 45 168 45q49 0 72 -29q19 -23 31 -76t12 -112q0 -203 -92 -394.5t-240 -295.5q-66 -47 -138.5 -75t-129.5 -28 q-85 0 -148 44t-63 104zM229 207q0 -64 37.5 -98.5t108.5 -34.5q83 0 146 50.5t114 156.5q46 101 75 222t29 218q0 147 -80 147q-44 0 -113 -38t-120 -91q-62 -65 -101.5 -145.5t-68.5 -202.5q-27 -114 -27 -184z" />
<glyph unicode="c" horiz-adv-x="833" d="M51 279q0 164 53.5 310.5t141.5 223.5t186.5 125.5t167.5 48.5q121 0 197 -49q-27 -80 -49 -262h-48v123q0 37 -48 62.5t-117 25.5q-98 0 -160 -53q-74 -60 -121 -202.5t-47 -305.5q0 -244 174 -244q54 0 120.5 29.5t176.5 103.5l31 21l16 -41l-102 -84 q-85 -69 -162 -101.5t-160 -32.5q-123 0 -186.5 77t-63.5 225z" />
<glyph unicode="d" d="M35 176q0 130 28.5 263.5t75.5 222.5q71 134 196.5 229.5t231.5 95.5q70 0 168 -29l58 316q4 28 4 49q0 26 -16.5 37.5t-53.5 11.5h-98l8 43q111 11 180 29t148 57l24 -22l-258 -1217q-16 -79 -16 -94q0 -21 8 -34t20 -13q29 0 80 35l90 63l21 -39l-166 -123 q-110 -80 -154 -80q-26 0 -39.5 19.5t-13.5 52.5q0 80 33 209l47 186q-102 -154 -166.5 -231t-148.5 -145q-116 -91 -201 -91q-90 0 -90 199zM182 201q0 -80 51 -80q29 0 84 33t109 84q96 91 166 219t98 262l25 121q-91 47 -217 47q-79 0 -121 -31q-75 -59 -135 -260.5 t-60 -394.5z" />
<glyph unicode="e" horiz-adv-x="796" d="M31 229q0 107 39.5 261t85.5 229q62 98 200 183t238 85q78 0 125 -44t47 -116q0 -95 -61.5 -166.5t-192.5 -130.5q-91 -40 -141 -51l-168 -41q-17 -84 -17 -164q0 -94 41.5 -147t114.5 -53q115 0 281 119l49 34l16 -39q-143 -116 -237.5 -163.5t-182.5 -47.5 q-111 0 -174 67t-63 185zM213 485q131 29 223 72q79 38 128.5 104t49.5 134q0 49 -26.5 77.5t-71.5 28.5q-39 0 -83 -17.5t-73 -45.5q-80 -74 -129 -277z" />
<glyph unicode="f" horiz-adv-x="569" d="M-332 -549q8 14 24.5 72t22.5 92l29 8q26 -34 48.5 -46.5t57.5 -12.5q114 0 173 184q72 226 182 922l18 114h-166l11 45q73 26 176 76l30 162q17 88 38 138.5t55 84.5q35 37 131 108.5t133 88.5q28 14 71 14q87 0 144 -26l-10 -31l-48 -137l-20 -9q-23 37 -62.5 58.5 t-84.5 21.5q-71 0 -115.5 -61t-69.5 -193l-43 -229h33q81 0 109 2t63 12l14 4l9 -14q-23 -55 -35 -115h-213q-7 -38 -21 -99.5t-18 -80.5q-80 -381 -125 -558.5t-87.5 -276.5t-107.5 -175q-60 -72 -135.5 -115.5t-138.5 -43.5q-43 0 -72 16z" />
<glyph unicode="g" d="M-76 -326q0 62 28.5 120t80.5 100q57 47 117.5 77t177.5 68q-43 37 -43 67q0 45 55 97l84 78q-23 -2 -62 -2q-118 0 -183.5 66t-65.5 185q0 221 174 351q140 106 276 106q67 0 137 -26q38 -15 59 -34t46 -59q132 0 209 19l6 -13l-19 -92q-63 -8 -102 -8h-70l2 -6 q7 -36 7 -68q0 -137 -98 -250.5t-248 -150.5q-2 -3 -6 -7.5t-7 -8.5q-43 -54 -43 -78q0 -58 96 -133l123 -101q131 -107 131 -219q0 -83 -68 -156.5t-182.5 -117t-244.5 -43.5q-167 0 -267 65t-100 174zM55 -297q0 -94 79.5 -152.5t205.5 -58.5q128 0 219.5 57t91.5 136 q0 50 -30.5 95t-102.5 101l-158 121q-79 -24 -121 -43t-81 -51q-103 -86 -103 -205zM258 590q0 -121 48.5 -183.5t142.5 -62.5q107 0 174 98t67 256q0 220 -178 220q-113 0 -183.5 -91t-70.5 -237z" />
<glyph unicode="h" d="M20 4q34 100 87.5 333.5t93.5 457.5l86 479q4 28 4 49q0 26 -16.5 37.5t-53.5 11.5h-98l8 43q111 11 180 29t148 57l24 -22l-200 -936l41 51q79 98 114 136.5t86 80.5q96 81 183.5 128.5t140.5 47.5q28 0 43.5 -20t15.5 -54q0 -54 -22 -151l-131 -524q-15 -56 -15 -82 q0 -17 8 -29t19 -12q33 0 125 61l53 35l21 -37q-149 -111 -218.5 -151.5t-109.5 -40.5q-29 0 -45.5 21t-16.5 58q0 47 27 158l105 402q30 113 30 182q0 20 -12.5 32.5t-32.5 12.5q-65 0 -193.5 -120.5t-195.5 -244.5q-45 -83 -74 -188.5t-53 -280.5l-141 -32z" />
<glyph unicode="i" horiz-adv-x="569" d="M70 795l57 41q117 83 178.5 117t95.5 34q52 0 52 -53q0 -17 -13 -74l-157 -622q-15 -56 -15 -82q0 -17 8 -29t19 -12q34 0 125 61l53 35l21 -37q-150 -111 -219 -151.5t-109 -40.5q-29 0 -45.5 21t-16.5 58q0 59 27 158l135 492q17 66 17 90q0 19 -10 31t-25 12 q-27 0 -98 -47l-66 -43zM348 1208q0 53 36.5 95.5t82.5 42.5q32 0 53 -23.5t21 -60.5q0 -59 -32 -98.5t-79 -39.5q-38 0 -60 23t-22 61z" />
<glyph unicode="j" horiz-adv-x="569" d="M-143 -551l16 117q65 -39 109 -39q27 0 52.5 48.5t43.5 129.5l205 1014q14 63 14 82q0 20 -11 33.5t-26 13.5q-18 0 -53 -24t-43 -27l-66 -43l-14 41l57 41q116 83 178.5 117t96.5 34q51 0 51 -51q0 -24 -12 -76l-156 -717q-44 -200 -71 -297t-60 -170 q-111 -241 -234 -241q-49 0 -77 14zM362 1208q0 53 36.5 95.5t82.5 42.5q32 0 53 -23.5t21 -60.5q0 -59 -32 -98.5t-79 -39.5q-38 0 -60 23t-22 61z" />
<glyph unicode="k" horiz-adv-x="909" d="M16 2q89 358 119 486.5t49 236.5l99 549q4 28 4 49q0 26 -16.5 37.5t-53.5 11.5h-98l8 43q111 11 180 29t148 57l24 -22l-219 -1008q193 269 326.5 392.5t234.5 123.5q43 0 99 -18l-35 -129q-53 12 -74 12q-77 0 -153 -41.5t-169 -134.5l-28 -29q60 -188 101 -291 t95 -202q25 -48 54 -48q21 0 59 21l88 49l16 -39l-94 -65q-129 -90 -166 -90q-38 0 -95.5 121t-162.5 427q-109 -109 -137 -260l-47 -254l-137 -34z" />
<glyph unicode="l" horiz-adv-x="569" d="M74 61q0 66 39 209l196 959q13 81 13 98q0 45 -70 45h-98l8 43q111 11 179.5 28.5t147.5 57.5l25 -22l-264 -1248q-12 -50 -12 -75q0 -17 7.5 -29t18.5 -12q34 0 125 61l53 35l21 -37q-150 -111 -219 -151.5t-109 -40.5q-29 0 -45 21t-16 58z" />
<glyph unicode="m" horiz-adv-x="1593" d="M49 795l57 41q211 151 273 151q22 0 34.5 -17t12.5 -46q0 -38 -12 -88l-68 -273q98 132 146.5 185.5t117.5 107.5q172 131 269 131q25 0 39 -17t14 -46q0 -14 -14 -86l-62 -281q75 105 139.5 170.5t161.5 134.5q178 125 262 125q25 0 39.5 -15.5t14.5 -41.5 q0 -18 -15 -84l-153 -608q-15 -65 -15 -82t8 -29t19 -12q33 0 125 61l53 35l21 -37q-149 -111 -218.5 -151.5t-109.5 -40.5q-29 0 -45.5 21.5t-16.5 59.5q0 60 27 156l88 322q34 124 42.5 169.5t8.5 86.5q0 51 -26 51q-49 0 -122.5 -51.5t-158.5 -145.5q-139 -155 -192 -420 l-43 -219l-142 -30l-10 22l33 137q129 537 129 664q0 43 -23 43q-43 0 -106.5 -42.5t-128.5 -113.5q-84 -92 -132 -196t-85 -275l-45 -209l-140 -30l-6 22q63 220 115.5 467.5t52.5 325.5q0 23 -10 37t-27 14q-12 0 -28 -8.5t-68 -42.5l-66 -43z" />
<glyph unicode="n" horiz-adv-x="1138" d="M49 795l57 41q214 151 273 151q47 0 47 -67q0 -28 -12 -84l-78 -330q79 112 131 174t111 117q91 85 187.5 137.5t160.5 52.5q63 0 63 -74q0 -58 -22 -151l-136 -565q-4 -16 -4 -41q0 -17 8 -29t19 -12q33 0 125 61l53 35l21 -37q-149 -111 -218.5 -151.5t-109.5 -40.5 q-29 0 -45 21.5t-16 59.5q0 46 26 156l107 434q22 91 22 146q0 49 -35 49q-69 0 -170 -85t-186 -214q-69 -106 -108 -223t-68 -310q-54 -10 -143 -34l-15 22q63 220 115.5 467.5t52.5 325.5q0 23 -10 37t-27 14q-12 0 -28 -8.5t-68 -42.5l-66 -43z" />
<glyph unicode="o" horiz-adv-x="909" d="M35 311q0 188 67 337.5t191 238.5q139 100 276 100q128 0 200.5 -82t72.5 -227q0 -155 -61 -312.5t-156 -248.5q-70 -65 -157 -102.5t-171 -37.5q-128 0 -195 85.5t-67 248.5zM190 309q0 -121 49.5 -187.5t139.5 -66.5q94 0 153 68q68 82 111 228t43 294q0 129 -49 196.5 t-143 67.5q-82 0 -123 -35q-75 -62 -128 -227t-53 -338z" />
<glyph unicode="p" d="M-14 -553l16 76l100 493l119 703q8 40 8 78q0 22 -9.5 34.5t-24.5 12.5q-27 0 -99 -47l-65 -43l-15 41l58 41q211 151 272 151q45 0 45 -61q0 -32 -10 -90l-49 -244q55 90 95.5 140t102.5 106q173 149 301 149q55 0 88 -62t33 -165q0 -115 -45 -262.5t-108 -241.5 q-66 -97 -209.5 -188t-229.5 -91q-38 0 -106 23l-18 6l-86 -536q-79 -12 -150 -35zM256 121q75 -47 168 -47q127 0 190 90q82 117 136.5 278.5t54.5 286.5q0 139 -78 139q-83 0 -176.5 -77t-164.5 -201t-93 -252z" />
<glyph unicode="q" horiz-adv-x="948" d="M49 160q0 158 50 346t112 260q34 39 94 88t115 82q83 51 162 51q83 0 206 -49l68 45l29 -12q-27 -86 -56 -242l-176 -934q-26 -149 -39 -325q-74 -9 -176 -35l-18 28q44 47 55 117l156 848q-56 -99 -148.5 -200.5t-193.5 -176.5l-17 -12q-83 -62 -149 -62q-74 0 -74 183z M197 231q0 -110 45 -110t128 65t162 162q110 136 144 289l43 194q-74 33 -115.5 44.5t-83.5 11.5q-109 0 -149 -49q-64 -76 -119 -267.5t-55 -339.5z" />
<glyph unicode="r" horiz-adv-x="796" d="M53 795l58 41q211 151 272 151q47 0 47 -65q0 -32 -24 -140l-54 -258q8 18 17 36t20 37t19.5 33.5t22.5 36t21 32.5t23.5 35.5t22 32.5t24.5 34.5t23 32.5q109 153 200 153q13 0 41 -12q-24 -128 -32 -227h-29q-30 38 -74 38q-67 0 -170 -133q-67 -87 -106.5 -177 t-67.5 -218l-53 -246q-90 -15 -137 -30l-21 14q61 194 115.5 453.5t54.5 349.5q0 20 -10 32.5t-25 12.5q-26 0 -98 -47l-65 -43z" />
<glyph unicode="s" horiz-adv-x="796" d="M18 33q31 128 45 270h52v-172q84 -72 192 -72q109 0 174.5 61.5t65.5 162.5q0 61 -27.5 91t-95.5 42l-129 24q-102 20 -150.5 70.5t-48.5 136.5q0 55 18 96.5t58 83.5q73 75 161.5 117.5t168.5 42.5q92 0 205 -55q-27 -120 -39 -232h-47v113q-25 41 -78.5 66.5 t-116.5 25.5q-89 0 -149 -55t-60 -137q0 -63 35 -94t127 -48l88 -16q115 -22 166 -69t51 -130q0 -76 -34.5 -137t-112.5 -123q-151 -119 -299 -119q-108 0 -220 56z" />
<glyph unicode="t" horiz-adv-x="681" d="M84 799l4 26q48 13 180 76l51 348q111 44 160 74l23 -31q-47 -142 -92 -403q108 0 225 12l-23 -102h-219l-26 -127q-88 -423 -88 -516q0 -41 26 -41q38 0 125 61l92 64l21 -37q-13 -10 -21.5 -17t-11.5 -9.5t-10.5 -8.5t-20.5 -16q-124 -98 -187 -134t-116 -36 q-29 0 -45 21.5t-16 59.5q0 24 3.5 48.5t12 60.5t10.5 47l115 580h-172z" />
<glyph unicode="u" horiz-adv-x="1138" d="M66 795l57 41q209 151 272 151q45 0 45 -63q0 -33 -10 -88l-117 -555q-14 -74 -14 -107q0 -53 27 -53q63 0 170 99t198 241q92 147 140 387l20 104l139 35l15 -18l-172 -731q-13 -54 -13 -82q0 -15 7.5 -25t19.5 -10q40 0 125 55l53 35l21 -37q-156 -115 -223 -156 t-105 -41q-29 0 -45.5 23.5t-16.5 62.5q0 52 23 136l76 290q-128 -211 -290 -361.5t-259 -150.5q-30 0 -51 24t-21 58q0 59 8 99l129 608q5 25 5 37q0 17 -10 29t-25 12q-28 0 -99 -47l-65 -43z" />
<glyph unicode="v" d="M43 721q41 172 78 242q33 14 59 14h6q196 -14 252 -14q70 0 125 24l21 -37q-151 -187 -216 -338.5t-65 -312.5q0 -100 44.5 -159.5t119.5 -59.5q66 0 135 57.5t122.5 147t87.5 205.5t34 227q0 61 -23.5 95t-64.5 34q-28 0 -56 -19l-22 39l102 97q24 24 68 24 q55 0 91 -56.5t36 -144.5q0 -61 -23 -152.5t-57 -168.5q-47 -104 -116 -202t-142 -165q-135 -121 -258 -121q-98 0 -161.5 76.5t-63.5 194.5q0 153 71 294t242 326q-71 -8 -129 -8q-18 0 -56 2t-57 2q-37 0 -65.5 -15.5t-38.5 -41.5l-35 -86h-45z" />
<glyph unicode="w" horiz-adv-x="1478" d="M43 721q41 172 78 242q33 14 59 14h6q196 -14 252 -14q70 0 125 24l21 -37q-152 -171 -219.5 -329.5t-67.5 -341.5q0 -90 32.5 -144.5t86.5 -54.5q46 0 103 61t118 176q44 83 69 154t44 166l59 305l152 45l14 -16l-107 -377q-19 -66 -31 -157t-12 -163q0 -84 29.5 -139 t73.5 -55q85 0 172.5 96.5t143.5 246t56 294.5q0 61 -23.5 95t-64.5 34q-26 0 -55 -19l-22 39l102 97q24 24 68 24q55 0 91 -56.5t36 -144.5q0 -61 -23 -152.5t-57 -168.5q-95 -211 -239.5 -349.5t-268.5 -138.5q-69 0 -110.5 60.5t-41.5 157.5q0 63 25 188 q-115 -221 -203 -313.5t-186 -92.5q-82 0 -131.5 77.5t-49.5 203.5q0 131 58 253.5t196 283.5q7 8 29.5 33t32.5 40q-68 -8 -121 -8q-20 0 -58 2t-57 2q-37 0 -65.5 -15.5t-38.5 -41.5l-35 -86h-45z" />
<glyph unicode="x" d="M18 2q1 6 4 19t5 26q16 88 16 133l41 6l22 -57q7 -18 58 -18q85 0 215 202l82 127l-23 127q-26 150 -61 217.5t-86 67.5q-56 0 -141 -98l-35 20l118 170q29 43 117 43q91 0 136.5 -62t64.5 -214l12 -99l76 113q95 141 162.5 201.5t128.5 60.5q25 0 61 -20l-30 -174 l-29 -9q-15 47 -68 47q-47 0 -95 -40t-120 -140l-71 -100l36 -207q16 -97 52 -174q30 -61 77 -61q46 0 158 92l19 -39l-101 -90q-106 -95 -176 -95q-55 0 -90 61t-57 193l-23 142l-156 -240q-47 -72 -103.5 -114t-107.5 -42q-40 0 -88 25z" />
<glyph unicode="y" d="M-16 -406q0 23 2 37l98 70l20 -8q-4 -36 -4 -45q0 -54 36.5 -90.5t90.5 -36.5q107 0 190 120.5t161 391.5l100 350q-116 -174 -230.5 -290t-171.5 -116q-39 0 -64 41t-24 105l2 82l35 497q1 19 1 35q0 103 -44 103q-20 0 -51 -25l-102 -61l-23 37l168 114q72 50 102.5 66 t51.5 16q26 0 37.5 -30t11.5 -99q0 -73 -8 -199l-31 -397q0 -17 -1 -44.5t9.5 -54t30.5 -26.5q34 0 98.5 58t118.5 137q51 75 98 174.5t66 171.5l71 270q67 6 152 39l23 -18l-289 -901q-91 -285 -245.5 -459t-317.5 -174q-69 0 -118.5 46.5t-49.5 112.5z" />
<glyph unicode="z" horiz-adv-x="909" d="M-2 43l723 819q-91 -47 -191 -47q-60 0 -165 21q-51 10 -93 10q-35 0 -79 -10l-62 -119h-43l66 250q70 20 125 20q19 0 43 -4t37.5 -7t44.5 -11.5t38 -10.5q156 -43 275 -43q40 0 69 29l48 47l18 -18l-12 -66l-695 -782q103 43 195 43q55 0 176 -25q99 -22 137 -22 q61 0 80 51l45 123h45q-33 -136 -61 -293q-77 -21 -103 -21q-67 0 -241 41q-137 35 -215 35q-105 0 -187 -65z" />
<glyph unicode="{" horiz-adv-x="681" d="M31 645q95 28 137 77t59 152l60 353q26 157 105 215.5t261 58.5q-98 -25 -145.5 -79.5t-67.5 -166.5l-61 -352q-22 -124 -67 -178t-150 -80q76 -23 106.5 -56.5t30.5 -94.5q0 -50 -12 -121l-58 -332q-6 -40 -6 -76q0 -75 30 -112.5t105 -57.5q-136 3 -194 27 q-82 37 -82 158q0 49 10 114l55 320q9 50 9 92q0 57 -27 86.5t-98 52.5z" />
<glyph unicode="|" horiz-adv-x="1241" d="M563 -205v1706h115v-1706h-115z" />
<glyph unicode="}" horiz-adv-x="681" d="M29 -205q98 25 145.5 79.5t67.5 166.5l61 352q22 124 67 178t150 80q-75 22 -106 56.5t-31 95.5q0 51 12 121l58 331q6 37 6 76q0 75 -30 112.5t-105 57.5q138 -3 194 -26q82 -37 82 -160q0 -48 -10 -113l-55 -319q-9 -49 -9 -95q0 -56 27.5 -85.5t97.5 -51.5 q-95 -28 -137 -77t-59 -152l-60 -352q-26 -158 -105 -216.5t-261 -58.5z" />
<glyph unicode="~" horiz-adv-x="1241" d="M104 401q75 133 141 189.5t144 56.5q46 0 99.5 -16.5t162.5 -63.5q93 -41 132.5 -54t68.5 -13q119 0 215 172l70 -56q-127 -231 -283 -231q-40 0 -94.5 17.5t-171.5 66.5q-97 41 -128.5 51t-68.5 10q-61 0 -108 -40t-109 -144z" />
<glyph unicode="&#xa1;" horiz-adv-x="681" d="M250 -537l252 1057l61 35l12 -6l-43 -316l-71 -589l-15 -146l-174 -53zM477 821q0 57 37 99.5t88 42.5q41 0 65.5 -26.5t24.5 -70.5q0 -59 -36 -101t-87 -42q-38 0 -65 28.5t-27 69.5z" />
<glyph unicode="&#xa2;" d="M115 287q0 169 66.5 329t166.5 230q173 120 299 137l55 145h68l-55 -145q76 0 141 -45q-38 -166 -43 -262h-47v131q0 20 -19 34t-71 33l-299 -782q30 -10 53 -10q74 0 156.5 37t189.5 117l15 -41l-123 -101q-141 -114 -334 -117l-70 -174h-65l71 193q-46 13 -70 33.5 t-46 62.5q-39 76 -39 195zM266 305q0 -109 56 -174l286 754q-12 2 -28 2q-57 0 -110.5 -29t-82.5 -76q-40 -63 -80.5 -222.5t-40.5 -254.5z" />
<glyph unicode="&#xa3;" d="M4 55q116 62 168 178t86 379l6 47h-194l14 72h192q37 217 85.5 340t136.5 223q138 156 290 156q56 0 98.5 -12.5t94.5 -44.5q-36 -107 -39 -250h-47v110q0 41 -54 73t-126 32q-75 0 -124.5 -49t-68.5 -144l-10 -51l-63 -295l-21 -88h291l-14 -72h-293 q-59 -232 -107.5 -344.5t-118.5 -183.5q105 31 174 31q40 0 123 -10l121 -17q54 -8 90 -8h62q41 0 53 2q50 6 74 74l45 123h49l-74 -324q-51 -31 -121 -31q-49 0 -311 52l-10 2l-12 2l-13 2q-138 24 -198 24q-42 0 -59.5 -5.5t-47.5 -27.5q-46 -36 -84 -57q-18 7 -30.5 34.5 t-12.5 57.5z" />
<glyph unicode="&#xa4;" d="M29 305l110 111q-57 73 -80.5 140.5t-23.5 152.5q0 90 25 158.5t83 133.5l-114 115l63 66l117 -115q131 111 303 111q89 0 160.5 -26t142.5 -85l117 115l63 -66l-114 -115q57 -66 82.5 -134.5t25.5 -157.5q0 -83 -24 -151t-80 -142l110 -111l-63 -63l-113 108 q-77 -62 -147 -88t-160 -26q-91 0 -161.5 26t-145.5 88l-113 -108zM141 707q0 -152 108 -258.5t263 -106.5t263 106.5t108 260.5t-107.5 258t-267.5 104q-154 0 -260.5 -106t-106.5 -258z" />
<glyph unicode="&#xa5;" d="M72 1266v49q70 60 125 117q103 3 181 -176t157 -603q147 367 267 545.5t247 216.5l-9 -143q-79 -18 -139 -84t-160 -232l-12 -20q-45 -75 -72 -143l-39 -88h197l-12 -70h-209q-21 -52 -31 -150h228l-13 -69h-225l-33 -226q-6 -50 -6 -71q0 -32 14 -45.5t50 -16.5l84 -6 l-5 -57h-47l-168 6l-147 -4l-94 -2l6 57l84 6q52 3 65 31q11 16 37 168l27 160h-236l13 69h233q4 23 4 45q0 39 -14 105h-203l12 70h172l-18 86q-59 270 -113.5 384.5t-124.5 114.5q-24 0 -73 -24z" />
<glyph unicode="&#xa6;" horiz-adv-x="1241" d="M563 -205v682h115v-682h-115zM563 819v682h115v-682h-115z" />
<glyph unicode="&#xa7;" d="M29 -344l67 289l49 -4l-12 -177q56 -65 115.5 -92.5t142.5 -27.5q120 0 202.5 77t82.5 189q0 75 -41.5 126t-151.5 111l-104 58q-157 86 -218 155.5t-61 161.5q0 93 48 162t176 162q-84 93 -84 172q0 82 36 153.5t115 147.5q70 69 138 98t159 29q78 0 138.5 -19.5 t121.5 -62.5l-63 -264h-51l10 164q-90 90 -221 90q-112 0 -189.5 -70.5t-77.5 -171.5q0 -108 95 -168l251 -156q124 -76 158 -118q53 -65 53 -154q0 -187 -219 -321q60 -54 82.5 -97t22.5 -104q0 -166 -160 -311q-143 -134 -313 -134q-169 0 -297 107zM229 590 q0 -64 44 -118t141 -110l237 -135q74 60 104.5 109.5t30.5 107.5q0 67 -41 119t-139 111l-244 143q-70 -58 -101.5 -111.5t-31.5 -115.5z" />
<glyph unicode="&#xa8;" horiz-adv-x="681" d="M297 1208q0 53 36.5 95.5t82.5 42.5q32 0 52.5 -23.5t20.5 -60.5q0 -59 -31.5 -98.5t-78.5 -39.5q-38 0 -60 23t-22 61zM625 1208q0 53 36 95.5t82 42.5q32 0 53 -23.5t21 -60.5q0 -59 -31.5 -98.5t-78.5 -39.5q-38 0 -60 23t-22 61z" />
<glyph unicode="&#xa9;" horiz-adv-x="1529" d="M63 664q0 143 55.5 273.5t149.5 225t224.5 150t273.5 55.5t273.5 -55.5t225 -150t150 -225t55.5 -273.5t-55.5 -273.5t-150 -224.5t-225 -149.5t-273.5 -55.5q-191 0 -353 94t-256 256t-94 353zM137 664q0 -128 49.5 -244.5t134 -201t201 -134t244.5 -49.5t245 49.5 t201.5 134t134.5 201t50 244.5q0 171 -84.5 316t-230 229.5t-316.5 84.5t-316 -84.5t-229 -229.5t-84 -316zM381 596q-3 262 217 399q137 84 301 84q110 0 250 -49q-24 -74 -33 -176h-47l-2 98q-94 54 -217 54q-137 0 -221 -78q-114 -105 -111 -303q3 -147 78 -225t217 -78 q72 0 130.5 18t146.5 68l20 -13l-14 -49q-86 -54 -159.5 -76t-166.5 -22q-184 0 -285 90t-104 258z" />
<glyph unicode="&#xaa;" horiz-adv-x="681" d="M78 717l12 69h539l-13 -69h-538zM123 930q0 92 44.5 226t88.5 175q110 101 225 101q47 0 115 -23l43 23l14 -11l-121 -456l-2 -17q0 -15 7 -25t18 -10q21 0 66 35q12 9 20 17l8 4l8 -25q-157 -117 -192 -117q-33 0 -33 45q0 18 8 64l33 160q-74 -100 -120 -148.5 t-101 -83.5q-58 -37 -84 -37q-19 0 -32 29.5t-13 73.5zM219 958q0 -43 23 -43q34 0 104 65.5t107 131.5q27 46 45 94t45 144q-76 22 -117 22q-58 0 -84.5 -22.5t-52.5 -94.5l-35 -96q-15 -41 -25 -99.5t-10 -101.5z" />
<glyph unicode="&#xab;" d="M117 514v33l397 354l39 -33l-281 -344l195 -350l-41 -31zM459 514v33l397 354l39 -33l-281 -344l195 -350l-41 -31z" />
<glyph unicode="&#xac;" horiz-adv-x="1241" d="M82 633v115h1077v-412h-115v295z" />
<glyph unicode="&#xad;" horiz-adv-x="681" d="M39 457l39 118h545l-37 -118h-547z" />
<glyph unicode="&#xae;" horiz-adv-x="1529" d="M63 664q0 143 55.5 273.5t149.5 225t224.5 150t273.5 55.5t273.5 -55.5t225 -150t150 -225t55.5 -273.5t-55.5 -273.5t-150 -224.5t-225 -149.5t-273.5 -55.5q-191 0 -353 94t-256 256t-94 353zM137 664q0 -128 49.5 -244.5t134 -201t201 -134t244.5 -49.5t245 49.5 t201.5 134t134.5 201t50 244.5q0 171 -84.5 316t-230 229.5t-316.5 84.5t-316 -84.5t-229 -229.5t-84 -316zM371 262l6 47l53 4q14 1 23.5 9t16 28t8.5 29.5t7 36.5l86 491q10 69 9 84q0 12 -9.5 18.5t-23.5 6.5l-70 2l4 47q63 -4 191 -4q32 0 94 2t92 2q98 0 165.5 -40 t68.5 -118q0 -52 -30.5 -100.5t-80.5 -81.5q-59 -40 -141 -53l229 -305q42 -53 90 -58l2 -47q-41 6 -78 6q-51 0 -100 -6l-301 414l6 33h60q81 0 144 53.5t62 124.5q-1 57 -45 90t-108 33q-21 0 -82 -9l-6 -26l-11 -45l-96 -549q-4 -28 -4 -39q0 -25 35 -29l61 -4l-4 -47 q-79 6 -157 6q-83 0 -166 -6z" />
<glyph unicode="&#xaf;" horiz-adv-x="681" d="M240 1184l22 104h617l-23 -104h-616z" />
<glyph unicode="&#xb0;" horiz-adv-x="819" d="M184 1106q0 126 90.5 215.5t217.5 89.5t217 -91t90 -220q0 -123 -90.5 -213t-216.5 -90q-128 0 -218 90t-90 219zM266 1106q0 -95 66 -161t160 -66q92 0 158.5 66t66.5 157q0 94 -67 160.5t-161 66.5q-92 0 -157.5 -65.5t-65.5 -157.5z" />
<glyph unicode="&#xb1;" horiz-adv-x="1241" d="M82 0v115h1077v-115h-1077zM82 569v115h481v481h115v-481h481v-115h-481v-352h-115v352h-481z" />
<glyph unicode="&#xb2;" horiz-adv-x="614" d="M27 569v43q254 249 345 375.5t91 226.5q0 59 -33.5 90t-97.5 31q-61 0 -99.5 -26.5t-82.5 -98.5l-37 21l80 147q79 54 176 54q103 0 164 -54.5t61 -146.5q0 -131 -119 -250l-328 -324h279q68 0 152 19l8 -23l-23 -84l-127 2q-20 0 -73.5 1t-65.5 1q-13 0 -68 -1t-75 -1z " />
<glyph unicode="&#xb3;" horiz-adv-x="614" d="M57 612l37 179l45 -7q-6 -27 -6 -53q0 -57 41.5 -88t116.5 -31q83 0 144 72t61 170q0 72 -44.5 112t-125.5 40q-39 0 -101 -21l-8 27l23 61h32l29 -2q80 -6 136.5 48t56.5 130q0 42 -37 70.5t-92 28.5q-77 0 -132 -70l-26 -35l-31 21l78 129q91 39 156 39 q89 0 145.5 -44.5t56.5 -115.5q0 -68 -45 -118t-151 -99q113 -23 160 -67t47 -126q0 -126 -108.5 -214.5t-262.5 -88.5q-112 0 -195 53z" />
<glyph unicode="&#xb4;" horiz-adv-x="681" d="M324 1061l313 309q37 37 68 37t54 -19.5t23 -44.5q0 -23 -12 -38.5t-45 -36.5l-332 -207h-69z" />
<glyph unicode="&#xb5;" horiz-adv-x="1138" d="M27 -446l254 1212q1 4 3 18.5t3 18.5q0 17 -10.5 29t-24.5 12q-25 0 -100 -47l-66 -43l-14 41l59 41q211 151 272 151q46 0 46 -65q0 -29 -11 -86l-123 -555q-14 -71 -14 -107q0 -53 27 -53q61 0 166 96t198 236q100 152 150 395l20 104l139 35l15 -18l-178 -731l-2 -13 q-11 -57 -11 -69q0 -15 7.5 -25t19.5 -10q43 0 125 55l53 35l21 -37q-151 -112 -220.5 -152t-109.5 -40q-29 0 -45.5 21.5t-16.5 59.5q0 37 29 156l74 270q-43 -72 -80.5 -122t-103.5 -125q-104 -117 -199 -191t-139 -74q-16 0 -37 7l-10 2l-19 -359q-3 -40 -68 -65l-61 -25 z" />
<glyph unicode="&#xb6;" d="M68 1057q0 177 91.5 268.5t268.5 91.5l412 -6q146 -7 264.5 -0.5t146.5 6.5l-10 -61h-47q-80 0 -110.5 -28t-45.5 -116l-256 -1493q-11 -65 11 -90.5t92 -25.5h88l-10 -62q-65 1 -116.5 3.5t-89.5 3t-204 -0.5q-192 -2 -280.5 -4t-104.5 -2l10 62h62q63 0 88.5 30 t40.5 123l129 756q-73 10 -122.5 31.5t-103.5 66.5q-97 79 -150.5 197t-53.5 250zM293 1010q0 -177 55.5 -284t161.5 -136l129 745q-93 11 -115 11q-118 0 -174.5 -82t-56.5 -254zM483 -387h140l301 1733h-140z" />
<glyph unicode="&#xb7;" horiz-adv-x="512" d="M137 512q0 50 34.5 84.5t84.5 34.5t84.5 -34.5t34.5 -84.5t-34.5 -84.5t-84.5 -34.5t-84.5 34.5t-34.5 84.5z" />
<glyph unicode="&#xb8;" horiz-adv-x="681" d="M-18 -401l34 59q91 -29 142 -29q47 0 77.5 26t30.5 66q0 34 -27 56t-69 22q-26 0 -53 -8l-15 -4l-18 16l127 207h78l-92 -141q46 4 49 4q77 0 122.5 -38.5t45.5 -104.5q0 -78 -68.5 -125t-183.5 -47q-73 0 -180 41z" />
<glyph unicode="&#xb9;" horiz-adv-x="614" d="M125 569l10 49l101 13q30 3 42.5 20t20.5 64l111 614q-47 -21 -62 -24q-15 -6 -29.5 -12.5t-23 -10t-10.5 -4.5l-111 -49l-10 6l14 88q131 28 219 59l142 50l20 -13l-8 -28q-15 -54 -21 -95l-106 -573q-4 -20 -4 -41q0 -31 16 -42.5t62 -14.5l86 -7l-9 -49l-106 2 q-10 0 -60 1t-59 1t-59 -1t-60 -1z" />
<glyph unicode="&#xba;" horiz-adv-x="681" d="M74 717l12 69h500l-13 -69h-499zM135 1024q0 169 101 288.5t245 119.5q85 0 131.5 -48.5t46.5 -136.5q0 -113 -48 -209.5t-129.5 -153.5t-176.5 -57q-82 0 -126 51.5t-44 145.5zM236 1036q0 -162 122 -162q84 0 140 95q26 48 43.5 121.5t17.5 140.5q0 73 -32.5 113 t-92.5 40q-88 0 -143 -97t-55 -251z" />
<glyph unicode="&#xbb;" d="M129 176l281 344l-195 350l41 31l309 -371v-32l-397 -355zM471 176l281 344l-195 350l41 31l309 -371v-32l-397 -355z" />
<glyph unicode="&#xbc;" horiz-adv-x="1536" d="M63 569l11 49l100 13q30 3 43 20.5t21 63.5l110 614q-48 -21 -61 -24q-15 -6 -30 -12.5t-23.5 -10t-10.5 -4.5l-110 -49l-11 6l15 88q131 28 219 59l141 50l21 -13l-9 -28q-13 -46 -20 -95l-107 -573q-4 -20 -4 -41q0 -31 16 -42.5t62 -14.5l86 -7l-8 -49l-106 2 q-10 0 -60 1t-59 1t-59 -1t-60 -1zM315 0l924 1432h115l-924 -1432h-115zM840 231v52l448 565l92 18l19 -14l-96 -545h155l6 -16l-22 -66q-44 6 -70 6h-88l-14 -57q-8 -32 -8 -72q0 -48 43 -51l110 -6l-8 -49h-45q-24 0 -59 2q-18 2 -115 2q-99 0 -115 -2l-61 -2h-45l6 49 l104 6q32 1 47.5 17.5t26.5 58.5l27 104h-338zM915 307h281l98 484z" />
<glyph unicode="&#xbd;" horiz-adv-x="1536" d="M63 569l11 49l100 13q30 3 43 20.5t21 63.5l110 614q-48 -21 -61 -24q-15 -6 -30 -12.5t-23.5 -10t-10.5 -4.5l-110 -49l-11 6l15 88q131 28 219 59l141 50l21 -13l-9 -28q-13 -46 -20 -95l-107 -573q-4 -20 -4 -41q0 -31 16 -42.5t62 -14.5l86 -7l-8 -49l-106 2 q-10 0 -60 1t-59 1t-59 -1t-60 -1zM266 0l924 1432h115l-924 -1432h-115zM909 -4v43q254 250 345.5 376t91.5 226q0 59 -34 90t-98 31q-61 0 -99.5 -26.5t-82.5 -98.5l-37 20l80 148q77 53 176 53q103 0 164.5 -54.5t61.5 -146.5q0 -130 -119 -249l-328 -324h279 q71 0 151 18l8 -22l-22 -84h-53q-31 0 -74 2q-20 2 -139 2q-121 0 -144 -2l-73 -2h-54z" />
<glyph unicode="&#xbe;" horiz-adv-x="1536" d="M72 612l37 179l45 -7q-7 -32 -7 -53q0 -57 41.5 -88t116.5 -31q83 0 144 72t61 170q0 72 -44.5 112t-125.5 40q-38 0 -100 -21l-9 27l23 61h33l28 -2q80 -6 136.5 48t56.5 130q0 42 -37 70.5t-92 28.5q-76 0 -131 -70l-27 -35l-31 21l78 129q91 39 156 39q89 0 146 -45 t57 -115q0 -67 -45.5 -117t-151.5 -100q113 -23 160 -67t47 -126q0 -126 -108.5 -214.5t-262.5 -88.5q-111 0 -194 53zM315 0l924 1432h115l-924 -1432h-115zM840 231v52l448 565l92 18l19 -14l-96 -545h155l6 -16l-22 -66q-44 6 -70 6h-88l-14 -57q-8 -32 -8 -72 q0 -48 43 -51l110 -6l-8 -49h-45q-24 0 -59 2q-18 2 -115 2q-99 0 -115 -2l-61 -2h-45l6 49l104 6q32 1 47.5 17.5t26.5 58.5l27 104h-338zM915 307h281l98 484z" />
<glyph unicode="&#xbf;" d="M315 -225q0 79 36 149.5t116 147.5l213 204q58 55 80 89.5t22 68.5q0 47 -55 105l51 12q78 -50 78 -129q0 -54 -26.5 -106.5t-86.5 -120.5l-143 -162q-117 -132 -117 -238q0 -75 57.5 -124.5t145.5 -49.5q63 0 102.5 23.5t79.5 83.5l41 61l45 -12l-82 -201 q-68 -42 -121 -59t-114 -17q-145 0 -233.5 76t-88.5 199zM741 821q0 57 37 99.5t88 42.5q41 0 65.5 -26.5t24.5 -70.5q0 -59 -35.5 -101t-86.5 -42q-38 0 -65.5 28.5t-27.5 69.5z" />
<glyph unicode="&#xc0;" horiz-adv-x="1478" d="M-39 -6v61l41 11q53 12 90 45t90 118l764 1215h94l179 -1280q9 -69 25.5 -84t88.5 -23l53 -6v-57q-123 6 -249 6q-124 0 -250 -6v57l90 6q88 6 88 56q0 9 -4 45l-55 409h-504l-209 -358q-53 -90 -53 -113q0 -14 18.5 -26t44.5 -13l107 -6v-57q-108 6 -220 6 q-115 0 -229 -6zM553 641h442l-75 590zM821 1761q6 20 37.5 35.5t65.5 15.5q37 0 59 -28l254 -252h-76l-299 168q-30 18 -38.5 30.5t-2.5 30.5z" />
<glyph unicode="&#xc1;" horiz-adv-x="1478" d="M-39 -6v61l41 11q53 12 90 45t90 118l764 1215h94l179 -1280q9 -69 25.5 -84t88.5 -23l53 -6v-57q-123 6 -249 6q-124 0 -250 -6v57l90 6q88 6 88 56q0 9 -4 45l-55 409h-504l-209 -358q-53 -90 -53 -113q0 -14 18.5 -26t44.5 -13l107 -6v-57q-108 6 -220 6 q-115 0 -229 -6zM553 641h442l-75 590zM782 1532l342 252q35 28 70 28q34 0 60 -15.5t26 -35.5q-1 -18 -15 -30.5t-51 -30.5l-356 -168h-76z" />
<glyph unicode="&#xc2;" horiz-adv-x="1478" d="M-39 -6v61l41 11q53 12 90 45t90 118l764 1215h94l179 -1280q9 -69 25.5 -84t88.5 -23l53 -6v-57q-123 6 -249 6q-124 0 -250 -6v57l90 6q88 6 88 56q0 9 -4 45l-55 409h-504l-209 -358q-53 -90 -53 -113q0 -14 18.5 -26t44.5 -13l107 -6v-57q-108 6 -220 6 q-115 0 -229 -6zM553 641h442l-75 590zM649 1534l348 281h109l194 -281h-81l-179 174l-305 -174h-86z" />
<glyph unicode="&#xc3;" horiz-adv-x="1478" d="M-39 -6v61l41 11q53 12 90 45t90 118l764 1215h94l179 -1280q9 -69 25.5 -84t88.5 -23l53 -6v-57q-123 6 -249 6q-124 0 -250 -6v57l90 6q88 6 88 56q0 9 -4 45l-55 409h-504l-209 -358q-53 -90 -53 -113q0 -14 18.5 -26t44.5 -13l107 -6v-57q-108 6 -220 6 q-115 0 -229 -6zM553 641h442l-75 590zM700 1569q31 112 78.5 161.5t122.5 49.5q53 0 129 -29l123 -49q23 -10 55 -10q31 0 53 18t52 70h57q-19 -100 -71.5 -155.5t-127.5 -55.5q-45 0 -131 33q-1 0 -23.5 8t-43.5 16.5t-29 13.5q-48 19 -78 19q-38 0 -60.5 -19t-45.5 -71 h-60z" />
<glyph unicode="&#xc4;" horiz-adv-x="1478" d="M-39 -6v61l41 11q53 12 90 45t90 118l764 1215h94l179 -1280q9 -69 25.5 -84t88.5 -23l53 -6v-57q-123 6 -249 6q-124 0 -250 -6v57l90 6q88 6 88 56q0 9 -4 45l-55 409h-504l-209 -358q-53 -90 -53 -113q0 -14 18.5 -26t44.5 -13l107 -6v-57q-108 6 -220 6 q-115 0 -229 -6zM553 641h442l-75 590zM772 1647q0 53 36.5 95t82.5 42q32 0 53 -23.5t21 -60.5q0 -58 -32 -97.5t-79 -39.5q-38 0 -60 23t-22 61zM1100 1647q0 53 36.5 95t82.5 42q32 0 52.5 -23.5t20.5 -60.5q0 -59 -31.5 -98t-78.5 -39q-38 0 -60 23t-22 61z" />
<glyph unicode="&#xc5;" horiz-adv-x="1478" d="M-39 -6v61l41 11q53 12 90 45t90 118l764 1215h94l179 -1280q9 -69 25.5 -84t88.5 -23l53 -6v-57q-123 6 -249 6q-124 0 -250 -6v57l90 6q88 6 88 56q0 9 -4 45l-55 409h-504l-209 -358q-53 -90 -53 -113q0 -14 18.5 -26t44.5 -13l107 -6v-57q-108 6 -220 6 q-115 0 -229 -6zM553 641h442l-75 590zM838 1714q0 86 60 145.5t146 59.5q83 0 143 -60t60 -145q0 -86 -60 -145.5t-145 -59.5q-86 0 -145 59.5t-59 145.5zM915 1714q0 -59 35 -95t92 -36t92 36t35 95t-35 95t-92 36t-92 -36t-35 -95z" />
<glyph unicode="&#xc6;" horiz-adv-x="1927" d="M-8 -6v61l69 11q37 6 74 61l754 1116q26 43 26 74q0 15 -23 27t-52 12h-135v61q249 -6 497 -6q84 0 252 3t252 3q76 0 141 -6q-34 -115 -43 -311h-49l-16 182q-1 22 -55.5 35.5t-137.5 13.5l-155 -4l-97 -4q-9 -19 -18 -66l-86 -487h35l448 12l8 -14l-39 -92 q-18 1 -33 2.5t-28.5 2.5t-66.5 2t-142 1h-198l-89 -518q-4 -25 -4 -72q177 -14 230 -14q85 0 180 6t121 12q34 7 51.5 30t32.5 79l33 123h55l-10 -54q-29 -161 -33 -202l-8 -74q-28 -1 -48.5 -2.5t-54.5 -2.5t-110 -1q-72 0 -215 3t-215 3q-154 0 -304 -6l11 53 q65 11 89.5 28.5t31.5 59.5l77 436h-454l-222 -370q-40 -74 -40 -90q0 -56 124 -56h50v-61q-138 6 -220 6zM594 653h414l110 688h-28q-15 0 -32 -15.5t-44 -55.5z" />
<glyph unicode="&#xc7;" horiz-adv-x="1366" d="M92 582q0 471 363 716q220 148 479 148q174 0 399 -84q-41 -132 -55 -299h-55v172q-86 55 -171 78.5t-196 23.5q-245 0 -389 -147q-94 -95 -144.5 -240t-50.5 -317q0 -274 127.5 -417.5t370.5 -143.5q121 0 218 32t241 121l20 -14l-20 -74q-139 -95 -259 -134.5 t-268 -39.5h-10h-6l-65 -94q32 4 47 4q80 0 125 -38t45 -105q0 -78 -68.5 -125t-183.5 -47q-72 0 -180 41l34 59q88 -29 142 -29q48 0 78 25.5t30 66.5q0 34 -27 56t-69 22q-21 0 -68 -12l-18 16l104 164l-6 2q-249 25 -381.5 183t-132.5 430z" />
<glyph unicode="&#xc8;" horiz-adv-x="1251" d="M61 -6l11 53q67 10 92.5 24t30.5 42l178 1032q18 99 18 158q0 50 -72 53l-110 4l6 57q164 -6 328 -6q81 0 242 3t241 3q74 0 141 -6q-34 -115 -43 -311h-49l-16 182q-1 23 -60 36t-159 13q-85 -2 -267 -8q-9 -19 -18 -66l-86 -487h76l448 12l8 -14l-38 -92q-18 1 -33 2.5 t-29 2.5t-67 2t-142 1h-239l-88 -518q-5 -31 -5 -72q151 -14 269 -14q91 0 184 6t123 14q32 8 49.5 30.5t30.5 76.5l33 123h55q-34 -178 -43 -256l-8 -74q-11 0 -61 -3t-154 -3q-77 0 -230.5 3t-230.5 3q-160 0 -316 -6zM618 1761q6 20 37.5 35.5t65.5 15.5q37 0 59 -28 l254 -252h-76l-299 168q-30 18 -38.5 30.5t-2.5 30.5z" />
<glyph unicode="&#xc9;" horiz-adv-x="1251" d="M61 -6l11 53q67 10 92.5 24t30.5 42l178 1032q18 99 18 158q0 50 -72 53l-110 4l6 57q164 -6 328 -6q81 0 242 3t241 3q74 0 141 -6q-34 -115 -43 -311h-49l-16 182q-1 23 -60 36t-159 13q-85 -2 -267 -8q-9 -19 -18 -66l-86 -487h76l448 12l8 -14l-38 -92q-18 1 -33 2.5 t-29 2.5t-67 2t-142 1h-239l-88 -518q-5 -31 -5 -72q151 -14 269 -14q91 0 184 6t123 14q32 8 49.5 30.5t30.5 76.5l33 123h55q-34 -178 -43 -256l-8 -74q-11 0 -61 -3t-154 -3q-77 0 -230.5 3t-230.5 3q-160 0 -316 -6zM580 1532l342 252q35 28 69 28t60 -15.5t26 -35.5 q-1 -18 -15 -30.5t-50 -30.5l-357 -168h-75z" />
<glyph unicode="&#xca;" horiz-adv-x="1251" d="M61 -6l11 53q67 10 92.5 24t30.5 42l178 1032q18 99 18 158q0 50 -72 53l-110 4l6 57q164 -6 328 -6q81 0 242 3t241 3q74 0 141 -6q-34 -115 -43 -311h-49l-16 182q-1 23 -60 36t-159 13q-85 -2 -267 -8q-9 -19 -18 -66l-86 -487h76l448 12l8 -14l-38 -92q-18 1 -33 2.5 t-29 2.5t-67 2t-142 1h-239l-88 -518q-5 -31 -5 -72q151 -14 269 -14q91 0 184 6t123 14q32 8 49.5 30.5t30.5 76.5l33 123h55q-34 -178 -43 -256l-8 -74q-11 0 -61 -3t-154 -3q-77 0 -230.5 3t-230.5 3q-160 0 -316 -6zM446 1534l349 281h108l195 -281h-82l-178 174 l-306 -174h-86z" />
<glyph unicode="&#xcb;" horiz-adv-x="1251" d="M61 -6l11 53q67 10 92.5 24t30.5 42l178 1032q18 99 18 158q0 50 -72 53l-110 4l6 57q164 -6 328 -6q81 0 242 3t241 3q74 0 141 -6q-34 -115 -43 -311h-49l-16 182q-1 23 -60 36t-159 13q-85 -2 -267 -8q-9 -19 -18 -66l-86 -487h76l448 12l8 -14l-38 -92q-18 1 -33 2.5 t-29 2.5t-67 2t-142 1h-239l-88 -518q-5 -31 -5 -72q151 -14 269 -14q91 0 184 6t123 14q32 8 49.5 30.5t30.5 76.5l33 123h55q-34 -178 -43 -256l-8 -74q-11 0 -61 -3t-154 -3q-77 0 -230.5 3t-230.5 3q-160 0 -316 -6zM569 1647q0 53 36.5 95t82.5 42q32 0 53 -23.5 t21 -60.5q0 -58 -32 -97.5t-79 -39.5q-38 0 -60 23t-22 61zM897 1647q0 53 36.5 95t82.5 42q32 0 53 -23.5t21 -60.5q0 -58 -32 -97.5t-79 -39.5q-38 0 -60 23t-22 61z" />
<glyph unicode="&#xcc;" horiz-adv-x="681" d="M14 -6l6 57l74 6q23 2 35.5 4t25 10.5t18.5 18.5t13.5 35.5t12.5 52t14 78.5l147 889q19 107 19 158q0 50 -72 53l-96 4l6 57q138 -6 279 -6q115 0 229 6l-6 -57l-72 -6q-59 -4 -76 -21t-28 -78l-183 -1095q-4 -20 -4 -43q0 -31 16.5 -44t57.5 -16l107 -6l-7 -57 q-129 6 -258 6t-258 -6zM322 1761q6 20 37 35.5t65 15.5q37 0 59 -28l254 -252h-75l-300 168q-29 17 -37.5 29.5t-2.5 31.5z" />
<glyph unicode="&#xcd;" horiz-adv-x="681" d="M14 -6l6 57l74 6q23 2 35.5 4t25 10.5t18.5 18.5t13.5 35.5t12.5 52t14 78.5l147 889q19 107 19 158q0 50 -72 53l-96 4l6 57q138 -6 279 -6q115 0 229 6l-6 -57l-72 -6q-59 -4 -76 -21t-28 -78l-183 -1095q-4 -20 -4 -43q0 -31 16.5 -44t57.5 -16l107 -6l-7 -57 q-129 6 -258 6t-258 -6zM283 1532l342 252q35 28 69 28t60 -15.5t26 -35.5q-1 -18 -15 -30.5t-50 -30.5l-357 -168h-75z" />
<glyph unicode="&#xce;" horiz-adv-x="681" d="M14 -6l6 57l74 6q23 2 35.5 4t25 10.5t18.5 18.5t13.5 35.5t12.5 52t14 78.5l147 889q19 107 19 158q0 50 -72 53l-96 4l6 57q138 -6 279 -6q115 0 229 6l-6 -57l-72 -6q-59 -4 -76 -21t-28 -78l-183 -1095q-4 -20 -4 -43q0 -31 16.5 -44t57.5 -16l107 -6l-7 -57 q-129 6 -258 6t-258 -6zM150 1534l348 281h108l195 -281h-82l-178 174l-305 -174h-86z" />
<glyph unicode="&#xcf;" horiz-adv-x="681" d="M14 -6l6 57l74 6q23 2 35.5 4t25 10.5t18.5 18.5t13.5 35.5t12.5 52t14 78.5l147 889q19 107 19 158q0 50 -72 53l-96 4l6 57q138 -6 279 -6q115 0 229 6l-6 -57l-72 -6q-59 -4 -76 -21t-28 -78l-183 -1095q-4 -20 -4 -43q0 -31 16.5 -44t57.5 -16l107 -6l-7 -57 q-129 6 -258 6t-258 -6zM272 1647q0 53 36.5 95t82.5 42q32 0 53 -23.5t21 -60.5q0 -58 -32 -97.5t-79 -39.5q-38 0 -60 23t-22 61zM600 1647q0 53 36.5 95t82.5 42q32 0 53 -23.5t21 -60.5q0 -58 -32 -97.5t-79 -39.5q-38 0 -60 23t-22 61z" />
<glyph unicode="&#xd0;" horiz-adv-x="1593" d="M39 709l12 65h240l63 371q19 120 19 155q0 53 -72 56l-108 4l6 57l252 -6l417 6q150 0 272 -26t191 -76q187 -132 187 -432q0 -255 -139 -473t-378 -340q-79 -41 -161 -58.5t-193 -17.5q-9 0 -40 1t-54 1l-193 4h-65h-47l-191 -6l11 53l16 4q49 12 68.5 25t23.5 37 l103 596h-240zM344 115q190 -31 330 -31q271 0 438 170q103 106 160 261.5t57 334.5q0 253 -131.5 372t-411.5 119q-46 0 -141 -6q-24 -1 -51.5 -2.5t-44.5 -1.5l-94 -557h383l-13 -65h-383l-90 -519q-8 -49 -8 -75z" />
<glyph unicode="&#xd1;" horiz-adv-x="1593" d="M4 -6l10 57l64 6q55 4 73 30t37 122l181 971q10 30 10 61q0 12 -19 36.5t-43 43.5q-40 31 -102 35l-72 4l11 57q82 -6 165 -6q84 0 166 6l707 -1206l164 1001q10 68 10 95q0 25 -17 36.5t-57 12.5l-96 4l10 57q108 -6 215 -6q112 0 226 6l-11 -57l-75 -4q-22 -1 -33 -3 t-23.5 -12t-19 -22.5t-15 -43.5t-15 -66t-17.5 -99l-193 -1133h-102l-692 1182l-164 -950q-6 -34 -6 -62q0 -51 19 -68t81 -22l86 -6l-10 -57q-111 6 -226 6q-113 0 -227 -6zM686 1569q31 112 78.5 161.5t122.5 49.5q53 0 129 -29l123 -49q23 -10 55 -10q31 0 52 18t52 70 h58q-19 -100 -71.5 -155.5t-127.5 -55.5q-45 0 -131 33q-1 0 -23.5 8t-43.5 16.5t-29 13.5q-48 19 -78 19q-38 0 -61 -19t-46 -71h-59z" />
<glyph unicode="&#xd2;" horiz-adv-x="1593" d="M109 557q0 254 108.5 457t301 317.5t431.5 114.5q277 0 429.5 -151t152.5 -425q0 -243 -112 -453.5t-306 -330.5q-195 -123 -452 -123q-270 0 -411.5 152t-141.5 442zM289 567q0 -256 113.5 -387t334.5 -131q240 0 393 156q105 108 163.5 274t58.5 359q0 339 -199 456 q-109 66 -266 66q-232 0 -375 -146q-106 -106 -164.5 -276.5t-58.5 -370.5zM778 1761q6 20 37.5 35.5t65.5 15.5q37 0 59 -28l254 -252h-76l-299 168q-30 18 -38.5 30.5t-2.5 30.5z" />
<glyph unicode="&#xd3;" horiz-adv-x="1593" d="M109 557q0 254 108.5 457t301 317.5t431.5 114.5q277 0 429.5 -151t152.5 -425q0 -243 -112 -453.5t-306 -330.5q-195 -123 -452 -123q-270 0 -411.5 152t-141.5 442zM289 567q0 -256 113.5 -387t334.5 -131q240 0 393 156q105 108 163.5 274t58.5 359q0 339 -199 456 q-109 66 -266 66q-232 0 -375 -146q-106 -106 -164.5 -276.5t-58.5 -370.5zM739 1532l342 252q35 28 70 28q34 0 60 -15.5t26 -35.5q-1 -18 -15 -30.5t-51 -30.5l-356 -168h-76z" />
<glyph unicode="&#xd4;" horiz-adv-x="1593" d="M109 557q0 254 108.5 457t301 317.5t431.5 114.5q277 0 429.5 -151t152.5 -425q0 -243 -112 -453.5t-306 -330.5q-195 -123 -452 -123q-270 0 -411.5 152t-141.5 442zM289 567q0 -256 113.5 -387t334.5 -131q240 0 393 156q105 108 163.5 274t58.5 359q0 339 -199 456 q-109 66 -266 66q-232 0 -375 -146q-106 -106 -164.5 -276.5t-58.5 -370.5zM606 1534l348 281h109l194 -281h-81l-179 174l-305 -174h-86z" />
<glyph unicode="&#xd5;" horiz-adv-x="1593" d="M109 557q0 254 108.5 457t301 317.5t431.5 114.5q277 0 429.5 -151t152.5 -425q0 -243 -112 -453.5t-306 -330.5q-195 -123 -452 -123q-270 0 -411.5 152t-141.5 442zM289 567q0 -256 113.5 -387t334.5 -131q240 0 393 156q105 108 163.5 274t58.5 359q0 339 -199 456 q-109 66 -266 66q-232 0 -375 -146q-106 -106 -164.5 -276.5t-58.5 -370.5zM657 1569q31 112 78.5 161.5t122.5 49.5q53 0 129 -29l123 -49q23 -10 55 -10q31 0 53 18t52 70h57q-19 -100 -71.5 -155.5t-127.5 -55.5q-45 0 -131 33q-1 0 -23.5 8t-43.5 16.5t-29 13.5 q-47 19 -78 19q-38 0 -60.5 -19t-45.5 -71h-60z" />
<glyph unicode="&#xd6;" horiz-adv-x="1593" d="M109 557q0 254 108.5 457t301 317.5t431.5 114.5q277 0 429.5 -151t152.5 -425q0 -243 -112 -453.5t-306 -330.5q-195 -123 -452 -123q-270 0 -411.5 152t-141.5 442zM289 567q0 -256 113.5 -387t334.5 -131q240 0 393 156q105 108 163.5 274t58.5 359q0 339 -199 456 q-109 66 -266 66q-232 0 -375 -146q-106 -106 -164.5 -276.5t-58.5 -370.5zM729 1647q0 53 36.5 95t82.5 42q32 0 53 -23.5t21 -60.5q0 -58 -32 -97.5t-79 -39.5q-38 0 -60 23t-22 61zM1057 1647q0 53 36.5 95t82.5 42q32 0 52.5 -23.5t20.5 -60.5q0 -59 -31.5 -98 t-78.5 -39q-38 0 -60 23t-22 61z" />
<glyph unicode="&#xd7;" horiz-adv-x="1241" d="M199 172l340 340l-340 340l82 82l340 -340l340 340l81 -82l-340 -340l340 -340l-81 -82l-340 340l-340 -340z" />
<glyph unicode="&#xd8;" horiz-adv-x="1593" d="M66 -31l159 170q-64 91 -90 186.5t-26 233.5q0 188 63.5 353t174.5 282t267 184.5t334 67.5q123 0 217.5 -30t188.5 -99l147 160l60 -54l-152 -161q69 -86 96 -169t27 -208q0 -259 -112 -470.5t-308.5 -331.5t-437.5 -120q-128 0 -220 29t-180 96l-151 -168zM289 563 q0 -92 12.5 -158.5t42.5 -136.5l889 961q-79 72 -157.5 101.5t-188.5 29.5q-232 0 -375 -146q-106 -107 -164.5 -278t-58.5 -373zM387 199q69 -80 151.5 -115t200.5 -35q238 0 391 156q106 109 164 275.5t58 363.5q0 103 -16 171.5t-58 145.5z" />
<glyph unicode="&#xd9;" horiz-adv-x="1593" d="M180 1360l6 57q91 -6 185 -6q91 0 182 6l-180 -977q-15 -79 -15 -123q0 -110 76.5 -173.5t208.5 -63.5q264 0 496 282l145 912q6 42 -9.5 61.5t-60.5 20.5l-98 4l6 57q138 -6 281 -6q114 0 231 6l-6 -57l-74 -6q-58 -4 -76.5 -22t-27.5 -77l-174 -1038q-12 -78 -12 -115 q0 -20 15 -30t50 -13l123 -8l-10 -57q-86 6 -174 6q-92 0 -183 -6l-10 10q37 156 55 260q-79 -91 -139 -139t-153 -94q-140 -70 -273 -70q-172 0 -269 89t-97 247q0 57 12 125l131 768q14 82 14 119q0 26 -14.5 35.5t-54.5 11.5zM760 1761q6 20 37 35.5t65 15.5q38 0 60 -28 l254 -252h-76l-299 168q-30 18 -38.5 30.5t-2.5 30.5z" />
<glyph unicode="&#xda;" horiz-adv-x="1593" d="M180 1360l6 57q91 -6 185 -6q91 0 182 6l-180 -977q-15 -79 -15 -123q0 -110 76.5 -173.5t208.5 -63.5q264 0 496 282l145 912q6 42 -9.5 61.5t-60.5 20.5l-98 4l6 57q138 -6 281 -6q114 0 231 6l-6 -57l-74 -6q-58 -4 -76.5 -22t-27.5 -77l-174 -1038q-12 -78 -12 -115 q0 -20 15 -30t50 -13l123 -8l-10 -57q-86 6 -174 6q-92 0 -183 -6l-10 10q37 156 55 260q-79 -91 -139 -139t-153 -94q-140 -70 -273 -70q-172 0 -269 89t-97 247q0 57 12 125l131 768q14 82 14 119q0 26 -14.5 35.5t-54.5 11.5zM721 1532l342 252q35 28 70 28 q34 0 60 -15.5t26 -35.5q-1 -18 -15 -30.5t-51 -30.5l-356 -168h-76z" />
<glyph unicode="&#xdb;" horiz-adv-x="1593" d="M180 1360l6 57q91 -6 185 -6q91 0 182 6l-180 -977q-15 -79 -15 -123q0 -110 76.5 -173.5t208.5 -63.5q264 0 496 282l145 912q6 42 -9.5 61.5t-60.5 20.5l-98 4l6 57q138 -6 281 -6q114 0 231 6l-6 -57l-74 -6q-58 -4 -76.5 -22t-27.5 -77l-174 -1038q-12 -78 -12 -115 q0 -20 15 -30t50 -13l123 -8l-10 -57q-86 6 -174 6q-92 0 -183 -6l-10 10q37 156 55 260q-79 -91 -139 -139t-153 -94q-140 -70 -273 -70q-172 0 -269 89t-97 247q0 57 12 125l131 768q14 82 14 119q0 26 -14.5 35.5t-54.5 11.5zM588 1534l348 281h108l195 -281h-82 l-178 174l-305 -174h-86z" />
<glyph unicode="&#xdc;" horiz-adv-x="1593" d="M180 1360l6 57q91 -6 185 -6q91 0 182 6l-180 -977q-15 -79 -15 -123q0 -110 76.5 -173.5t208.5 -63.5q264 0 496 282l145 912q6 42 -9.5 61.5t-60.5 20.5l-98 4l6 57q138 -6 281 -6q114 0 231 6l-6 -57l-74 -6q-58 -4 -76.5 -22t-27.5 -77l-174 -1038q-12 -78 -12 -115 q0 -20 15 -30t50 -13l123 -8l-10 -57q-86 6 -174 6q-92 0 -183 -6l-10 10q37 156 55 260q-79 -91 -139 -139t-153 -94q-140 -70 -273 -70q-172 0 -269 89t-97 247q0 57 12 125l131 768q14 82 14 119q0 26 -14.5 35.5t-54.5 11.5zM711 1647q0 53 36 95t82 42q32 0 53 -23.5 t21 -60.5q0 -59 -31.5 -98t-78.5 -39q-38 0 -60 23t-22 61zM1038 1647q0 53 36.5 95t82.5 42q32 0 53 -23.5t21 -60.5q0 -58 -32 -97.5t-79 -39.5q-38 0 -60 23t-22 61z" />
<glyph unicode="&#xdd;" horiz-adv-x="1366" d="M106 1325l162 119q96 -1 165 -74t133 -244t143 -491q85 225 262 463q113 153 205 226t206 103l-12 -145q-91 -15 -164 -67t-162 -166q-113 -141 -201 -300.5t-102 -244.5l-53 -344q-4 -20 -4 -43q0 -31 16.5 -44t57.5 -16l100 -6l-6 -57q-126 6 -252 6q-144 0 -285 -6 l9 57l98 6q24 2 35.5 3.5t24.5 10t18.5 18t13.5 35t13 53t14 79.5l45 270q0 25 -45.5 187.5t-81.5 263.5q-63 172 -122.5 247.5t-131.5 75.5q-29 0 -92 -24zM616 1532l342 252q35 28 70 28q34 0 60 -15.5t26 -35.5q-1 -18 -15 -30.5t-50 -30.5l-357 -168h-76z" />
<glyph unicode="&#xde;" horiz-adv-x="1251" d="M18 -6l9 57l84 6q24 2 35 3t24.5 10t18 17.5t13 35.5t13 52.5t14.5 80.5l152 889q18 113 18 155q0 53 -71 56l-97 4l7 57l131 -4l157 -2l185 6h49l-6 -57l-86 -6q-57 -5 -76 -22t-29 -77l-26 -145q147 0 170 2q45 2 100 2q173 0 266.5 -84t93.5 -239q0 -130 -63.5 -240 t-173.5 -174t-240 -64q-97 0 -184 43l-8 66q81 -37 164 -37q154 0 239.5 93.5t85.5 260.5q0 152 -76 226.5t-233 74.5q-47 0 -148 -16l-12 -49l-18 -90l-119 -695q-8 -49 -8 -71q0 -32 16.5 -46.5t56.5 -15.5l134 -6l-7 -57l-108 2l-176 4l-185 -4z" />
<glyph unicode="&#xdf;" d="M-328 -557q27 75 45 170l23 4q52 -61 108 -61q47 0 92 39t70 102q17 40 40.5 133t37.5 170l139 784h-166l9 45l114 48q65 26 68 43l31 165q17 91 50 141.5t118 114.5q90 68 191.5 114t164.5 46q78 0 135 -61t57 -146t-38 -162.5t-138 -197.5q-55 -66 -73.5 -100.5 t-18.5 -71.5q0 -34 16.5 -75t63.5 -124l37 -63q63 -108 63 -162q0 -79 -56.5 -166.5t-141.5 -146t-162 -58.5q-73 0 -160 43q12 34 26 107t17 112h41v-114q55 -58 133 -58q74 0 122 52.5t48 134.5q0 57 -28 112l-111 215q-35 72 -35 109q0 46 66 139q9 12 26.5 38t26.5 38 q85 119 117 189.5t32 138.5q0 77 -50.5 128.5t-125.5 51.5t-135.5 -46t-89.5 -126q-21 -57 -38.5 -137.5t-35 -179t-26.5 -140.5l-148 -694q-41 -192 -93.5 -310.5t-135.5 -207.5q-121 -127 -248 -127q-43 0 -74 8z" />
<glyph unicode="&#xe0;" horiz-adv-x="909" d="M8 135q0 123 43 288t111 302q39 76 94.5 127t151.5 98q75 37 153 37q73 0 174 -39l68 37l20 -18l-188 -777q-2 -6 -2 -20q0 -49 31 -49q23 0 49.5 16t77.5 58q5 4 26 22l14 -43q-129 -107 -197 -152t-102 -45q-23 0 -36 20.5t-13 55.5q0 45 13 105l59 260 q-159 -225 -283 -332q-126 -109 -194 -109q-29 0 -49.5 46t-20.5 112zM156 203q0 -82 37 -82q51 0 137.5 83.5t171.5 213.5q51 78 84 172t67 258q-111 39 -174 39q-75 0 -118 -33.5t-80 -122.5q-54 -127 -89.5 -278t-35.5 -250zM419.5 1304q-6.5 16 0.5 39q9 25 39 44.5 t61 19.5t55 -37l203 -309h-69l-258 207q-25 20 -31.5 36z" />
<glyph unicode="&#xe1;" horiz-adv-x="909" d="M8 135q0 123 43 288t111 302q39 76 94.5 127t151.5 98q75 37 153 37q73 0 174 -39l68 37l20 -18l-188 -777q-2 -6 -2 -20q0 -49 31 -49q23 0 49.5 16t77.5 58q5 4 26 22l14 -43q-129 -107 -197 -152t-102 -45q-23 0 -36 20.5t-13 55.5q0 45 13 105l59 260 q-159 -225 -283 -332q-126 -109 -194 -109q-29 0 -49.5 46t-20.5 112zM156 203q0 -82 37 -82q51 0 137.5 83.5t171.5 213.5q51 78 84 172t67 258q-111 39 -174 39q-75 0 -118 -33.5t-80 -122.5q-54 -127 -89.5 -278t-35.5 -250zM369 1061l313 309q37 37 68 37t54 -19.5 t23 -44.5q0 -23 -12 -38.5t-45 -36.5l-332 -207h-69z" />
<glyph unicode="&#xe2;" horiz-adv-x="909" d="M8 135q0 123 43 288t111 302q39 76 94.5 127t151.5 98q75 37 153 37q73 0 174 -39l68 37l20 -18l-188 -777q-2 -6 -2 -20q0 -49 31 -49q23 0 49.5 16t77.5 58q5 4 26 22l14 -43q-129 -107 -197 -152t-102 -45q-23 0 -36 20.5t-13 55.5q0 45 13 105l59 260 q-159 -225 -283 -332q-126 -109 -194 -109q-29 0 -49.5 46t-20.5 112zM156 203q0 -82 37 -82q51 0 137.5 83.5t171.5 213.5q51 78 84 172t67 258q-111 39 -174 39q-75 0 -118 -33.5t-80 -122.5q-54 -127 -89.5 -278t-35.5 -250zM250 1063l321 346h101l180 -346h-74l-168 213 l-280 -213h-80z" />
<glyph unicode="&#xe3;" horiz-adv-x="909" d="M8 135q0 123 43 288t111 302q39 76 94.5 127t151.5 98q75 37 153 37q73 0 174 -39l68 37l20 -18l-188 -777q-2 -6 -2 -20q0 -49 31 -49q23 0 49.5 16t77.5 58q5 4 26 22l14 -43q-129 -107 -197 -152t-102 -45q-23 0 -36 20.5t-13 55.5q0 45 13 105l59 260 q-159 -225 -283 -332q-126 -109 -194 -109q-29 0 -49.5 46t-20.5 112zM156 203q0 -82 37 -82q51 0 137.5 83.5t171.5 213.5q51 78 84 172t67 258q-111 39 -174 39q-75 0 -118 -33.5t-80 -122.5q-54 -127 -89.5 -278t-35.5 -250zM270 1130q31 112 78.5 161.5t122.5 49.5 q56 0 129 -28l123 -49q26 -11 55 -11q31 0 53 18t52 70h57q-19 -100 -71.5 -155.5t-127.5 -55.5q-45 0 -131 33l-24 9q-23 8 -43.5 16.5t-28.5 13.5q-48 19 -78 19q-38 0 -60.5 -19t-45.5 -72h-60z" />
<glyph unicode="&#xe4;" horiz-adv-x="909" d="M8 135q0 123 43 288t111 302q39 76 94.5 127t151.5 98q75 37 153 37q73 0 174 -39l68 37l20 -18l-188 -777q-2 -6 -2 -20q0 -49 31 -49q23 0 49.5 16t77.5 58q5 4 26 22l14 -43q-129 -107 -197 -152t-102 -45q-23 0 -36 20.5t-13 55.5q0 45 13 105l59 260 q-159 -225 -283 -332q-126 -109 -194 -109q-29 0 -49.5 46t-20.5 112zM156 203q0 -82 37 -82q51 0 137.5 83.5t171.5 213.5q51 78 84 172t67 258q-111 39 -174 39q-75 0 -118 -33.5t-80 -122.5q-54 -127 -89.5 -278t-35.5 -250zM342 1208q0 53 36.5 95.5t82.5 42.5 q32 0 53 -23.5t21 -60.5q0 -59 -32 -98.5t-79 -39.5q-38 0 -60 23t-22 61zM670 1208q0 53 36 95.5t82 42.5q32 0 53 -23.5t21 -60.5q0 -59 -31.5 -98.5t-78.5 -39.5q-38 0 -60 23t-22 61z" />
<glyph unicode="&#xe5;" horiz-adv-x="909" d="M8 135q0 123 43 288t111 302q39 76 94.5 127t151.5 98q75 37 153 37q73 0 174 -39l68 37l20 -18l-188 -777q-2 -6 -2 -20q0 -49 31 -49q23 0 49.5 16t77.5 58q5 4 26 22l14 -43q-129 -107 -197 -152t-102 -45q-23 0 -36 20.5t-13 55.5q0 45 13 105l59 260 q-159 -225 -283 -332q-126 -109 -194 -109q-29 0 -49.5 46t-20.5 112zM156 203q0 -82 37 -82q51 0 137.5 83.5t171.5 213.5q51 78 84 172t67 258q-111 39 -174 39q-75 0 -118 -33.5t-80 -122.5q-54 -127 -89.5 -278t-35.5 -250zM399 1235q0 86 60.5 145.5t146.5 59.5 q83 0 143 -60t60 -145q0 -86 -60 -145.5t-145 -59.5q-86 0 -145.5 59.5t-59.5 145.5zM477 1235q0 -59 35 -95t92 -36t92 36t35 95t-35 95t-92 36t-92 -36t-35 -95z" />
<glyph unicode="&#xe6;" horiz-adv-x="1306" d="M2 188q0 328 440 328h140q12 37 12 113q0 127 -57.5 193.5t-167.5 66.5q-50 0 -109 -19q-16 -13 -22 -28l-41 -119l-37 10l-13 139q9 5 23.5 15t28.5 18q73 49 120 65.5t115 16.5q109 0 173.5 -43t111.5 -149q128 104 215.5 148t169.5 44q75 0 123.5 -45t48.5 -117 q0 -75 -56 -149t-151 -121q-141 -72 -354 -84q-27 -140 -27 -201q0 -91 46 -143.5t126 -52.5q52 0 105 23t143 83q7 5 17.5 12l19.5 13l41 26l14 -45q-151 -122 -237.5 -165.5t-178.5 -43.5q-97 0 -151.5 44t-83.5 145q-108 -105 -185.5 -147t-164.5 -42q-197 0 -197 211z M152 213q0 -66 35.5 -102.5t101.5 -36.5q88 0 162 75t106 199q11 39 21 119h-78q-177 0 -262.5 -62.5t-85.5 -191.5zM723 522q74 8 104 13q135 25 216 95.5t81 164.5q0 51 -29.5 78.5t-84.5 27.5q-122 0 -209 -137q-36 -56 -52.5 -107.5t-25.5 -134.5z" />
<glyph unicode="&#xe7;" horiz-adv-x="833" d="M51 279q0 164 53.5 310.5t141.5 223.5t186.5 125.5t167.5 48.5q121 0 197 -49q-27 -80 -49 -262h-48v123q0 37 -48 62.5t-117 25.5q-98 0 -160 -53q-74 -60 -121 -202.5t-47 -305.5q0 -244 174 -244q54 0 120.5 29.5t176.5 103.5l31 21l16 -41l-102 -84 q-140 -116 -275 -131l-76 -111q32 4 47 4q80 0 125 -38t45 -105q0 -78 -68 -125t-183 -47q-73 0 -181 41l35 59q88 -29 141 -29q48 0 78.5 25.5t30.5 66.5q0 34 -27 56t-69 22q-21 0 -68 -12l-18 16l110 177q-219 21 -219 299z" />
<glyph unicode="&#xe8;" horiz-adv-x="796" d="M31 229q0 107 39.5 261t85.5 229q62 98 200 183t238 85q78 0 125 -44t47 -116q0 -95 -61.5 -166.5t-192.5 -130.5q-91 -40 -141 -51l-168 -41q-17 -84 -17 -164q0 -94 41.5 -147t114.5 -53q115 0 281 119l49 34l16 -39q-143 -116 -237.5 -163.5t-182.5 -47.5 q-111 0 -174 67t-63 185zM213 485q131 29 223 72q79 38 128.5 104t49.5 134q0 49 -26.5 77.5t-71.5 28.5q-39 0 -83 -17.5t-73 -45.5q-80 -74 -129 -277zM370 1304q-6 16 1 39q9 25 39 44.5t61 19.5t55 -37l203 -309h-70l-258 207q-25 20 -31 36z" />
<glyph unicode="&#xe9;" horiz-adv-x="796" d="M31 229q0 107 39.5 261t85.5 229q62 98 200 183t238 85q78 0 125 -44t47 -116q0 -95 -61.5 -166.5t-192.5 -130.5q-91 -40 -141 -51l-168 -41q-17 -84 -17 -164q0 -94 41.5 -147t114.5 -53q115 0 281 119l49 34l16 -39q-143 -116 -237.5 -163.5t-182.5 -47.5 q-111 0 -174 67t-63 185zM213 485q131 29 223 72q79 38 128.5 104t49.5 134q0 49 -26.5 77.5t-71.5 28.5q-39 0 -83 -17.5t-73 -45.5q-80 -74 -129 -277zM319 1061l314 309q37 37 67 37q31 0 54.5 -19.5t23.5 -44.5q0 -23 -12 -38.5t-45 -36.5l-332 -207h-70z" />
<glyph unicode="&#xea;" horiz-adv-x="796" d="M31 229q0 107 39.5 261t85.5 229q62 98 200 183t238 85q78 0 125 -44t47 -116q0 -95 -61.5 -166.5t-192.5 -130.5q-91 -40 -141 -51l-168 -41q-17 -84 -17 -164q0 -94 41.5 -147t114.5 -53q115 0 281 119l49 34l16 -39q-143 -116 -237.5 -163.5t-182.5 -47.5 q-111 0 -174 67t-63 185zM201 1063l321 346h101l180 -346h-74l-168 213l-280 -213h-80zM213 485q131 29 223 72q79 38 128.5 104t49.5 134q0 49 -26.5 77.5t-71.5 28.5q-39 0 -83 -17.5t-73 -45.5q-80 -74 -129 -277z" />
<glyph unicode="&#xeb;" horiz-adv-x="796" d="M31 229q0 107 39.5 261t85.5 229q62 98 200 183t238 85q78 0 125 -44t47 -116q0 -95 -61.5 -166.5t-192.5 -130.5q-91 -40 -141 -51l-168 -41q-17 -84 -17 -164q0 -94 41.5 -147t114.5 -53q115 0 281 119l49 34l16 -39q-143 -116 -237.5 -163.5t-182.5 -47.5 q-111 0 -174 67t-63 185zM213 485q131 29 223 72q79 38 128.5 104t49.5 134q0 49 -26.5 77.5t-71.5 28.5q-39 0 -83 -17.5t-73 -45.5q-80 -74 -129 -277zM293 1208q0 53 36.5 95.5t82.5 42.5q32 0 52.5 -23.5t20.5 -60.5q0 -59 -31.5 -98.5t-78.5 -39.5q-38 0 -60 23t-22 61 zM621 1208q0 53 36 95.5t82 42.5q32 0 53 -23.5t21 -60.5q0 -59 -32 -98.5t-79 -39.5q-38 0 -59.5 22.5t-21.5 61.5z" />
<glyph unicode="&#xec;" horiz-adv-x="569" d="M70 795l57 41q117 83 178.5 117t95.5 34q52 0 52 -53q0 -17 -13 -74l-157 -622q-15 -56 -15 -82q0 -17 8 -29t19 -12q34 0 125 61l53 35l21 -37q-150 -111 -219 -151.5t-109 -40.5q-29 0 -45.5 21t-16.5 58q0 59 27 158l135 492q17 66 17 90q0 19 -10 31t-25 12 q-27 0 -98 -47l-66 -43zM259.5 1304q-6.5 16 0.5 39q9 25 39 44.5t61 19.5q32 0 56 -37l202 -309h-69l-258 207q-25 20 -31.5 36z" />
<glyph unicode="&#xed;" horiz-adv-x="569" d="M70 795l57 41q117 83 178.5 117t95.5 34q52 0 52 -53q0 -17 -13 -74l-157 -622q-15 -56 -15 -82q0 -17 8 -29t19 -12q34 0 125 61l53 35l21 -37q-150 -111 -219 -151.5t-109 -40.5q-29 0 -45.5 21t-16.5 58q0 59 27 158l135 492q17 66 17 90q0 19 -10 31t-25 12 q-27 0 -98 -47l-66 -43zM209 1061l313 309q37 37 68 37t54.5 -19.5t23.5 -44.5q0 -23 -12.5 -38.5t-45.5 -36.5l-331 -207h-70z" />
<glyph unicode="&#xee;" horiz-adv-x="569" d="M70 795l57 41q117 83 178.5 117t95.5 34q52 0 52 -53q0 -17 -13 -74l-157 -622q-15 -56 -15 -82q0 -17 8 -29t19 -12q34 0 125 61l53 35l21 -37q-150 -111 -219 -151.5t-109 -40.5q-29 0 -45.5 21t-16.5 58q0 59 27 158l135 492q17 66 17 90q0 19 -10 31t-25 12 q-27 0 -98 -47l-66 -43zM90 1063l322 346h100l180 -346h-74l-167 213l-281 -213h-80z" />
<glyph unicode="&#xef;" horiz-adv-x="569" d="M70 795l57 41q117 83 178.5 117t95.5 34q52 0 52 -53q0 -17 -13 -74l-157 -622q-15 -56 -15 -82q0 -17 8 -29t19 -12q34 0 125 61l53 35l21 -37q-150 -111 -219 -151.5t-109 -40.5q-29 0 -45.5 21t-16.5 58q0 59 27 158l135 492q17 66 17 90q0 19 -10 31t-25 12 q-27 0 -98 -47l-66 -43zM182 1208q0 53 36.5 95.5t82.5 42.5q32 0 53 -23.5t21 -60.5q0 -59 -32 -98.5t-79 -39.5q-38 0 -60 23t-22 61zM510 1208q0 53 36.5 95.5t82.5 42.5q32 0 52.5 -23.5t20.5 -60.5q0 -59 -31.5 -98.5t-78.5 -39.5q-38 0 -60 23t-22 61z" />
<glyph unicode="&#xf0;" horiz-adv-x="909" d="M35 305q0 158 55.5 304t155.5 249q60 61 139 95t162 34q39 0 69 -8.5t72 -32.5q-3 124 -67 246l-277 -135l-25 59l265 133q-90 123 -215 160l41 92q96 -51 155.5 -98t112.5 -113l276 135l25 -59l-266 -129q121 -263 121 -516q0 -173 -61.5 -338t-168.5 -277 q-58 -61 -137 -95t-162 -34q-132 0 -201 83.5t-69 244.5zM190 326q0 -271 189 -271q126 0 207 144q45 80 73.5 211t28.5 258q0 123 -45.5 182t-140.5 59q-134 0 -215 -139q-43 -75 -70 -199t-27 -245z" />
<glyph unicode="&#xf1;" horiz-adv-x="1138" d="M49 795l57 41q214 151 273 151q47 0 47 -67q0 -28 -12 -84l-78 -330q79 112 131 174t111 117q91 85 187.5 137.5t160.5 52.5q63 0 63 -74q0 -58 -22 -151l-136 -565q-4 -16 -4 -41q0 -17 8 -29t19 -12q33 0 125 61l53 35l21 -37q-149 -111 -218.5 -151.5t-109.5 -40.5 q-29 0 -45 21.5t-16 59.5q0 46 26 156l107 434q22 91 22 146q0 49 -35 49q-69 0 -170 -85t-186 -214q-69 -106 -108 -223t-68 -310q-54 -10 -143 -34l-15 22q63 220 115.5 467.5t52.5 325.5q0 23 -10 37t-27 14q-12 0 -28 -8.5t-68 -42.5l-66 -43zM360 1130 q31 112 78.5 161.5t122.5 49.5q56 0 129 -28l123 -49q26 -11 55 -11q31 0 53 18t52 70h57q-19 -100 -71.5 -155.5t-127.5 -55.5q-45 0 -131 33l-24 9q-23 8 -43.5 16.5t-28.5 13.5q-48 19 -78 19q-38 0 -60.5 -19t-45.5 -72h-60z" />
<glyph unicode="&#xf2;" horiz-adv-x="909" d="M35 311q0 188 67 337.5t191 238.5q139 100 276 100q128 0 200.5 -82t72.5 -227q0 -155 -61 -312.5t-156 -248.5q-70 -65 -157 -102.5t-171 -37.5q-128 0 -195 85.5t-67 248.5zM190 309q0 -121 49.5 -187.5t139.5 -66.5q94 0 153 68q68 82 111 228t43 294q0 129 -49 196.5 t-143 67.5q-82 0 -123 -35q-75 -62 -128 -227t-53 -338zM396.5 1304q-6.5 16 0.5 39q9 25 39.5 44.5t61.5 19.5t55 -37l203 -309h-70l-258 207q-25 20 -31.5 36z" />
<glyph unicode="&#xf3;" horiz-adv-x="909" d="M35 311q0 188 67 337.5t191 238.5q139 100 276 100q128 0 200.5 -82t72.5 -227q0 -155 -61 -312.5t-156 -248.5q-70 -65 -157 -102.5t-171 -37.5q-128 0 -195 85.5t-67 248.5zM190 309q0 -121 49.5 -187.5t139.5 -66.5q94 0 153 68q68 82 111 228t43 294q0 129 -49 196.5 t-143 67.5q-82 0 -123 -35q-75 -62 -128 -227t-53 -338zM346 1061l313 309q37 37 68 37t54.5 -19.5t23.5 -44.5q0 -23 -12 -38.5t-45 -36.5l-332 -207h-70z" />
<glyph unicode="&#xf4;" horiz-adv-x="909" d="M35 311q0 188 67 337.5t191 238.5q139 100 276 100q128 0 200.5 -82t72.5 -227q0 -155 -61 -312.5t-156 -248.5q-70 -65 -157 -102.5t-171 -37.5q-128 0 -195 85.5t-67 248.5zM190 309q0 -121 49.5 -187.5t139.5 -66.5q94 0 153 68q68 82 111 228t43 294q0 129 -49 196.5 t-143 67.5q-82 0 -123 -35q-75 -62 -128 -227t-53 -338zM227 1063l322 346h100l180 -346h-73l-168 213l-281 -213h-80z" />
<glyph unicode="&#xf5;" horiz-adv-x="909" d="M35 311q0 188 67 337.5t191 238.5q139 100 276 100q128 0 200.5 -82t72.5 -227q0 -155 -61 -312.5t-156 -248.5q-70 -65 -157 -102.5t-171 -37.5q-128 0 -195 85.5t-67 248.5zM190 309q0 -121 49.5 -187.5t139.5 -66.5q94 0 153 68q68 82 111 228t43 294q0 129 -49 196.5 t-143 67.5q-82 0 -123 -35q-75 -62 -128 -227t-53 -338zM248 1130q31 112 78.5 161.5t122.5 49.5q56 0 129 -28l122 -49q26 -11 56 -11q31 0 52 18t52 70h58q-19 -100 -71.5 -155.5t-127.5 -55.5q-45 0 -131 33l-24 9q-23 8 -43.5 16.5t-28.5 13.5q-48 19 -78 19 q-38 0 -61 -19.5t-46 -71.5h-59z" />
<glyph unicode="&#xf6;" horiz-adv-x="909" d="M35 311q0 188 67 337.5t191 238.5q139 100 276 100q128 0 200.5 -82t72.5 -227q0 -155 -61 -312.5t-156 -248.5q-70 -65 -157 -102.5t-171 -37.5q-128 0 -195 85.5t-67 248.5zM190 309q0 -121 49.5 -187.5t139.5 -66.5q94 0 153 68q68 82 111 228t43 294q0 129 -49 196.5 t-143 67.5q-82 0 -123 -35q-75 -62 -128 -227t-53 -338zM319 1208q0 53 36.5 95.5t82.5 42.5q32 0 53 -23.5t21 -60.5q0 -59 -32 -98.5t-79 -39.5q-38 0 -60 23t-22 61zM647 1208q0 53 36.5 95.5t82.5 42.5q32 0 53 -23.5t21 -60.5q0 -59 -32 -98.5t-79 -39.5q-38 0 -60 23 t-22 61z" />
<glyph unicode="&#xf7;" horiz-adv-x="1241" d="M82 455v114h1077v-114h-1077zM502 158q0 49 34.5 83.5t84.5 34.5q49 0 83.5 -34t34.5 -84t-34.5 -84.5t-83.5 -34.5t-84 34.5t-35 84.5zM502 866q0 50 35 84.5t84 34.5t83.5 -34.5t34.5 -84.5t-34.5 -84t-83.5 -34q-50 0 -84.5 34.5t-34.5 83.5z" />
<glyph unicode="&#xf8;" horiz-adv-x="909" d="M-37 -8l109 123q-39 77 -39 192q0 154 54.5 296t152.5 245q63 66 148.5 102.5t178.5 36.5q127 0 203 -82l123 139l49 -40l-135 -154q35 -84 35 -174q0 -132 -48.5 -275t-125.5 -237q-69 -84 -170.5 -135.5t-198.5 -51.5q-120 0 -193 82l-94 -108zM188 326q0 -18 7 -72 l471 532q-28 65 -67.5 94t-102.5 29q-130 0 -211 -139q-43 -75 -70 -199t-27 -245zM211 176q26 -63 65.5 -92t102.5 -29q124 0 205 144q43 75 72.5 202.5t29.5 237.5q0 11 -4 47v23z" />
<glyph unicode="&#xf9;" horiz-adv-x="1138" d="M66 795l57 41q209 151 272 151q45 0 45 -63q0 -33 -10 -88l-117 -555q-14 -74 -14 -107q0 -53 27 -53q63 0 170 99t198 241q92 147 140 387l20 104l139 35l15 -18l-172 -731q-13 -54 -13 -82q0 -15 7.5 -25t19.5 -10q40 0 125 55l53 35l21 -37q-156 -115 -223 -156 t-105 -41q-29 0 -45.5 23.5t-16.5 62.5q0 52 23 136l76 290q-128 -211 -290 -361.5t-259 -150.5q-30 0 -51 24t-21 58q0 59 8 99l129 608q5 25 5 37q0 17 -10 29t-25 12q-28 0 -99 -47l-65 -43zM515.5 1304q-6.5 16 0.5 39q9 25 39 44.5t61 19.5q32 0 56 -37l202 -309h-69 l-258 207q-25 20 -31.5 36z" />
<glyph unicode="&#xfa;" horiz-adv-x="1138" d="M66 795l57 41q209 151 272 151q45 0 45 -63q0 -33 -10 -88l-117 -555q-14 -74 -14 -107q0 -53 27 -53q63 0 170 99t198 241q92 147 140 387l20 104l139 35l15 -18l-172 -731q-13 -54 -13 -82q0 -15 7.5 -25t19.5 -10q40 0 125 55l53 35l21 -37q-156 -115 -223 -156 t-105 -41q-29 0 -45.5 23.5t-16.5 62.5q0 52 23 136l76 290q-128 -211 -290 -361.5t-259 -150.5q-30 0 -51 24t-21 58q0 59 8 99l129 608q5 25 5 37q0 17 -10 29t-25 12q-28 0 -99 -47l-65 -43zM465 1061l313 309q37 37 68 37t54.5 -19.5t23.5 -44.5q0 -23 -12.5 -38.5 t-45.5 -36.5l-331 -207h-70z" />
<glyph unicode="&#xfb;" horiz-adv-x="1138" d="M66 795l57 41q209 151 272 151q45 0 45 -63q0 -33 -10 -88l-117 -555q-14 -74 -14 -107q0 -53 27 -53q63 0 170 99t198 241q92 147 140 387l20 104l139 35l15 -18l-172 -731q-13 -54 -13 -82q0 -15 7.5 -25t19.5 -10q40 0 125 55l53 35l21 -37q-156 -115 -223 -156 t-105 -41q-29 0 -45.5 23.5t-16.5 62.5q0 52 23 136l76 290q-128 -211 -290 -361.5t-259 -150.5q-30 0 -51 24t-21 58q0 59 8 99l129 608q5 25 5 37q0 17 -10 29t-25 12q-28 0 -99 -47l-65 -43zM346 1063l322 346h100l180 -346h-74l-167 213l-281 -213h-80z" />
<glyph unicode="&#xfc;" horiz-adv-x="1138" d="M66 795l57 41q209 151 272 151q45 0 45 -63q0 -33 -10 -88l-117 -555q-14 -74 -14 -107q0 -53 27 -53q63 0 170 99t198 241q92 147 140 387l20 104l139 35l15 -18l-172 -731q-13 -54 -13 -82q0 -15 7.5 -25t19.5 -10q40 0 125 55l53 35l21 -37q-156 -115 -223 -156 t-105 -41q-29 0 -45.5 23.5t-16.5 62.5q0 52 23 136l76 290q-128 -211 -290 -361.5t-259 -150.5q-30 0 -51 24t-21 58q0 59 8 99l129 608q5 25 5 37q0 17 -10 29t-25 12q-28 0 -99 -47l-65 -43zM438 1208q0 53 36.5 95.5t82.5 42.5q32 0 53 -23.5t21 -60.5q0 -59 -32 -98.5 t-79 -39.5q-38 0 -60 23t-22 61zM766 1208q0 53 36.5 95.5t82.5 42.5q32 0 52.5 -23.5t20.5 -60.5q0 -59 -31.5 -98.5t-78.5 -39.5q-38 0 -60 23t-22 61z" />
<glyph unicode="&#xfd;" d="M-16 -406q0 23 2 37l98 70l20 -8q-4 -36 -4 -45q0 -54 36.5 -90.5t90.5 -36.5q107 0 190 120.5t161 391.5l100 350q-116 -174 -230.5 -290t-171.5 -116q-39 0 -64 41t-24 105l2 82l35 497q8 138 -43 138q-20 0 -51 -25l-102 -61l-23 37l168 114q72 50 102.5 66t51.5 16 q26 0 37.5 -30t11.5 -99q0 -73 -8 -199l-31 -397q0 -17 -1 -44.5t9.5 -54t30.5 -26.5q34 0 98.5 58t118.5 137q51 75 98 174.5t66 171.5l71 270q67 6 152 39l23 -18l-289 -901q-91 -285 -245.5 -459t-317.5 -174q-69 0 -118.5 46.5t-49.5 112.5zM416 1061l313 309 q37 37 68 37t54 -19.5t23 -44.5q0 -23 -12 -38.5t-45 -36.5l-332 -207h-69z" />
<glyph unicode="&#xfe;" d="M-80 -553l17 76l100 493l229 1258q4 28 4 49q0 26 -16 37.5t-53 11.5h-99l9 43q111 11 179.5 28.5t147.5 57.5l25 -22l-193 -889q51 87 89 135.5t98 105.5q82 75 162.5 115.5t146.5 40.5q55 0 88 -62t33 -165q0 -115 -45.5 -262.5t-108.5 -241.5q-66 -97 -209 -188 t-229 -91q-39 0 -107 23l-18 6l-86 -536l-150 -35zM190 121q75 -47 168 -47q128 0 191 90q82 117 136 278.5t54 286.5q0 139 -77 139q-83 0 -176.5 -77t-165 -201t-93.5 -252z" />
<glyph unicode="&#xff;" d="M-16 -406q0 23 2 37l98 70l20 -8q-4 -36 -4 -45q0 -54 36.5 -90.5t90.5 -36.5q107 0 190 120.5t161 391.5l100 350q-116 -174 -230.5 -290t-171.5 -116q-39 0 -64 41t-24 105l2 82l35 497q8 138 -43 138q-20 0 -51 -25l-102 -61l-23 37l168 114q72 50 102.5 66t51.5 16 q26 0 37.5 -30t11.5 -99q0 -73 -8 -199l-31 -397q0 -17 -1 -44.5t9.5 -54t30.5 -26.5q34 0 98.5 58t118.5 137q51 75 98 174.5t66 171.5l71 270q67 6 152 39l23 -18l-289 -901q-91 -285 -245.5 -459t-317.5 -174q-69 0 -118.5 46.5t-49.5 112.5zM389 1208q0 53 36.5 95.5 t82.5 42.5q32 0 53 -23.5t21 -60.5q0 -59 -32 -98.5t-79 -39.5q-38 0 -60 23t-22 61zM717 1208q0 53 36.5 95.5t82.5 42.5q32 0 52.5 -23.5t20.5 -60.5q0 -59 -31.5 -98.5t-78.5 -39.5q-38 0 -60 23t-22 61z" />
<glyph unicode="&#x152;" horiz-adv-x="2105" d="M115 541q0 197 70 378.5t196 307.5q218 221 537 221q132 0 215.5 -37.5t166.5 -134.5l21 141q61 -6 123 -6q81 0 242 3t241 3q73 0 141 -6q-34 -115 -43 -311h-49l-16 182q-2 24 -61.5 38t-157.5 11q-83 -2 -266 -8q-11 -22 -19 -66l-86 -487h76l448 12l9 -14l-39 -92 q-18 1 -33 2.5t-29 2.5t-67 2t-142 1h-239l-88 -518q-4 -25 -4 -72q150 -14 268 -14q91 0 184 6t123 14q32 8 49.5 30.5t30.5 76.5l33 123h55q-34 -178 -43 -256l-8 -74q-11 0 -61 -3t-154 -3q-77 0 -230.5 3t-230.5 3q-105 0 -213 -6l49 190q-64 -70 -109.5 -105 t-107.5 -63q-121 -53 -262 -53q-248 0 -384 151.5t-136 426.5zM295 584q0 -248 99.5 -391.5t271.5 -143.5q177 0 321.5 145t181.5 359l60 346q10 65 10 117q0 169 -94 257.5t-271 88.5q-217 0 -352 -141q-107 -112 -167 -280.5t-60 -356.5z" />
<glyph unicode="&#x153;" horiz-adv-x="1370" d="M35 311q0 146 45.5 275.5t130.5 224.5q71 81 166.5 128.5t183.5 47.5t151 -43t107 -133q137 101 212.5 138.5t144.5 37.5q72 0 117.5 -47t45.5 -119q0 -138 -155 -239q-64 -40 -152.5 -74t-245.5 -78q-18 -103 -18 -170q0 -86 43.5 -136t118.5 -50q110 0 280 121l45 32 l13 -47q-137 -113 -228.5 -158t-181.5 -45q-89 0 -146.5 43t-76.5 125q-91 -94 -164 -131t-168 -37q-268 0 -268 334zM190 313q0 -131 47.5 -194.5t145.5 -63.5q116 0 176 101q53 89 87 234t34 278q0 118 -49.5 179.5t-143.5 61.5q-77 0 -129.5 -47t-93.5 -153 q-74 -189 -74 -396zM795 479q190 43 291.5 124t101.5 190q0 52 -24 80t-68 28q-66 0 -127 -41t-99 -110q-24 -45 -39 -100t-36 -171z" />
<glyph unicode="&#x178;" horiz-adv-x="1366" d="M106 1325l162 119q96 -1 165 -74t133 -244t143 -491q85 225 262 463q113 153 205 226t206 103l-12 -145q-91 -15 -164 -67t-162 -166q-113 -141 -201 -300.5t-102 -244.5l-53 -344q-4 -20 -4 -43q0 -31 16.5 -44t57.5 -16l100 -6l-6 -57q-126 6 -252 6q-144 0 -285 -6 l9 57l98 6q24 2 35.5 3.5t24.5 10t18.5 18t13.5 35t13 53t14 79.5l45 270q0 25 -45.5 187.5t-81.5 263.5q-63 172 -122.5 247.5t-131.5 75.5q-29 0 -92 -24zM606 1647q0 53 36.5 95t82.5 42q32 0 53 -23.5t21 -60.5q0 -58 -32 -97.5t-79 -39.5q-38 0 -60 23t-22 61z M934 1647q0 53 36.5 95t82.5 42q32 0 52.5 -23.5t20.5 -60.5q0 -59 -31.5 -98t-78.5 -39q-38 0 -60 23t-22 61z" />
<glyph unicode="&#x2c6;" horiz-adv-x="681" d="M205 1063l321 346h101l180 -346h-74l-168 213l-280 -213h-80z" />
<glyph unicode="&#x2dc;" horiz-adv-x="681" d="M225 1130q31 112 78.5 161.5t122.5 49.5q56 0 129 -28l123 -49q26 -11 55 -11q31 0 53 18t52 70h57q-19 -100 -71.5 -155.5t-127.5 -55.5q-45 0 -131 33l-23 9q-24 8 -44.5 16.5t-28.5 13.5q-48 19 -78 19q-38 0 -60.5 -19t-45.5 -72h-60z" />
<glyph unicode="&#x2000;" horiz-adv-x="959" />
<glyph unicode="&#x2001;" horiz-adv-x="1919" />
<glyph unicode="&#x2002;" horiz-adv-x="959" />
<glyph unicode="&#x2003;" horiz-adv-x="1919" />
<glyph unicode="&#x2004;" horiz-adv-x="639" />
<glyph unicode="&#x2005;" horiz-adv-x="479" />
<glyph unicode="&#x2006;" horiz-adv-x="319" />
<glyph unicode="&#x2007;" horiz-adv-x="319" />
<glyph unicode="&#x2008;" horiz-adv-x="239" />
<glyph unicode="&#x2009;" horiz-adv-x="383" />
<glyph unicode="&#x200a;" horiz-adv-x="106" />
<glyph unicode="&#x2010;" horiz-adv-x="681" d="M39 457l39 118h545l-37 -118h-547z" />
<glyph unicode="&#x2011;" horiz-adv-x="681" d="M39 457l39 118h545l-37 -118h-547z" />
<glyph unicode="&#x2012;" horiz-adv-x="681" d="M39 457l39 118h545l-37 -118h-547z" />
<glyph unicode="&#x2013;" d="M-20 467l20 102h1044l-20 -102h-1044z" />
<glyph unicode="&#x2014;" horiz-adv-x="2048" d="M-20 467l20 102h2068l-20 -102h-2068z" />
<glyph unicode="&#x2018;" horiz-adv-x="569" d="M160 1036q138 266 289 439l65 26l14 -18q-73 -114 -113 -216t-55 -216q-74 -13 -182 -52z" />
<glyph unicode="&#x2019;" horiz-adv-x="569" d="M160 1018q74 115 113.5 216t54.5 216q73 11 182 51l18 -37q-138 -266 -288 -438l-66 -27z" />
<glyph unicode="&#x201a;" horiz-adv-x="569" d="M55 -236q120 167 174 431l181 51l22 -25q-127 -256 -293 -446l-65 -25z" />
<glyph unicode="&#x201c;" d="M201 1036q139 269 288 439l66 26l14 -18q-73 -114 -113 -216t-55 -216q-74 -13 -182 -52zM604 1036q138 266 289 439l65 26l15 -18q-73 -114 -113 -216t-55 -216q-74 -13 -182 -52z" />
<glyph unicode="&#x201d;" d="M201 1018q74 115 113.5 216t54.5 216q73 11 182 51l18 -37q-138 -266 -288 -438l-66 -27zM604 1018q74 115 113.5 216t54.5 216q73 11 182 51l19 -37q-137 -264 -289 -438l-66 -27z" />
<glyph unicode="&#x201e;" d="M88 -236q120 167 174 431l180 51l23 -25q-127 -256 -293 -446l-66 -25zM492 -236q120 167 174 431l180 51l22 -25q-127 -256 -293 -446l-65 -25z" />
<glyph unicode="&#x2022;" d="M176 727q0 142 104.5 246t247.5 104q145 0 249 -103.5t104 -248.5t-104 -248.5t-249 -103.5q-146 0 -249 104t-103 250z" />
<glyph unicode="&#x2026;" horiz-adv-x="2048" d="M209 86q0 59 36 101t87 42q38 0 65 -28.5t27 -69.5q0 -57 -37 -99t-88 -42q-41 0 -65.5 26t-24.5 70zM891 86q0 59 36 101t87 42q38 0 65 -28.5t27 -69.5q0 -57 -37 -99t-88 -42q-41 0 -65.5 26t-24.5 70zM1573 86q0 59 36 101t87 42q38 0 65 -28.5t27 -69.5 q0 -57 -37 -99t-88 -42q-41 0 -65.5 26t-24.5 70z" />
<glyph unicode="&#x202f;" horiz-adv-x="383" />
<glyph unicode="&#x2039;" horiz-adv-x="681" d="M117 514v33l397 354l39 -33l-281 -344l195 -350l-41 -31z" />
<glyph unicode="&#x203a;" horiz-adv-x="681" d="M129 176l281 344l-195 350l41 31l309 -371v-32l-397 -355z" />
<glyph unicode="&#x205f;" horiz-adv-x="479" />
<glyph unicode="&#x20ac;" d="M94 561l56 105q57 -11 114 -11l21 115q-125 0 -152 -2l55 104q40 -12 125 -12q35 108 89 202t130 174.5t181 127.5t225 47q219 0 319 -100q-4 -14 -22 -65.5t-33.5 -103.5t-21.5 -89h-64l29 184q-21 51 -82.5 76.5t-147.5 25.5q-124 0 -245 -131t-187 -348h351 q104 0 184 12l-55 -106l-506 4q-17 -83 -23 -115q306 0 473 11l-55 -105l-428 4q-21 -242 53.5 -388t208.5 -146q74 0 146 24t112 70l39 192h66q-6 -37 -9 -87.5t-3.5 -106t-0.5 -64.5q-128 -100 -354 -100q-76 0 -140 18t-109.5 50.5t-81 77.5t-55.5 98.5t-33 113.5 t-13 122.5t4 125.5q-102 0 -160 -4z" />
<glyph unicode="&#x2122;" horiz-adv-x="2099" d="M311 1227l21 190q115 -4 348 -4q231 0 348 4l-31 -190h-47l4 73q4 21 -6 37q-4 17 -135 17h-76l-100 -590q-4 -24 -4 -37q3 -25 33 -25l73 -4l-4 -45q-53 4 -164 4q-117 0 -176 -4l6 45l64 4q14 0 23.5 7.5t16 26.5t8.5 28t7 35l90 555h-123q-79 0 -92 -13 q-10 -12 -18 -45l-19 -69h-47zM1010 653l6 43q33 2 61 21t37 49l164 547q2 6 2 20q0 33 -80 37l-35 2l4 45q35 -4 105 -4q75 0 112 4l191 -608l276 434q41 63 103 174q35 -4 104 -4q70 0 105 4l-4 -45l-50 -2q-16 -2 -28 -9t-12 -18l-37 -571v-39q0 -27 55 -31l47 -4l-6 -45 q-53 4 -164 4t-166 -4l4 45l39 4q68 4 68 35l31 525l-39 -62l-281 -444l-68 -117h-43l-186 594l-131 -465q-6 -21 -6 -43q0 -19 55 -23l47 -4l-4 -45q-45 4 -137 4t-139 -4z" />
<glyph unicode="&#xe000;" horiz-adv-x="983" d="M0 0v983h983v-983h-983z" />
</font>
</defs>
</svg>
